M48
; DRILL file {KiCad (5.1.9)-1} date 06/05/21 08:41:24
; FORMAT={-:-/ absolute / inch / decimal}
; #@! TF.CreationDate,2021-06-05T08:41:24+03:00
; #@! TF.GenerationSoftware,Kicad,Pcbnew,(5.1.9)-1
; #@! TF.FileFunction,Plated,1,2,PTH
FMAT,2
INCH
T1C0.0157
T2C0.0315
T3C0.0354
T4C0.0374
T5C0.0472
T6C0.0906
%
G90
G05
T1
X2.1358Y-6.3681
X2.4016Y-6.2894
X2.687Y-6.1614
X2.9134Y-6.0827
X3.1693Y-5.9646
X3.435Y-5.8661
X3.6614Y-5.7776
X3.9272Y-5.6693
X4.3799Y-5.4528
X4.6949Y-5.3543
X5.0Y-5.2559
X5.2657Y-5.1575
X5.5118Y-5.0492
X5.7874Y-4.9606
X6.0433Y-4.8524
X6.2894Y-4.7539
X6.565Y-5.4528
X6.6831Y-5.561
X6.7323Y-5.6496
X6.7717Y-5.748
X6.8307Y-5.8071
X6.9094Y-5.7185
X7.0669Y-5.561
X7.2638Y-6.2894
X7.2736Y-6.3386
X7.313Y-5.9941
X7.313Y-6.1122
X7.3327Y-5.1673
X7.3327Y-6.5157
X7.4016Y-6.3386
X7.4409Y-6.2894
X7.5984Y-7.4114
X7.7559Y-5.6201
X7.7559Y-5.7382
X8.0512Y-5.2657
X8.2087Y-5.0886
X8.2185Y-5.3445
X8.2185Y-6.0236
X8.2382Y-5.6693
X8.3268Y-6.0236
X8.4154Y-5.3642
X8.4247Y-5.8853
X8.4547Y-5.4035
X8.4646Y-5.3051
X8.4843Y-5.9843
X8.5138Y-5.3445
X8.9862Y-5.6791
T2
X1.6732Y-5.6693
X1.6732Y-5.7693
X1.6732Y-5.8693
X1.6732Y-5.9693
X1.6732Y-6.0693
X1.6732Y-6.1693
X1.6732Y-6.2693
X1.6732Y-6.3693
X1.6831Y-4.7539
X1.6831Y-4.8539
X1.6831Y-4.9539
X1.6831Y-5.0539
X1.6831Y-5.1539
X1.6831Y-5.2539
X1.6831Y-5.3539
X1.6831Y-5.4539
X1.9732Y-5.6693
X1.9732Y-5.7693
X1.9732Y-5.8693
X1.9732Y-5.9693
X1.9732Y-6.0693
X1.9732Y-6.1693
X1.9732Y-6.2693
X1.9732Y-6.3693
X1.9831Y-4.7539
X1.9831Y-4.8539
X1.9831Y-4.9539
X1.9831Y-5.0539
X1.9831Y-5.1539
X1.9831Y-5.2539
X1.9831Y-5.3539
X1.9831Y-5.4539
X7.2343Y-5.4724
X7.2343Y-5.5724
X7.2343Y-5.6724
X7.2343Y-5.7724
X7.2343Y-5.8724
X7.2343Y-5.9724
X7.2343Y-6.0724
X7.2343Y-6.1724
X7.5343Y-5.4724
X7.5343Y-5.5724
X7.5343Y-5.6724
X7.5343Y-5.7724
X7.5343Y-5.8724
X7.5343Y-5.9724
X7.5343Y-6.0724
X7.5343Y-6.1724
X8.3366Y-4.7933
X8.3366Y-4.8933
X8.3366Y-4.9933
X8.3366Y-5.0933
X8.3366Y-5.1933
X8.3366Y-5.2933
X8.3366Y-5.3933
X8.3366Y-5.4933
X8.6366Y-4.7933
X8.6366Y-4.8933
X8.6366Y-4.9933
X8.6366Y-5.0933
X8.6366Y-5.1933
X8.6366Y-5.2933
X8.6366Y-5.3933
X8.6366Y-5.4933
T3
X2.1358Y-6.524
X2.1358Y-6.624
X2.4016Y-6.524
X2.4016Y-6.624
X2.687Y-6.5339
X2.687Y-6.6339
X2.9232Y-6.5339
X2.9232Y-6.6339
X3.1693Y-6.5339
X3.1693Y-6.6339
X3.435Y-6.5339
X3.435Y-6.6339
X3.6713Y-6.5437
X3.6713Y-6.6437
X3.937Y-6.5437
X3.937Y-6.6437
X4.3799Y-6.5437
X4.3799Y-6.6437
X4.6949Y-6.5535
X4.6949Y-6.6535
X5.0Y-6.5535
X5.0Y-6.6535
X5.2559Y-6.5535
X5.2559Y-6.6535
X5.5118Y-6.5437
X5.5118Y-6.6437
X5.7874Y-6.5437
X5.7874Y-6.6437
X6.0433Y-6.5535
X6.0433Y-6.6535
X6.2894Y-6.5535
X6.2894Y-6.6535
X6.9193Y-6.5634
X6.9193Y-6.6634
X7.1949Y-6.5634
X7.1949Y-6.6634
X7.4705Y-6.5634
X7.4705Y-6.6634
X7.7362Y-6.5634
X7.7362Y-6.6634
X8.002Y-6.5634
X8.002Y-6.6634
X8.2677Y-6.5634
X8.2677Y-6.6634
X8.5433Y-6.5634
X8.5433Y-6.6634
X8.8189Y-6.5634
X8.8189Y-6.6634
X9.0846Y-6.5634
X9.0846Y-6.6634
T4
X1.8209Y-7.1161
X1.8209Y-7.2146
X1.8996Y-7.1161
X1.8996Y-7.2146
T5
X2.1358Y-6.8213
X2.1358Y-7.4213
X2.4016Y-6.8213
X2.4016Y-7.4213
X2.687Y-6.8213
X2.687Y-7.4213
X2.9232Y-6.8213
X2.9232Y-7.4213
X3.1693Y-6.8213
X3.1693Y-7.4213
X3.435Y-6.8213
X3.435Y-7.4213
X3.6713Y-6.8213
X3.6713Y-7.4213
X3.937Y-6.8213
X3.937Y-7.4213
X4.3799Y-6.8114
X4.3799Y-7.4114
X4.6949Y-6.8114
X4.6949Y-7.4114
X5.0Y-6.8114
X5.0Y-7.4114
X5.2559Y-6.8114
X5.2559Y-7.4114
X5.5118Y-6.8114
X5.5118Y-7.4114
X5.7874Y-6.8114
X5.7874Y-7.4114
X6.0433Y-6.8114
X6.0433Y-7.4114
X6.2894Y-6.8114
X6.2894Y-7.4114
X6.9193Y-6.8114
X6.9193Y-7.4114
X7.1949Y-6.8114
X7.1949Y-7.4114
X7.4705Y-6.8114
X7.4705Y-7.4114
X7.7362Y-6.8114
X7.7362Y-7.4114
X8.002Y-6.8114
X8.002Y-7.4114
X8.2677Y-6.8114
X8.2677Y-7.4114
X8.5433Y-6.8114
X8.5433Y-7.4114
X8.8189Y-6.8114
X8.8189Y-7.4114
X9.0846Y-6.8114
X9.0846Y-7.4114
T6
X1.7083Y-6.9291
X1.7083Y-7.4016
T0
M30
