%TF.GenerationSoftware,KiCad,Pcbnew,(5.1.9)-1*%
%TF.CreationDate,2021-06-05T08:41:13+03:00*%
%TF.ProjectId,AdderBreakoutV2,41646465-7242-4726-9561-6b6f75745632,rev?*%
%TF.SameCoordinates,Original*%
%TF.FileFunction,Copper,L2,Bot*%
%TF.FilePolarity,Positive*%
%FSLAX46Y46*%
G04 Gerber Fmt 4.6, Leading zero omitted, Abs format (unit mm)*
G04 Created by KiCad (PCBNEW (5.1.9)-1) date 2021-06-05 08:41:13*
%MOMM*%
%LPD*%
G01*
G04 APERTURE LIST*
%TA.AperFunction,ComponentPad*%
%ADD10R,1.800000X1.800000*%
%TD*%
%TA.AperFunction,ComponentPad*%
%ADD11C,1.800000*%
%TD*%
%TA.AperFunction,ComponentPad*%
%ADD12R,1.600000X1.600000*%
%TD*%
%TA.AperFunction,ComponentPad*%
%ADD13C,1.600000*%
%TD*%
%TA.AperFunction,ComponentPad*%
%ADD14C,4.000000*%
%TD*%
%TA.AperFunction,ComponentPad*%
%ADD15C,2.400000*%
%TD*%
%TA.AperFunction,ComponentPad*%
%ADD16O,2.400000X2.400000*%
%TD*%
%TA.AperFunction,ComponentPad*%
%ADD17O,1.600000X1.600000*%
%TD*%
%TA.AperFunction,ViaPad*%
%ADD18C,0.800000*%
%TD*%
%TA.AperFunction,Conductor*%
%ADD19C,0.250000*%
%TD*%
G04 APERTURE END LIST*
D10*
%TO.P,D1,1*%
%TO.N,Net-(D1-Pad1)*%
X54250000Y-168250000D03*
D11*
%TO.P,D1,2*%
%TO.N,A1*%
X54250000Y-165710000D03*
%TD*%
D10*
%TO.P,D2,1*%
%TO.N,Net-(D2-Pad1)*%
X61000000Y-168250000D03*
D11*
%TO.P,D2,2*%
%TO.N,A2*%
X61000000Y-165710000D03*
%TD*%
D10*
%TO.P,D3,1*%
%TO.N,Net-(D3-Pad1)*%
X68250000Y-168500000D03*
D11*
%TO.P,D3,2*%
%TO.N,A3*%
X68250000Y-165960000D03*
%TD*%
D10*
%TO.P,D4,1*%
%TO.N,Net-(D4-Pad1)*%
X74250000Y-168500000D03*
D11*
%TO.P,D4,2*%
%TO.N,A4*%
X74250000Y-165960000D03*
%TD*%
D10*
%TO.P,D5,1*%
%TO.N,Net-(D5-Pad1)*%
X80500000Y-168500000D03*
D11*
%TO.P,D5,2*%
%TO.N,A5*%
X80500000Y-165960000D03*
%TD*%
D10*
%TO.P,D6,1*%
%TO.N,Net-(D6-Pad1)*%
X87250000Y-168500000D03*
D11*
%TO.P,D6,2*%
%TO.N,A6*%
X87250000Y-165960000D03*
%TD*%
D10*
%TO.P,D7,1*%
%TO.N,Net-(D7-Pad1)*%
X93250000Y-168750000D03*
D11*
%TO.P,D7,2*%
%TO.N,A7*%
X93250000Y-166210000D03*
%TD*%
D10*
%TO.P,D8,1*%
%TO.N,Net-(D8-Pad1)*%
X100000000Y-168750000D03*
D11*
%TO.P,D8,2*%
%TO.N,A8*%
X100000000Y-166210000D03*
%TD*%
D10*
%TO.P,D11,1*%
%TO.N,Net-(D11-Pad1)*%
X111250000Y-168750000D03*
D11*
%TO.P,D11,2*%
%TO.N,B1*%
X111250000Y-166210000D03*
%TD*%
D10*
%TO.P,D12,1*%
%TO.N,Net-(D12-Pad1)*%
X119250000Y-169000000D03*
D11*
%TO.P,D12,2*%
%TO.N,B2*%
X119250000Y-166460000D03*
%TD*%
%TO.P,D13,2*%
%TO.N,B3*%
X127000000Y-166460000D03*
D10*
%TO.P,D13,1*%
%TO.N,Net-(D13-Pad1)*%
X127000000Y-169000000D03*
%TD*%
D11*
%TO.P,D14,2*%
%TO.N,B4*%
X133500000Y-166460000D03*
D10*
%TO.P,D14,1*%
%TO.N,Net-(D14-Pad1)*%
X133500000Y-169000000D03*
%TD*%
D11*
%TO.P,D15,2*%
%TO.N,B5*%
X140000000Y-166210000D03*
D10*
%TO.P,D15,1*%
%TO.N,Net-(D15-Pad1)*%
X140000000Y-168750000D03*
%TD*%
%TO.P,D16,1*%
%TO.N,Net-(D16-Pad1)*%
X147000000Y-168750000D03*
D11*
%TO.P,D16,2*%
%TO.N,B6*%
X147000000Y-166210000D03*
%TD*%
D10*
%TO.P,D17,1*%
%TO.N,Net-(D17-Pad1)*%
X153500000Y-169000000D03*
D11*
%TO.P,D17,2*%
%TO.N,B7*%
X153500000Y-166460000D03*
%TD*%
D10*
%TO.P,D18,1*%
%TO.N,Net-(D18-Pad1)*%
X159750000Y-169000000D03*
D11*
%TO.P,D18,2*%
%TO.N,B8*%
X159750000Y-166460000D03*
%TD*%
D10*
%TO.P,D21,1*%
%TO.N,Net-(D21-Pad1)*%
X175750000Y-169250000D03*
D11*
%TO.P,D21,2*%
%TO.N,C1*%
X175750000Y-166710000D03*
%TD*%
D10*
%TO.P,D22,1*%
%TO.N,Net-(D22-Pad1)*%
X182750000Y-169250000D03*
D11*
%TO.P,D22,2*%
%TO.N,C2*%
X182750000Y-166710000D03*
%TD*%
D10*
%TO.P,D23,1*%
%TO.N,Net-(D23-Pad1)*%
X189750000Y-169250000D03*
D11*
%TO.P,D23,2*%
%TO.N,C3*%
X189750000Y-166710000D03*
%TD*%
D10*
%TO.P,D24,1*%
%TO.N,Net-(D24-Pad1)*%
X196500000Y-169250000D03*
D11*
%TO.P,D24,2*%
%TO.N,C4*%
X196500000Y-166710000D03*
%TD*%
D10*
%TO.P,D25,1*%
%TO.N,Net-(D25-Pad1)*%
X203250000Y-169250000D03*
D11*
%TO.P,D25,2*%
%TO.N,C5*%
X203250000Y-166710000D03*
%TD*%
D10*
%TO.P,D26,1*%
%TO.N,Net-(D26-Pad1)*%
X210000000Y-169250000D03*
D11*
%TO.P,D26,2*%
%TO.N,C6*%
X210000000Y-166710000D03*
%TD*%
D10*
%TO.P,D27,1*%
%TO.N,Net-(D27-Pad1)*%
X217000000Y-169250000D03*
D11*
%TO.P,D27,2*%
%TO.N,C7*%
X217000000Y-166710000D03*
%TD*%
D10*
%TO.P,D28,1*%
%TO.N,Net-(D28-Pad1)*%
X224000000Y-169250000D03*
D11*
%TO.P,D28,2*%
%TO.N,C8*%
X224000000Y-166710000D03*
%TD*%
%TO.P,D29,2*%
%TO.N,C9*%
X230750000Y-166710000D03*
D10*
%TO.P,D29,1*%
%TO.N,Net-(D29-Pad1)*%
X230750000Y-169250000D03*
%TD*%
D12*
%TO.P,J1,1*%
%TO.N,+5V*%
X48250000Y-183250000D03*
D13*
%TO.P,J1,2*%
%TO.N,N/C*%
X48250000Y-180750000D03*
%TO.P,J1,3*%
X46250000Y-180750000D03*
%TO.P,J1,4*%
X46250000Y-183250000D03*
D14*
%TO.P,J1,5*%
%TO.N,GND*%
X43390000Y-176000000D03*
X43390000Y-188000000D03*
%TD*%
D15*
%TO.P,R1,1*%
%TO.N,GND*%
X54250000Y-188500000D03*
D16*
%TO.P,R1,2*%
%TO.N,Net-(D1-Pad1)*%
X54250000Y-173260000D03*
%TD*%
D15*
%TO.P,R2,1*%
%TO.N,GND*%
X61000000Y-188500000D03*
D16*
%TO.P,R2,2*%
%TO.N,Net-(D2-Pad1)*%
X61000000Y-173260000D03*
%TD*%
%TO.P,R3,2*%
%TO.N,Net-(D3-Pad1)*%
X68250000Y-173260000D03*
D15*
%TO.P,R3,1*%
%TO.N,GND*%
X68250000Y-188500000D03*
%TD*%
D16*
%TO.P,R4,2*%
%TO.N,Net-(D4-Pad1)*%
X74250000Y-173260000D03*
D15*
%TO.P,R4,1*%
%TO.N,GND*%
X74250000Y-188500000D03*
%TD*%
D16*
%TO.P,R5,2*%
%TO.N,Net-(D5-Pad1)*%
X80500000Y-173260000D03*
D15*
%TO.P,R5,1*%
%TO.N,GND*%
X80500000Y-188500000D03*
%TD*%
D16*
%TO.P,R6,2*%
%TO.N,Net-(D6-Pad1)*%
X87250000Y-173260000D03*
D15*
%TO.P,R6,1*%
%TO.N,GND*%
X87250000Y-188500000D03*
%TD*%
%TO.P,R7,1*%
%TO.N,GND*%
X93250000Y-188500000D03*
D16*
%TO.P,R7,2*%
%TO.N,Net-(D7-Pad1)*%
X93250000Y-173260000D03*
%TD*%
D15*
%TO.P,R8,1*%
%TO.N,GND*%
X100000000Y-188500000D03*
D16*
%TO.P,R8,2*%
%TO.N,Net-(D8-Pad1)*%
X100000000Y-173260000D03*
%TD*%
%TO.P,R11,2*%
%TO.N,Net-(D11-Pad1)*%
X111250000Y-173010000D03*
D15*
%TO.P,R11,1*%
%TO.N,GND*%
X111250000Y-188250000D03*
%TD*%
D16*
%TO.P,R12,2*%
%TO.N,Net-(D12-Pad1)*%
X119250000Y-173010000D03*
D15*
%TO.P,R12,1*%
%TO.N,GND*%
X119250000Y-188250000D03*
%TD*%
%TO.P,R13,1*%
%TO.N,GND*%
X127000000Y-188250000D03*
D16*
%TO.P,R13,2*%
%TO.N,Net-(D13-Pad1)*%
X127000000Y-173010000D03*
%TD*%
D15*
%TO.P,R14,1*%
%TO.N,GND*%
X133500000Y-188250000D03*
D16*
%TO.P,R14,2*%
%TO.N,Net-(D14-Pad1)*%
X133500000Y-173010000D03*
%TD*%
D15*
%TO.P,R15,1*%
%TO.N,GND*%
X140000000Y-188250000D03*
D16*
%TO.P,R15,2*%
%TO.N,Net-(D15-Pad1)*%
X140000000Y-173010000D03*
%TD*%
%TO.P,R16,2*%
%TO.N,Net-(D16-Pad1)*%
X147000000Y-173010000D03*
D15*
%TO.P,R16,1*%
%TO.N,GND*%
X147000000Y-188250000D03*
%TD*%
D16*
%TO.P,R17,2*%
%TO.N,Net-(D17-Pad1)*%
X153500000Y-173010000D03*
D15*
%TO.P,R17,1*%
%TO.N,GND*%
X153500000Y-188250000D03*
%TD*%
D16*
%TO.P,R18,2*%
%TO.N,Net-(D18-Pad1)*%
X159750000Y-173010000D03*
D15*
%TO.P,R18,1*%
%TO.N,GND*%
X159750000Y-188250000D03*
%TD*%
D16*
%TO.P,R21,2*%
%TO.N,Net-(D21-Pad1)*%
X175750000Y-173010000D03*
D15*
%TO.P,R21,1*%
%TO.N,GND*%
X175750000Y-188250000D03*
%TD*%
%TO.P,R22,1*%
%TO.N,GND*%
X182750000Y-188250000D03*
D16*
%TO.P,R22,2*%
%TO.N,Net-(D22-Pad1)*%
X182750000Y-173010000D03*
%TD*%
%TO.P,R23,2*%
%TO.N,Net-(D23-Pad1)*%
X189750000Y-173010000D03*
D15*
%TO.P,R23,1*%
%TO.N,GND*%
X189750000Y-188250000D03*
%TD*%
D16*
%TO.P,R24,2*%
%TO.N,Net-(D24-Pad1)*%
X196500000Y-173010000D03*
D15*
%TO.P,R24,1*%
%TO.N,GND*%
X196500000Y-188250000D03*
%TD*%
%TO.P,R25,1*%
%TO.N,GND*%
X203250000Y-188250000D03*
D16*
%TO.P,R25,2*%
%TO.N,Net-(D25-Pad1)*%
X203250000Y-173010000D03*
%TD*%
D15*
%TO.P,R26,1*%
%TO.N,GND*%
X210000000Y-188250000D03*
D16*
%TO.P,R26,2*%
%TO.N,Net-(D26-Pad1)*%
X210000000Y-173010000D03*
%TD*%
D15*
%TO.P,R27,1*%
%TO.N,GND*%
X217000000Y-188250000D03*
D16*
%TO.P,R27,2*%
%TO.N,Net-(D27-Pad1)*%
X217000000Y-173010000D03*
%TD*%
D15*
%TO.P,R28,1*%
%TO.N,GND*%
X224000000Y-188250000D03*
D16*
%TO.P,R28,2*%
%TO.N,Net-(D28-Pad1)*%
X224000000Y-173010000D03*
%TD*%
D15*
%TO.P,R29,1*%
%TO.N,GND*%
X230750000Y-188250000D03*
D16*
%TO.P,R29,2*%
%TO.N,Net-(D29-Pad1)*%
X230750000Y-173010000D03*
%TD*%
D12*
%TO.P,SW1,1*%
%TO.N,+5V*%
X42500000Y-144000000D03*
D17*
%TO.P,SW1,9*%
%TO.N,A1*%
X50120000Y-161780000D03*
%TO.P,SW1,2*%
%TO.N,+5V*%
X42500000Y-146540000D03*
%TO.P,SW1,10*%
%TO.N,A2*%
X50120000Y-159240000D03*
%TO.P,SW1,3*%
%TO.N,+5V*%
X42500000Y-149080000D03*
%TO.P,SW1,11*%
%TO.N,A3*%
X50120000Y-156700000D03*
%TO.P,SW1,4*%
%TO.N,+5V*%
X42500000Y-151620000D03*
%TO.P,SW1,12*%
%TO.N,A4*%
X50120000Y-154160000D03*
%TO.P,SW1,5*%
%TO.N,+5V*%
X42500000Y-154160000D03*
%TO.P,SW1,13*%
%TO.N,A5*%
X50120000Y-151620000D03*
%TO.P,SW1,6*%
%TO.N,+5V*%
X42500000Y-156700000D03*
%TO.P,SW1,14*%
%TO.N,A6*%
X50120000Y-149080000D03*
%TO.P,SW1,7*%
%TO.N,+5V*%
X42500000Y-159240000D03*
%TO.P,SW1,15*%
%TO.N,A7*%
X50120000Y-146540000D03*
%TO.P,SW1,8*%
%TO.N,+5V*%
X42500000Y-161780000D03*
%TO.P,SW1,16*%
%TO.N,A8*%
X50120000Y-144000000D03*
%TD*%
%TO.P,SW2,16*%
%TO.N,B8*%
X50370000Y-120750000D03*
%TO.P,SW2,8*%
%TO.N,+5V*%
X42750000Y-138530000D03*
%TO.P,SW2,15*%
%TO.N,B7*%
X50370000Y-123290000D03*
%TO.P,SW2,7*%
%TO.N,+5V*%
X42750000Y-135990000D03*
%TO.P,SW2,14*%
%TO.N,B6*%
X50370000Y-125830000D03*
%TO.P,SW2,6*%
%TO.N,+5V*%
X42750000Y-133450000D03*
%TO.P,SW2,13*%
%TO.N,B5*%
X50370000Y-128370000D03*
%TO.P,SW2,5*%
%TO.N,+5V*%
X42750000Y-130910000D03*
%TO.P,SW2,12*%
%TO.N,B4*%
X50370000Y-130910000D03*
%TO.P,SW2,4*%
%TO.N,+5V*%
X42750000Y-128370000D03*
%TO.P,SW2,11*%
%TO.N,B3*%
X50370000Y-133450000D03*
%TO.P,SW2,3*%
%TO.N,+5V*%
X42750000Y-125830000D03*
%TO.P,SW2,10*%
%TO.N,B2*%
X50370000Y-135990000D03*
%TO.P,SW2,2*%
%TO.N,+5V*%
X42750000Y-123290000D03*
%TO.P,SW2,9*%
%TO.N,B1*%
X50370000Y-138530000D03*
D12*
%TO.P,SW2,1*%
%TO.N,+5V*%
X42750000Y-120750000D03*
%TD*%
D17*
%TO.P,U1,16*%
%TO.N,B4*%
X191370000Y-139000000D03*
%TO.P,U1,8*%
%TO.N,A2*%
X183750000Y-156780000D03*
%TO.P,U1,15*%
%TO.N,C1*%
X191370000Y-141540000D03*
%TO.P,U1,7*%
%TO.N,B2*%
X183750000Y-154240000D03*
%TO.P,U1,14*%
%TO.N,Carry*%
X191370000Y-144080000D03*
%TO.P,U1,6*%
%TO.N,C3*%
X183750000Y-151700000D03*
%TO.P,U1,13*%
%TO.N,GND*%
X191370000Y-146620000D03*
%TO.P,U1,5*%
%TO.N,+5V*%
X183750000Y-149160000D03*
%TO.P,U1,12*%
%TO.N,GND*%
X191370000Y-149160000D03*
%TO.P,U1,4*%
%TO.N,B3*%
X183750000Y-146620000D03*
%TO.P,U1,11*%
%TO.N,B1*%
X191370000Y-151700000D03*
%TO.P,U1,3*%
%TO.N,A3*%
X183750000Y-144080000D03*
%TO.P,U1,10*%
%TO.N,A1*%
X191370000Y-154240000D03*
%TO.P,U1,2*%
%TO.N,C2*%
X183750000Y-141540000D03*
%TO.P,U1,9*%
%TO.N,C4*%
X191370000Y-156780000D03*
D12*
%TO.P,U1,1*%
%TO.N,A4*%
X183750000Y-139000000D03*
%TD*%
%TO.P,U2,1*%
%TO.N,A8*%
X211750000Y-121750000D03*
D17*
%TO.P,U2,9*%
%TO.N,C8*%
X219370000Y-139530000D03*
%TO.P,U2,2*%
%TO.N,C6*%
X211750000Y-124290000D03*
%TO.P,U2,10*%
%TO.N,A5*%
X219370000Y-136990000D03*
%TO.P,U2,3*%
%TO.N,A7*%
X211750000Y-126830000D03*
%TO.P,U2,11*%
%TO.N,B5*%
X219370000Y-134450000D03*
%TO.P,U2,4*%
%TO.N,B7*%
X211750000Y-129370000D03*
%TO.P,U2,12*%
%TO.N,GND*%
X219370000Y-131910000D03*
%TO.P,U2,5*%
%TO.N,+5V*%
X211750000Y-131910000D03*
%TO.P,U2,13*%
%TO.N,Carry*%
X219370000Y-129370000D03*
%TO.P,U2,6*%
%TO.N,C7*%
X211750000Y-134450000D03*
%TO.P,U2,14*%
%TO.N,C9*%
X219370000Y-126830000D03*
%TO.P,U2,7*%
%TO.N,B6*%
X211750000Y-136990000D03*
%TO.P,U2,15*%
%TO.N,C5*%
X219370000Y-124290000D03*
%TO.P,U2,8*%
%TO.N,A6*%
X211750000Y-139530000D03*
%TO.P,U2,16*%
%TO.N,B8*%
X219370000Y-121750000D03*
%TD*%
D18*
%TO.N,A1*%
X54250000Y-161750000D03*
X184500000Y-159750000D03*
X189000000Y-159750000D03*
%TO.N,A2*%
X61000000Y-159750000D03*
%TO.N,A3*%
X68250000Y-156500000D03*
%TO.N,A4*%
X74000000Y-154500000D03*
%TO.N,A5*%
X80500000Y-151500000D03*
X173500000Y-147500000D03*
%TO.N,A6*%
X87250000Y-149000000D03*
X172000000Y-146000000D03*
%TO.N,A7*%
X93000000Y-146750000D03*
X171000000Y-143500000D03*
%TO.N,A8*%
X99750000Y-144000000D03*
X169750000Y-141250000D03*
%TO.N,B1*%
X111250000Y-138500000D03*
X197000000Y-145750000D03*
X197000000Y-142750000D03*
X186250000Y-131250000D03*
X166750000Y-138500000D03*
%TO.N,B2*%
X119250000Y-136000000D03*
X175500000Y-145250000D03*
%TO.N,B3*%
X127000000Y-133500000D03*
X179500000Y-141250000D03*
%TO.N,B4*%
X133750000Y-131000000D03*
%TO.N,B5*%
X140000000Y-128250000D03*
X204500000Y-133750000D03*
%TO.N,B6*%
X147000000Y-126000000D03*
X208750000Y-135750000D03*
%TO.N,B7*%
X153500000Y-123250000D03*
X208500000Y-129250000D03*
%TO.N,B8*%
X159750000Y-120750000D03*
%TO.N,C1*%
X184750000Y-161000000D03*
X188000000Y-161000000D03*
%TO.N,C2*%
X185750000Y-155250000D03*
X185750000Y-152250000D03*
%TO.N,C5*%
X216250000Y-135750000D03*
X214750000Y-137250000D03*
X211500000Y-153000000D03*
X208750000Y-153000000D03*
%TO.N,+5V*%
X186250000Y-165500000D03*
X215500000Y-152000000D03*
X213987347Y-149487347D03*
X213750000Y-136250000D03*
X215000000Y-134750000D03*
%TO.N,GND*%
X193000000Y-188250000D03*
%TO.N,Carry*%
X209250000Y-144000000D03*
X228250000Y-144250000D03*
%TD*%
D19*
%TO.N,A1*%
X54250000Y-161750000D02*
X54250000Y-165710000D01*
X184500000Y-159750000D02*
X189000000Y-159750000D01*
%TO.N,A2*%
X61000000Y-165710000D02*
X61000000Y-159750000D01*
%TO.N,A3*%
X68250000Y-156500000D02*
X68250000Y-165960000D01*
%TO.N,A4*%
X74250000Y-161426998D02*
X74000000Y-161176998D01*
X74000000Y-161176998D02*
X74000000Y-154500000D01*
X74250000Y-165960000D02*
X74250000Y-161426998D01*
%TO.N,A5*%
X80500000Y-151500000D02*
X80500000Y-165960000D01*
X173500000Y-146176998D02*
X183676998Y-136000000D01*
X173500000Y-147500000D02*
X173500000Y-146176998D01*
X194500000Y-136000000D02*
X200500000Y-142000000D01*
X183676998Y-136000000D02*
X194500000Y-136000000D01*
X214360000Y-142000000D02*
X219370000Y-136990000D01*
X200500000Y-142000000D02*
X214360000Y-142000000D01*
%TO.N,A6*%
X87250000Y-165960000D02*
X87250000Y-149000000D01*
X210618630Y-139530000D02*
X206088630Y-135000000D01*
X211750000Y-139530000D02*
X210618630Y-139530000D01*
X183000000Y-135000000D02*
X172000000Y-146000000D01*
X206088630Y-135000000D02*
X183000000Y-135000000D01*
%TO.N,A7*%
X93000000Y-165960000D02*
X93250000Y-166210000D01*
X93000000Y-146750000D02*
X93000000Y-165960000D01*
X171000000Y-143500000D02*
X181000000Y-133500000D01*
X181000000Y-133500000D02*
X199000000Y-133500000D01*
X205670000Y-126830000D02*
X211750000Y-126830000D01*
X199000000Y-133500000D02*
X205670000Y-126830000D01*
%TO.N,A8*%
X100000000Y-144250000D02*
X99750000Y-144000000D01*
X100000000Y-166210000D02*
X100000000Y-144250000D01*
X169750000Y-141250000D02*
X171500000Y-141250000D01*
X171500000Y-141250000D02*
X180250000Y-132500000D01*
X180250000Y-132500000D02*
X193000000Y-132500000D01*
X203750000Y-121750000D02*
X211750000Y-121750000D01*
X193000000Y-132500000D02*
X203750000Y-121750000D01*
%TO.N,B1*%
X111250000Y-138500000D02*
X111250000Y-166210000D01*
X197000000Y-145750000D02*
X197000000Y-142750000D01*
X186250000Y-131250000D02*
X185500000Y-130500000D01*
X185500000Y-130500000D02*
X175500000Y-130500000D01*
X167500000Y-138500000D02*
X166750000Y-138500000D01*
X175500000Y-130500000D02*
X167500000Y-138500000D01*
%TO.N,B2*%
X119250000Y-166460000D02*
X119250000Y-136000000D01*
X175500000Y-145250000D02*
X180000000Y-149750000D01*
X180000000Y-150490000D02*
X183750000Y-154240000D01*
X180000000Y-149750000D02*
X180000000Y-150490000D01*
%TO.N,B3*%
X127000000Y-133500000D02*
X127000000Y-166460000D01*
X179500000Y-142370000D02*
X183750000Y-146620000D01*
X179500000Y-141250000D02*
X179500000Y-142370000D01*
%TO.N,B4*%
X133500000Y-131250000D02*
X133750000Y-131000000D01*
X133500000Y-166460000D02*
X133500000Y-131250000D01*
%TO.N,B5*%
X140000000Y-128250000D02*
X140000000Y-166210000D01*
X215704999Y-130784999D02*
X219370000Y-134450000D01*
X207465001Y-130784999D02*
X215704999Y-130784999D01*
X204500000Y-133750000D02*
X207465001Y-130784999D01*
%TO.N,B6*%
X147000000Y-166210000D02*
X147000000Y-126000000D01*
X209990000Y-136990000D02*
X211750000Y-136990000D01*
X208750000Y-135750000D02*
X209990000Y-136990000D01*
%TO.N,B7*%
X153500000Y-123250000D02*
X153500000Y-166460000D01*
X211630000Y-129250000D02*
X211750000Y-129370000D01*
X208500000Y-129250000D02*
X211630000Y-129250000D01*
%TO.N,B8*%
X159750000Y-166460000D02*
X159750000Y-120750000D01*
%TO.N,C1*%
X184750000Y-161000000D02*
X188000000Y-161000000D01*
%TO.N,C2*%
X185750000Y-155250000D02*
X185750000Y-152250000D01*
%TO.N,C5*%
X216250000Y-135750000D02*
X214750000Y-137250000D01*
X211500000Y-153000000D02*
X208750000Y-153000000D01*
%TO.N,+5V*%
X189725001Y-155135001D02*
X183750000Y-149160000D01*
X189725001Y-162024999D02*
X189725001Y-155135001D01*
X186250000Y-165500000D02*
X189725001Y-162024999D01*
X213987347Y-150487347D02*
X213987347Y-149487347D01*
X215500000Y-152000000D02*
X213987347Y-150487347D01*
X213750000Y-136000000D02*
X215000000Y-134750000D01*
X213750000Y-136250000D02*
X213750000Y-136000000D01*
%TO.N,GND*%
X191370000Y-146620000D02*
X192870000Y-146620000D01*
X192870000Y-146620000D02*
X193000000Y-146750000D01*
X193000000Y-146750000D02*
X193000000Y-188250000D01*
X191370000Y-149160000D02*
X191370000Y-146620000D01*
%TO.N,Carry*%
X228000000Y-144000000D02*
X228250000Y-144250000D01*
X209250000Y-144000000D02*
X228000000Y-144000000D01*
%TD*%
M02*
