%TF.GenerationSoftware,KiCad,Pcbnew,(5.1.9)-1*%
%TF.CreationDate,2021-06-05T08:41:14+03:00*%
%TF.ProjectId,AdderBreakoutV2,41646465-7242-4726-9561-6b6f75745632,rev?*%
%TF.SameCoordinates,Original*%
%TF.FileFunction,Legend,Top*%
%TF.FilePolarity,Positive*%
%FSLAX46Y46*%
G04 Gerber Fmt 4.6, Leading zero omitted, Abs format (unit mm)*
G04 Created by KiCad (PCBNEW (5.1.9)-1) date 2021-06-05 08:41:14*
%MOMM*%
%LPD*%
G01*
G04 APERTURE LIST*
%ADD10C,0.150000*%
%ADD11C,0.300000*%
%ADD12C,0.010000*%
%ADD13C,0.120000*%
G04 APERTURE END LIST*
D10*
X61523809Y-128452380D02*
X61523809Y-127452380D01*
X61952380Y-128452380D02*
X61952380Y-127928571D01*
X61904761Y-127833333D01*
X61809523Y-127785714D01*
X61666666Y-127785714D01*
X61571428Y-127833333D01*
X61523809Y-127880952D01*
X62285714Y-127785714D02*
X62666666Y-127785714D01*
X62428571Y-127452380D02*
X62428571Y-128309523D01*
X62476190Y-128404761D01*
X62571428Y-128452380D01*
X62666666Y-128452380D01*
X62857142Y-127785714D02*
X63238095Y-127785714D01*
X63000000Y-127452380D02*
X63000000Y-128309523D01*
X63047619Y-128404761D01*
X63142857Y-128452380D01*
X63238095Y-128452380D01*
X63571428Y-127785714D02*
X63571428Y-128785714D01*
X63571428Y-127833333D02*
X63666666Y-127785714D01*
X63857142Y-127785714D01*
X63952380Y-127833333D01*
X64000000Y-127880952D01*
X64047619Y-127976190D01*
X64047619Y-128261904D01*
X64000000Y-128357142D01*
X63952380Y-128404761D01*
X63857142Y-128452380D01*
X63666666Y-128452380D01*
X63571428Y-128404761D01*
X64428571Y-128404761D02*
X64523809Y-128452380D01*
X64714285Y-128452380D01*
X64809523Y-128404761D01*
X64857142Y-128309523D01*
X64857142Y-128261904D01*
X64809523Y-128166666D01*
X64714285Y-128119047D01*
X64571428Y-128119047D01*
X64476190Y-128071428D01*
X64428571Y-127976190D01*
X64428571Y-127928571D01*
X64476190Y-127833333D01*
X64571428Y-127785714D01*
X64714285Y-127785714D01*
X64809523Y-127833333D01*
X65285714Y-128357142D02*
X65333333Y-128404761D01*
X65285714Y-128452380D01*
X65238095Y-128404761D01*
X65285714Y-128357142D01*
X65285714Y-128452380D01*
X65285714Y-127833333D02*
X65333333Y-127880952D01*
X65285714Y-127928571D01*
X65238095Y-127880952D01*
X65285714Y-127833333D01*
X65285714Y-127928571D01*
X66476190Y-127404761D02*
X65619047Y-128690476D01*
X67523809Y-127404761D02*
X66666666Y-128690476D01*
X68285714Y-127785714D02*
X68285714Y-128595238D01*
X68238095Y-128690476D01*
X68190476Y-128738095D01*
X68095238Y-128785714D01*
X67952380Y-128785714D01*
X67857142Y-128738095D01*
X68285714Y-128404761D02*
X68190476Y-128452380D01*
X68000000Y-128452380D01*
X67904761Y-128404761D01*
X67857142Y-128357142D01*
X67809523Y-128261904D01*
X67809523Y-127976190D01*
X67857142Y-127880952D01*
X67904761Y-127833333D01*
X68000000Y-127785714D01*
X68190476Y-127785714D01*
X68285714Y-127833333D01*
X68761904Y-128452380D02*
X68761904Y-127785714D01*
X68761904Y-127452380D02*
X68714285Y-127500000D01*
X68761904Y-127547619D01*
X68809523Y-127500000D01*
X68761904Y-127452380D01*
X68761904Y-127547619D01*
X69095238Y-127785714D02*
X69476190Y-127785714D01*
X69238095Y-127452380D02*
X69238095Y-128309523D01*
X69285714Y-128404761D01*
X69380952Y-128452380D01*
X69476190Y-128452380D01*
X69809523Y-128452380D02*
X69809523Y-127452380D01*
X70238095Y-128452380D02*
X70238095Y-127928571D01*
X70190476Y-127833333D01*
X70095238Y-127785714D01*
X69952380Y-127785714D01*
X69857142Y-127833333D01*
X69809523Y-127880952D01*
X71142857Y-127785714D02*
X71142857Y-128452380D01*
X70714285Y-127785714D02*
X70714285Y-128309523D01*
X70761904Y-128404761D01*
X70857142Y-128452380D01*
X71000000Y-128452380D01*
X71095238Y-128404761D01*
X71142857Y-128357142D01*
X71619047Y-128452380D02*
X71619047Y-127452380D01*
X71619047Y-127833333D02*
X71714285Y-127785714D01*
X71904761Y-127785714D01*
X72000000Y-127833333D01*
X72047619Y-127880952D01*
X72095238Y-127976190D01*
X72095238Y-128261904D01*
X72047619Y-128357142D01*
X72000000Y-128404761D01*
X71904761Y-128452380D01*
X71714285Y-128452380D01*
X71619047Y-128404761D01*
X72523809Y-128357142D02*
X72571428Y-128404761D01*
X72523809Y-128452380D01*
X72476190Y-128404761D01*
X72523809Y-128357142D01*
X72523809Y-128452380D01*
X73428571Y-128404761D02*
X73333333Y-128452380D01*
X73142857Y-128452380D01*
X73047619Y-128404761D01*
X73000000Y-128357142D01*
X72952380Y-128261904D01*
X72952380Y-127976190D01*
X73000000Y-127880952D01*
X73047619Y-127833333D01*
X73142857Y-127785714D01*
X73333333Y-127785714D01*
X73428571Y-127833333D01*
X74000000Y-128452380D02*
X73904761Y-128404761D01*
X73857142Y-128357142D01*
X73809523Y-128261904D01*
X73809523Y-127976190D01*
X73857142Y-127880952D01*
X73904761Y-127833333D01*
X74000000Y-127785714D01*
X74142857Y-127785714D01*
X74238095Y-127833333D01*
X74285714Y-127880952D01*
X74333333Y-127976190D01*
X74333333Y-128261904D01*
X74285714Y-128357142D01*
X74238095Y-128404761D01*
X74142857Y-128452380D01*
X74000000Y-128452380D01*
X74761904Y-128452380D02*
X74761904Y-127785714D01*
X74761904Y-127880952D02*
X74809523Y-127833333D01*
X74904761Y-127785714D01*
X75047619Y-127785714D01*
X75142857Y-127833333D01*
X75190476Y-127928571D01*
X75190476Y-128452380D01*
X75190476Y-127928571D02*
X75238095Y-127833333D01*
X75333333Y-127785714D01*
X75476190Y-127785714D01*
X75571428Y-127833333D01*
X75619047Y-127928571D01*
X75619047Y-128452380D01*
X76809523Y-127404761D02*
X75952380Y-128690476D01*
X77142857Y-127452380D02*
X77142857Y-128261904D01*
X77190476Y-128357142D01*
X77238095Y-128404761D01*
X77333333Y-128452380D01*
X77523809Y-128452380D01*
X77619047Y-128404761D01*
X77666666Y-128357142D01*
X77714285Y-128261904D01*
X77714285Y-127452380D01*
X78142857Y-128166666D02*
X78619047Y-128166666D01*
X78047619Y-128452380D02*
X78380952Y-127452380D01*
X78714285Y-128452380D01*
X79619047Y-128452380D02*
X79285714Y-127976190D01*
X79047619Y-128452380D02*
X79047619Y-127452380D01*
X79428571Y-127452380D01*
X79523809Y-127500000D01*
X79571428Y-127547619D01*
X79619047Y-127642857D01*
X79619047Y-127785714D01*
X79571428Y-127880952D01*
X79523809Y-127928571D01*
X79428571Y-127976190D01*
X79047619Y-127976190D01*
X79904761Y-127452380D02*
X80476190Y-127452380D01*
X80190476Y-128452380D02*
X80190476Y-127452380D01*
X80809523Y-128452380D02*
X80809523Y-127785714D01*
X80809523Y-127880952D02*
X80857142Y-127833333D01*
X80952380Y-127785714D01*
X81095238Y-127785714D01*
X81190476Y-127833333D01*
X81238095Y-127928571D01*
X81238095Y-128452380D01*
X81238095Y-127928571D02*
X81285714Y-127833333D01*
X81380952Y-127785714D01*
X81523809Y-127785714D01*
X81619047Y-127833333D01*
X81666666Y-127928571D01*
X81666666Y-128452380D01*
X82571428Y-128452380D02*
X82571428Y-127928571D01*
X82523809Y-127833333D01*
X82428571Y-127785714D01*
X82238095Y-127785714D01*
X82142857Y-127833333D01*
X82571428Y-128404761D02*
X82476190Y-128452380D01*
X82238095Y-128452380D01*
X82142857Y-128404761D01*
X82095238Y-128309523D01*
X82095238Y-128214285D01*
X82142857Y-128119047D01*
X82238095Y-128071428D01*
X82476190Y-128071428D01*
X82571428Y-128023809D01*
X83047619Y-127785714D02*
X83047619Y-128452380D01*
X83047619Y-127880952D02*
X83095238Y-127833333D01*
X83190476Y-127785714D01*
X83333333Y-127785714D01*
X83428571Y-127833333D01*
X83476190Y-127928571D01*
X83476190Y-128452380D01*
X84666666Y-127404761D02*
X83809523Y-128690476D01*
X85333333Y-127928571D02*
X85476190Y-127976190D01*
X85523809Y-128023809D01*
X85571428Y-128119047D01*
X85571428Y-128261904D01*
X85523809Y-128357142D01*
X85476190Y-128404761D01*
X85380952Y-128452380D01*
X85000000Y-128452380D01*
X85000000Y-127452380D01*
X85333333Y-127452380D01*
X85428571Y-127500000D01*
X85476190Y-127547619D01*
X85523809Y-127642857D01*
X85523809Y-127738095D01*
X85476190Y-127833333D01*
X85428571Y-127880952D01*
X85333333Y-127928571D01*
X85000000Y-127928571D01*
X86000000Y-128452380D02*
X86000000Y-127785714D01*
X86000000Y-127452380D02*
X85952380Y-127500000D01*
X86000000Y-127547619D01*
X86047619Y-127500000D01*
X86000000Y-127452380D01*
X86000000Y-127547619D01*
X86476190Y-127785714D02*
X86476190Y-128452380D01*
X86476190Y-127880952D02*
X86523809Y-127833333D01*
X86619047Y-127785714D01*
X86761904Y-127785714D01*
X86857142Y-127833333D01*
X86904761Y-127928571D01*
X86904761Y-128452380D01*
X87333333Y-128166666D02*
X87809523Y-128166666D01*
X87238095Y-128452380D02*
X87571428Y-127452380D01*
X87904761Y-128452380D01*
X88666666Y-128452380D02*
X88666666Y-127452380D01*
X88666666Y-128404761D02*
X88571428Y-128452380D01*
X88380952Y-128452380D01*
X88285714Y-128404761D01*
X88238095Y-128357142D01*
X88190476Y-128261904D01*
X88190476Y-127976190D01*
X88238095Y-127880952D01*
X88285714Y-127833333D01*
X88380952Y-127785714D01*
X88571428Y-127785714D01*
X88666666Y-127833333D01*
X89571428Y-128452380D02*
X89571428Y-127452380D01*
X89571428Y-128404761D02*
X89476190Y-128452380D01*
X89285714Y-128452380D01*
X89190476Y-128404761D01*
X89142857Y-128357142D01*
X89095238Y-128261904D01*
X89095238Y-127976190D01*
X89142857Y-127880952D01*
X89190476Y-127833333D01*
X89285714Y-127785714D01*
X89476190Y-127785714D01*
X89571428Y-127833333D01*
X90380952Y-127928571D02*
X90523809Y-127976190D01*
X90571428Y-128023809D01*
X90619047Y-128119047D01*
X90619047Y-128261904D01*
X90571428Y-128357142D01*
X90523809Y-128404761D01*
X90428571Y-128452380D01*
X90047619Y-128452380D01*
X90047619Y-127452380D01*
X90380952Y-127452380D01*
X90476190Y-127500000D01*
X90523809Y-127547619D01*
X90571428Y-127642857D01*
X90571428Y-127738095D01*
X90523809Y-127833333D01*
X90476190Y-127880952D01*
X90380952Y-127928571D01*
X90047619Y-127928571D01*
X91047619Y-128452380D02*
X91047619Y-127785714D01*
X91047619Y-127976190D02*
X91095238Y-127880952D01*
X91142857Y-127833333D01*
X91238095Y-127785714D01*
X91333333Y-127785714D01*
X92047619Y-128404761D02*
X91952380Y-128452380D01*
X91761904Y-128452380D01*
X91666666Y-128404761D01*
X91619047Y-128309523D01*
X91619047Y-127928571D01*
X91666666Y-127833333D01*
X91761904Y-127785714D01*
X91952380Y-127785714D01*
X92047619Y-127833333D01*
X92095238Y-127928571D01*
X92095238Y-128023809D01*
X91619047Y-128119047D01*
X92952380Y-128452380D02*
X92952380Y-127928571D01*
X92904761Y-127833333D01*
X92809523Y-127785714D01*
X92619047Y-127785714D01*
X92523809Y-127833333D01*
X92952380Y-128404761D02*
X92857142Y-128452380D01*
X92619047Y-128452380D01*
X92523809Y-128404761D01*
X92476190Y-128309523D01*
X92476190Y-128214285D01*
X92523809Y-128119047D01*
X92619047Y-128071428D01*
X92857142Y-128071428D01*
X92952380Y-128023809D01*
X93428571Y-128452380D02*
X93428571Y-127452380D01*
X93523809Y-128071428D02*
X93809523Y-128452380D01*
X93809523Y-127785714D02*
X93428571Y-128166666D01*
X94380952Y-128452380D02*
X94285714Y-128404761D01*
X94238095Y-128357142D01*
X94190476Y-128261904D01*
X94190476Y-127976190D01*
X94238095Y-127880952D01*
X94285714Y-127833333D01*
X94380952Y-127785714D01*
X94523809Y-127785714D01*
X94619047Y-127833333D01*
X94666666Y-127880952D01*
X94714285Y-127976190D01*
X94714285Y-128261904D01*
X94666666Y-128357142D01*
X94619047Y-128404761D01*
X94523809Y-128452380D01*
X94380952Y-128452380D01*
X95571428Y-127785714D02*
X95571428Y-128452380D01*
X95142857Y-127785714D02*
X95142857Y-128309523D01*
X95190476Y-128404761D01*
X95285714Y-128452380D01*
X95428571Y-128452380D01*
X95523809Y-128404761D01*
X95571428Y-128357142D01*
X95904761Y-127785714D02*
X96285714Y-127785714D01*
X96047619Y-127452380D02*
X96047619Y-128309523D01*
X96095238Y-128404761D01*
X96190476Y-128452380D01*
X96285714Y-128452380D01*
X96952380Y-127928571D02*
X97095238Y-127976190D01*
X97142857Y-128023809D01*
X97190476Y-128119047D01*
X97190476Y-128261904D01*
X97142857Y-128357142D01*
X97095238Y-128404761D01*
X97000000Y-128452380D01*
X96619047Y-128452380D01*
X96619047Y-127452380D01*
X96952380Y-127452380D01*
X97047619Y-127500000D01*
X97095238Y-127547619D01*
X97142857Y-127642857D01*
X97142857Y-127738095D01*
X97095238Y-127833333D01*
X97047619Y-127880952D01*
X96952380Y-127928571D01*
X96619047Y-127928571D01*
X97761904Y-128452380D02*
X97666666Y-128404761D01*
X97619047Y-128357142D01*
X97571428Y-128261904D01*
X97571428Y-127976190D01*
X97619047Y-127880952D01*
X97666666Y-127833333D01*
X97761904Y-127785714D01*
X97904761Y-127785714D01*
X98000000Y-127833333D01*
X98047619Y-127880952D01*
X98095238Y-127976190D01*
X98095238Y-128261904D01*
X98047619Y-128357142D01*
X98000000Y-128404761D01*
X97904761Y-128452380D01*
X97761904Y-128452380D01*
X98952380Y-128452380D02*
X98952380Y-127928571D01*
X98904761Y-127833333D01*
X98809523Y-127785714D01*
X98619047Y-127785714D01*
X98523809Y-127833333D01*
X98952380Y-128404761D02*
X98857142Y-128452380D01*
X98619047Y-128452380D01*
X98523809Y-128404761D01*
X98476190Y-128309523D01*
X98476190Y-128214285D01*
X98523809Y-128119047D01*
X98619047Y-128071428D01*
X98857142Y-128071428D01*
X98952380Y-128023809D01*
X99428571Y-128452380D02*
X99428571Y-127785714D01*
X99428571Y-127976190D02*
X99476190Y-127880952D01*
X99523809Y-127833333D01*
X99619047Y-127785714D01*
X99714285Y-127785714D01*
X100476190Y-128452380D02*
X100476190Y-127452380D01*
X100476190Y-128404761D02*
X100380952Y-128452380D01*
X100190476Y-128452380D01*
X100095238Y-128404761D01*
X100047619Y-128357142D01*
X100000000Y-128261904D01*
X100000000Y-127976190D01*
X100047619Y-127880952D01*
X100095238Y-127833333D01*
X100190476Y-127785714D01*
X100380952Y-127785714D01*
X100476190Y-127833333D01*
X61964285Y-125857142D02*
X61916666Y-125904761D01*
X61773809Y-125952380D01*
X61678571Y-125952380D01*
X61535714Y-125904761D01*
X61440476Y-125809523D01*
X61392857Y-125714285D01*
X61345238Y-125523809D01*
X61345238Y-125380952D01*
X61392857Y-125190476D01*
X61440476Y-125095238D01*
X61535714Y-125000000D01*
X61678571Y-124952380D01*
X61773809Y-124952380D01*
X61916666Y-125000000D01*
X61964285Y-125047619D01*
X62535714Y-125952380D02*
X62440476Y-125904761D01*
X62392857Y-125857142D01*
X62345238Y-125761904D01*
X62345238Y-125476190D01*
X62392857Y-125380952D01*
X62440476Y-125333333D01*
X62535714Y-125285714D01*
X62678571Y-125285714D01*
X62773809Y-125333333D01*
X62821428Y-125380952D01*
X62869047Y-125476190D01*
X62869047Y-125761904D01*
X62821428Y-125857142D01*
X62773809Y-125904761D01*
X62678571Y-125952380D01*
X62535714Y-125952380D01*
X63297619Y-125285714D02*
X63297619Y-126285714D01*
X63297619Y-125333333D02*
X63392857Y-125285714D01*
X63583333Y-125285714D01*
X63678571Y-125333333D01*
X63726190Y-125380952D01*
X63773809Y-125476190D01*
X63773809Y-125761904D01*
X63726190Y-125857142D01*
X63678571Y-125904761D01*
X63583333Y-125952380D01*
X63392857Y-125952380D01*
X63297619Y-125904761D01*
X64107142Y-125285714D02*
X64345238Y-125952380D01*
X64583333Y-125285714D02*
X64345238Y-125952380D01*
X64250000Y-126190476D01*
X64202380Y-126238095D01*
X64107142Y-126285714D01*
X64964285Y-125952380D02*
X64964285Y-125285714D01*
X64964285Y-125476190D02*
X65011904Y-125380952D01*
X65059523Y-125333333D01*
X65154761Y-125285714D01*
X65250000Y-125285714D01*
X65583333Y-125952380D02*
X65583333Y-125285714D01*
X65583333Y-124952380D02*
X65535714Y-125000000D01*
X65583333Y-125047619D01*
X65630952Y-125000000D01*
X65583333Y-124952380D01*
X65583333Y-125047619D01*
X66488095Y-125285714D02*
X66488095Y-126095238D01*
X66440476Y-126190476D01*
X66392857Y-126238095D01*
X66297619Y-126285714D01*
X66154761Y-126285714D01*
X66059523Y-126238095D01*
X66488095Y-125904761D02*
X66392857Y-125952380D01*
X66202380Y-125952380D01*
X66107142Y-125904761D01*
X66059523Y-125857142D01*
X66011904Y-125761904D01*
X66011904Y-125476190D01*
X66059523Y-125380952D01*
X66107142Y-125333333D01*
X66202380Y-125285714D01*
X66392857Y-125285714D01*
X66488095Y-125333333D01*
X66964285Y-125952380D02*
X66964285Y-124952380D01*
X67392857Y-125952380D02*
X67392857Y-125428571D01*
X67345238Y-125333333D01*
X67250000Y-125285714D01*
X67107142Y-125285714D01*
X67011904Y-125333333D01*
X66964285Y-125380952D01*
X67726190Y-125285714D02*
X68107142Y-125285714D01*
X67869047Y-124952380D02*
X67869047Y-125809523D01*
X67916666Y-125904761D01*
X68011904Y-125952380D01*
X68107142Y-125952380D01*
X69488095Y-126333333D02*
X69440476Y-126285714D01*
X69345238Y-126142857D01*
X69297619Y-126047619D01*
X69250000Y-125904761D01*
X69202380Y-125666666D01*
X69202380Y-125476190D01*
X69250000Y-125238095D01*
X69297619Y-125095238D01*
X69345238Y-125000000D01*
X69440476Y-124857142D01*
X69488095Y-124809523D01*
X70440476Y-125857142D02*
X70392857Y-125904761D01*
X70250000Y-125952380D01*
X70154761Y-125952380D01*
X70011904Y-125904761D01*
X69916666Y-125809523D01*
X69869047Y-125714285D01*
X69821428Y-125523809D01*
X69821428Y-125380952D01*
X69869047Y-125190476D01*
X69916666Y-125095238D01*
X70011904Y-125000000D01*
X70154761Y-124952380D01*
X70250000Y-124952380D01*
X70392857Y-125000000D01*
X70440476Y-125047619D01*
X70773809Y-126333333D02*
X70821428Y-126285714D01*
X70916666Y-126142857D01*
X70964285Y-126047619D01*
X71011904Y-125904761D01*
X71059523Y-125666666D01*
X71059523Y-125476190D01*
X71011904Y-125238095D01*
X70964285Y-125095238D01*
X70916666Y-125000000D01*
X70821428Y-124857142D01*
X70773809Y-124809523D01*
X72821428Y-125000000D02*
X72726190Y-124952380D01*
X72583333Y-124952380D01*
X72440476Y-125000000D01*
X72345238Y-125095238D01*
X72297619Y-125190476D01*
X72250000Y-125380952D01*
X72250000Y-125523809D01*
X72297619Y-125714285D01*
X72345238Y-125809523D01*
X72440476Y-125904761D01*
X72583333Y-125952380D01*
X72678571Y-125952380D01*
X72821428Y-125904761D01*
X72869047Y-125857142D01*
X72869047Y-125523809D01*
X72678571Y-125523809D01*
X73726190Y-125285714D02*
X73726190Y-125952380D01*
X73297619Y-125285714D02*
X73297619Y-125809523D01*
X73345238Y-125904761D01*
X73440476Y-125952380D01*
X73583333Y-125952380D01*
X73678571Y-125904761D01*
X73726190Y-125857142D01*
X74154761Y-125904761D02*
X74250000Y-125952380D01*
X74440476Y-125952380D01*
X74535714Y-125904761D01*
X74583333Y-125809523D01*
X74583333Y-125761904D01*
X74535714Y-125666666D01*
X74440476Y-125619047D01*
X74297619Y-125619047D01*
X74202380Y-125571428D01*
X74154761Y-125476190D01*
X74154761Y-125428571D01*
X74202380Y-125333333D01*
X74297619Y-125285714D01*
X74440476Y-125285714D01*
X74535714Y-125333333D01*
X75392857Y-125904761D02*
X75297619Y-125952380D01*
X75107142Y-125952380D01*
X75011904Y-125904761D01*
X74964285Y-125809523D01*
X74964285Y-125428571D01*
X75011904Y-125333333D01*
X75107142Y-125285714D01*
X75297619Y-125285714D01*
X75392857Y-125333333D01*
X75440476Y-125428571D01*
X75440476Y-125523809D01*
X74964285Y-125619047D01*
X75773809Y-125285714D02*
X76011904Y-125952380D01*
X76250000Y-125285714D01*
X77345238Y-125666666D02*
X77821428Y-125666666D01*
X77250000Y-125952380D02*
X77583333Y-124952380D01*
X77916666Y-125952380D01*
X78250000Y-125285714D02*
X78250000Y-125952380D01*
X78250000Y-125380952D02*
X78297619Y-125333333D01*
X78392857Y-125285714D01*
X78535714Y-125285714D01*
X78630952Y-125333333D01*
X78678571Y-125428571D01*
X78678571Y-125952380D01*
X79011904Y-125285714D02*
X79392857Y-125285714D01*
X79154761Y-124952380D02*
X79154761Y-125809523D01*
X79202380Y-125904761D01*
X79297619Y-125952380D01*
X79392857Y-125952380D01*
X79869047Y-125952380D02*
X79773809Y-125904761D01*
X79726190Y-125857142D01*
X79678571Y-125761904D01*
X79678571Y-125476190D01*
X79726190Y-125380952D01*
X79773809Y-125333333D01*
X79869047Y-125285714D01*
X80011904Y-125285714D01*
X80107142Y-125333333D01*
X80154761Y-125380952D01*
X80202380Y-125476190D01*
X80202380Y-125761904D01*
X80154761Y-125857142D01*
X80107142Y-125904761D01*
X80011904Y-125952380D01*
X79869047Y-125952380D01*
X80630952Y-125285714D02*
X80630952Y-125952380D01*
X80630952Y-125380952D02*
X80678571Y-125333333D01*
X80773809Y-125285714D01*
X80916666Y-125285714D01*
X81011904Y-125333333D01*
X81059523Y-125428571D01*
X81059523Y-125952380D01*
X81583333Y-125904761D02*
X81583333Y-125952380D01*
X81535714Y-126047619D01*
X81488095Y-126095238D01*
X82726190Y-125047619D02*
X82773809Y-125000000D01*
X82869047Y-124952380D01*
X83107142Y-124952380D01*
X83202380Y-125000000D01*
X83249999Y-125047619D01*
X83297619Y-125142857D01*
X83297619Y-125238095D01*
X83249999Y-125380952D01*
X82678571Y-125952380D01*
X83297619Y-125952380D01*
X83916666Y-124952380D02*
X84011904Y-124952380D01*
X84107142Y-125000000D01*
X84154761Y-125047619D01*
X84202380Y-125142857D01*
X84249999Y-125333333D01*
X84249999Y-125571428D01*
X84202380Y-125761904D01*
X84154761Y-125857142D01*
X84107142Y-125904761D01*
X84011904Y-125952380D01*
X83916666Y-125952380D01*
X83821428Y-125904761D01*
X83773809Y-125857142D01*
X83726190Y-125761904D01*
X83678571Y-125571428D01*
X83678571Y-125333333D01*
X83726190Y-125142857D01*
X83773809Y-125047619D01*
X83821428Y-125000000D01*
X83916666Y-124952380D01*
X84630952Y-125047619D02*
X84678571Y-125000000D01*
X84773809Y-124952380D01*
X85011904Y-124952380D01*
X85107142Y-125000000D01*
X85154761Y-125047619D01*
X85202380Y-125142857D01*
X85202380Y-125238095D01*
X85154761Y-125380952D01*
X84583333Y-125952380D01*
X85202380Y-125952380D01*
X86154761Y-125952380D02*
X85583333Y-125952380D01*
X85869047Y-125952380D02*
X85869047Y-124952380D01*
X85773809Y-125095238D01*
X85678571Y-125190476D01*
X85583333Y-125238095D01*
D11*
X62059523Y-122107142D02*
X62345238Y-122202380D01*
X62440476Y-122297619D01*
X62535714Y-122488095D01*
X62535714Y-122773809D01*
X62440476Y-122964285D01*
X62345238Y-123059523D01*
X62154761Y-123154761D01*
X61392857Y-123154761D01*
X61392857Y-121154761D01*
X62059523Y-121154761D01*
X62249999Y-121250000D01*
X62345238Y-121345238D01*
X62440476Y-121535714D01*
X62440476Y-121726190D01*
X62345238Y-121916666D01*
X62249999Y-122011904D01*
X62059523Y-122107142D01*
X61392857Y-122107142D01*
X63392857Y-123154761D02*
X63392857Y-121821428D01*
X63392857Y-121154761D02*
X63297619Y-121250000D01*
X63392857Y-121345238D01*
X63488095Y-121250000D01*
X63392857Y-121154761D01*
X63392857Y-121345238D01*
X64345238Y-121821428D02*
X64345238Y-123154761D01*
X64345238Y-122011904D02*
X64440476Y-121916666D01*
X64630952Y-121821428D01*
X64916666Y-121821428D01*
X65107142Y-121916666D01*
X65202380Y-122107142D01*
X65202380Y-123154761D01*
X67011904Y-123154761D02*
X67011904Y-122107142D01*
X66916666Y-121916666D01*
X66726190Y-121821428D01*
X66345238Y-121821428D01*
X66154761Y-121916666D01*
X67011904Y-123059523D02*
X66821428Y-123154761D01*
X66345238Y-123154761D01*
X66154761Y-123059523D01*
X66059523Y-122869047D01*
X66059523Y-122678571D01*
X66154761Y-122488095D01*
X66345238Y-122392857D01*
X66821428Y-122392857D01*
X67011904Y-122297619D01*
X67964285Y-123154761D02*
X67964285Y-121821428D01*
X67964285Y-122202380D02*
X68059523Y-122011904D01*
X68154761Y-121916666D01*
X68345238Y-121821428D01*
X68535714Y-121821428D01*
X69011904Y-121821428D02*
X69488095Y-123154761D01*
X69964285Y-121821428D02*
X69488095Y-123154761D01*
X69297619Y-123630952D01*
X69202380Y-123726190D01*
X69011904Y-123821428D01*
X73107142Y-123154761D02*
X73107142Y-122107142D01*
X73011904Y-121916666D01*
X72821428Y-121821428D01*
X72440476Y-121821428D01*
X72249999Y-121916666D01*
X73107142Y-123059523D02*
X72916666Y-123154761D01*
X72440476Y-123154761D01*
X72249999Y-123059523D01*
X72154761Y-122869047D01*
X72154761Y-122678571D01*
X72249999Y-122488095D01*
X72440476Y-122392857D01*
X72916666Y-122392857D01*
X73107142Y-122297619D01*
X74916666Y-123154761D02*
X74916666Y-121154761D01*
X74916666Y-123059523D02*
X74726190Y-123154761D01*
X74345238Y-123154761D01*
X74154761Y-123059523D01*
X74059523Y-122964285D01*
X73964285Y-122773809D01*
X73964285Y-122202380D01*
X74059523Y-122011904D01*
X74154761Y-121916666D01*
X74345238Y-121821428D01*
X74726190Y-121821428D01*
X74916666Y-121916666D01*
X76726190Y-123154761D02*
X76726190Y-121154761D01*
X76726190Y-123059523D02*
X76535714Y-123154761D01*
X76154761Y-123154761D01*
X75964285Y-123059523D01*
X75869047Y-122964285D01*
X75773809Y-122773809D01*
X75773809Y-122202380D01*
X75869047Y-122011904D01*
X75964285Y-121916666D01*
X76154761Y-121821428D01*
X76535714Y-121821428D01*
X76726190Y-121916666D01*
X78440476Y-123059523D02*
X78249999Y-123154761D01*
X77869047Y-123154761D01*
X77678571Y-123059523D01*
X77583333Y-122869047D01*
X77583333Y-122107142D01*
X77678571Y-121916666D01*
X77869047Y-121821428D01*
X78249999Y-121821428D01*
X78440476Y-121916666D01*
X78535714Y-122107142D01*
X78535714Y-122297619D01*
X77583333Y-122488095D01*
X79392857Y-123154761D02*
X79392857Y-121821428D01*
X79392857Y-122202380D02*
X79488095Y-122011904D01*
X79583333Y-121916666D01*
X79773809Y-121821428D01*
X79964285Y-121821428D01*
X82154761Y-123154761D02*
X82154761Y-121154761D01*
X82154761Y-121916666D02*
X82345238Y-121821428D01*
X82726190Y-121821428D01*
X82916666Y-121916666D01*
X83011904Y-122011904D01*
X83107142Y-122202380D01*
X83107142Y-122773809D01*
X83011904Y-122964285D01*
X82916666Y-123059523D01*
X82726190Y-123154761D01*
X82345238Y-123154761D01*
X82154761Y-123059523D01*
X83964285Y-123154761D02*
X83964285Y-121821428D01*
X83964285Y-122202380D02*
X84059523Y-122011904D01*
X84154761Y-121916666D01*
X84345238Y-121821428D01*
X84535714Y-121821428D01*
X85964285Y-123059523D02*
X85773809Y-123154761D01*
X85392857Y-123154761D01*
X85202380Y-123059523D01*
X85107142Y-122869047D01*
X85107142Y-122107142D01*
X85202380Y-121916666D01*
X85392857Y-121821428D01*
X85773809Y-121821428D01*
X85964285Y-121916666D01*
X86059523Y-122107142D01*
X86059523Y-122297619D01*
X85107142Y-122488095D01*
X87773809Y-123154761D02*
X87773809Y-122107142D01*
X87678571Y-121916666D01*
X87488095Y-121821428D01*
X87107142Y-121821428D01*
X86916666Y-121916666D01*
X87773809Y-123059523D02*
X87583333Y-123154761D01*
X87107142Y-123154761D01*
X86916666Y-123059523D01*
X86821428Y-122869047D01*
X86821428Y-122678571D01*
X86916666Y-122488095D01*
X87107142Y-122392857D01*
X87583333Y-122392857D01*
X87773809Y-122297619D01*
X88726190Y-123154761D02*
X88726190Y-121154761D01*
X88916666Y-122392857D02*
X89488095Y-123154761D01*
X89488095Y-121821428D02*
X88726190Y-122583333D01*
X90630952Y-123154761D02*
X90440476Y-123059523D01*
X90345238Y-122964285D01*
X90249999Y-122773809D01*
X90249999Y-122202380D01*
X90345238Y-122011904D01*
X90440476Y-121916666D01*
X90630952Y-121821428D01*
X90916666Y-121821428D01*
X91107142Y-121916666D01*
X91202380Y-122011904D01*
X91297619Y-122202380D01*
X91297619Y-122773809D01*
X91202380Y-122964285D01*
X91107142Y-123059523D01*
X90916666Y-123154761D01*
X90630952Y-123154761D01*
X93011904Y-121821428D02*
X93011904Y-123154761D01*
X92154761Y-121821428D02*
X92154761Y-122869047D01*
X92249999Y-123059523D01*
X92440476Y-123154761D01*
X92726190Y-123154761D01*
X92916666Y-123059523D01*
X93011904Y-122964285D01*
X93678571Y-121821428D02*
X94440476Y-121821428D01*
X93964285Y-121154761D02*
X93964285Y-122869047D01*
X94059523Y-123059523D01*
X94249999Y-123154761D01*
X94440476Y-123154761D01*
X96630952Y-123154761D02*
X96630952Y-121154761D01*
X96630952Y-121916666D02*
X96821428Y-121821428D01*
X97202380Y-121821428D01*
X97392857Y-121916666D01*
X97488095Y-122011904D01*
X97583333Y-122202380D01*
X97583333Y-122773809D01*
X97488095Y-122964285D01*
X97392857Y-123059523D01*
X97202380Y-123154761D01*
X96821428Y-123154761D01*
X96630952Y-123059523D01*
X98726190Y-123154761D02*
X98535714Y-123059523D01*
X98440476Y-122964285D01*
X98345238Y-122773809D01*
X98345238Y-122202380D01*
X98440476Y-122011904D01*
X98535714Y-121916666D01*
X98726190Y-121821428D01*
X99011904Y-121821428D01*
X99202380Y-121916666D01*
X99297619Y-122011904D01*
X99392857Y-122202380D01*
X99392857Y-122773809D01*
X99297619Y-122964285D01*
X99202380Y-123059523D01*
X99011904Y-123154761D01*
X98726190Y-123154761D01*
X101107142Y-123154761D02*
X101107142Y-122107142D01*
X101011904Y-121916666D01*
X100821428Y-121821428D01*
X100440476Y-121821428D01*
X100249999Y-121916666D01*
X101107142Y-123059523D02*
X100916666Y-123154761D01*
X100440476Y-123154761D01*
X100249999Y-123059523D01*
X100154761Y-122869047D01*
X100154761Y-122678571D01*
X100249999Y-122488095D01*
X100440476Y-122392857D01*
X100916666Y-122392857D01*
X101107142Y-122297619D01*
X102059523Y-123154761D02*
X102059523Y-121821428D01*
X102059523Y-122202380D02*
X102154761Y-122011904D01*
X102249999Y-121916666D01*
X102440476Y-121821428D01*
X102630952Y-121821428D01*
X104154761Y-123154761D02*
X104154761Y-121154761D01*
X104154761Y-123059523D02*
X103964285Y-123154761D01*
X103583333Y-123154761D01*
X103392857Y-123059523D01*
X103297619Y-122964285D01*
X103202380Y-122773809D01*
X103202380Y-122202380D01*
X103297619Y-122011904D01*
X103392857Y-121916666D01*
X103583333Y-121821428D01*
X103964285Y-121821428D01*
X104154761Y-121916666D01*
X106440476Y-121821428D02*
X106916666Y-123154761D01*
X107392857Y-121821428D01*
X108059523Y-121345238D02*
X108154761Y-121250000D01*
X108345238Y-121154761D01*
X108821428Y-121154761D01*
X109011904Y-121250000D01*
X109107142Y-121345238D01*
X109202380Y-121535714D01*
X109202380Y-121726190D01*
X109107142Y-122011904D01*
X107964285Y-123154761D01*
X109202380Y-123154761D01*
D10*
X230333333Y-164857142D02*
X230285714Y-164904761D01*
X230142857Y-164952380D01*
X230047619Y-164952380D01*
X229904761Y-164904761D01*
X229809523Y-164809523D01*
X229761904Y-164714285D01*
X229714285Y-164523809D01*
X229714285Y-164380952D01*
X229761904Y-164190476D01*
X229809523Y-164095238D01*
X229904761Y-164000000D01*
X230047619Y-163952380D01*
X230142857Y-163952380D01*
X230285714Y-164000000D01*
X230333333Y-164047619D01*
X230809523Y-164952380D02*
X231000000Y-164952380D01*
X231095238Y-164904761D01*
X231142857Y-164857142D01*
X231238095Y-164714285D01*
X231285714Y-164523809D01*
X231285714Y-164142857D01*
X231238095Y-164047619D01*
X231190476Y-164000000D01*
X231095238Y-163952380D01*
X230904761Y-163952380D01*
X230809523Y-164000000D01*
X230761904Y-164047619D01*
X230714285Y-164142857D01*
X230714285Y-164380952D01*
X230761904Y-164476190D01*
X230809523Y-164523809D01*
X230904761Y-164571428D01*
X231095238Y-164571428D01*
X231190476Y-164523809D01*
X231238095Y-164476190D01*
X231285714Y-164380952D01*
X224083333Y-164857142D02*
X224035714Y-164904761D01*
X223892857Y-164952380D01*
X223797619Y-164952380D01*
X223654761Y-164904761D01*
X223559523Y-164809523D01*
X223511904Y-164714285D01*
X223464285Y-164523809D01*
X223464285Y-164380952D01*
X223511904Y-164190476D01*
X223559523Y-164095238D01*
X223654761Y-164000000D01*
X223797619Y-163952380D01*
X223892857Y-163952380D01*
X224035714Y-164000000D01*
X224083333Y-164047619D01*
X224654761Y-164380952D02*
X224559523Y-164333333D01*
X224511904Y-164285714D01*
X224464285Y-164190476D01*
X224464285Y-164142857D01*
X224511904Y-164047619D01*
X224559523Y-164000000D01*
X224654761Y-163952380D01*
X224845238Y-163952380D01*
X224940476Y-164000000D01*
X224988095Y-164047619D01*
X225035714Y-164142857D01*
X225035714Y-164190476D01*
X224988095Y-164285714D01*
X224940476Y-164333333D01*
X224845238Y-164380952D01*
X224654761Y-164380952D01*
X224559523Y-164428571D01*
X224511904Y-164476190D01*
X224464285Y-164571428D01*
X224464285Y-164761904D01*
X224511904Y-164857142D01*
X224559523Y-164904761D01*
X224654761Y-164952380D01*
X224845238Y-164952380D01*
X224940476Y-164904761D01*
X224988095Y-164857142D01*
X225035714Y-164761904D01*
X225035714Y-164571428D01*
X224988095Y-164476190D01*
X224940476Y-164428571D01*
X224845238Y-164380952D01*
X216833333Y-164857142D02*
X216785714Y-164904761D01*
X216642857Y-164952380D01*
X216547619Y-164952380D01*
X216404761Y-164904761D01*
X216309523Y-164809523D01*
X216261904Y-164714285D01*
X216214285Y-164523809D01*
X216214285Y-164380952D01*
X216261904Y-164190476D01*
X216309523Y-164095238D01*
X216404761Y-164000000D01*
X216547619Y-163952380D01*
X216642857Y-163952380D01*
X216785714Y-164000000D01*
X216833333Y-164047619D01*
X217166666Y-163952380D02*
X217833333Y-163952380D01*
X217404761Y-164952380D01*
X209583333Y-164857142D02*
X209535714Y-164904761D01*
X209392857Y-164952380D01*
X209297619Y-164952380D01*
X209154761Y-164904761D01*
X209059523Y-164809523D01*
X209011904Y-164714285D01*
X208964285Y-164523809D01*
X208964285Y-164380952D01*
X209011904Y-164190476D01*
X209059523Y-164095238D01*
X209154761Y-164000000D01*
X209297619Y-163952380D01*
X209392857Y-163952380D01*
X209535714Y-164000000D01*
X209583333Y-164047619D01*
X210440476Y-163952380D02*
X210250000Y-163952380D01*
X210154761Y-164000000D01*
X210107142Y-164047619D01*
X210011904Y-164190476D01*
X209964285Y-164380952D01*
X209964285Y-164761904D01*
X210011904Y-164857142D01*
X210059523Y-164904761D01*
X210154761Y-164952380D01*
X210345238Y-164952380D01*
X210440476Y-164904761D01*
X210488095Y-164857142D01*
X210535714Y-164761904D01*
X210535714Y-164523809D01*
X210488095Y-164428571D01*
X210440476Y-164380952D01*
X210345238Y-164333333D01*
X210154761Y-164333333D01*
X210059523Y-164380952D01*
X210011904Y-164428571D01*
X209964285Y-164523809D01*
X203083333Y-164857142D02*
X203035714Y-164904761D01*
X202892857Y-164952380D01*
X202797619Y-164952380D01*
X202654761Y-164904761D01*
X202559523Y-164809523D01*
X202511904Y-164714285D01*
X202464285Y-164523809D01*
X202464285Y-164380952D01*
X202511904Y-164190476D01*
X202559523Y-164095238D01*
X202654761Y-164000000D01*
X202797619Y-163952380D01*
X202892857Y-163952380D01*
X203035714Y-164000000D01*
X203083333Y-164047619D01*
X203988095Y-163952380D02*
X203511904Y-163952380D01*
X203464285Y-164428571D01*
X203511904Y-164380952D01*
X203607142Y-164333333D01*
X203845238Y-164333333D01*
X203940476Y-164380952D01*
X203988095Y-164428571D01*
X204035714Y-164523809D01*
X204035714Y-164761904D01*
X203988095Y-164857142D01*
X203940476Y-164904761D01*
X203845238Y-164952380D01*
X203607142Y-164952380D01*
X203511904Y-164904761D01*
X203464285Y-164857142D01*
X195833333Y-164857142D02*
X195785714Y-164904761D01*
X195642857Y-164952380D01*
X195547619Y-164952380D01*
X195404761Y-164904761D01*
X195309523Y-164809523D01*
X195261904Y-164714285D01*
X195214285Y-164523809D01*
X195214285Y-164380952D01*
X195261904Y-164190476D01*
X195309523Y-164095238D01*
X195404761Y-164000000D01*
X195547619Y-163952380D01*
X195642857Y-163952380D01*
X195785714Y-164000000D01*
X195833333Y-164047619D01*
X196690476Y-164285714D02*
X196690476Y-164952380D01*
X196452380Y-163904761D02*
X196214285Y-164619047D01*
X196833333Y-164619047D01*
X189583333Y-164857142D02*
X189535714Y-164904761D01*
X189392857Y-164952380D01*
X189297619Y-164952380D01*
X189154761Y-164904761D01*
X189059523Y-164809523D01*
X189011904Y-164714285D01*
X188964285Y-164523809D01*
X188964285Y-164380952D01*
X189011904Y-164190476D01*
X189059523Y-164095238D01*
X189154761Y-164000000D01*
X189297619Y-163952380D01*
X189392857Y-163952380D01*
X189535714Y-164000000D01*
X189583333Y-164047619D01*
X189916666Y-163952380D02*
X190535714Y-163952380D01*
X190202380Y-164333333D01*
X190345238Y-164333333D01*
X190440476Y-164380952D01*
X190488095Y-164428571D01*
X190535714Y-164523809D01*
X190535714Y-164761904D01*
X190488095Y-164857142D01*
X190440476Y-164904761D01*
X190345238Y-164952380D01*
X190059523Y-164952380D01*
X189964285Y-164904761D01*
X189916666Y-164857142D01*
X182333333Y-164607142D02*
X182285714Y-164654761D01*
X182142857Y-164702380D01*
X182047619Y-164702380D01*
X181904761Y-164654761D01*
X181809523Y-164559523D01*
X181761904Y-164464285D01*
X181714285Y-164273809D01*
X181714285Y-164130952D01*
X181761904Y-163940476D01*
X181809523Y-163845238D01*
X181904761Y-163750000D01*
X182047619Y-163702380D01*
X182142857Y-163702380D01*
X182285714Y-163750000D01*
X182333333Y-163797619D01*
X182714285Y-163797619D02*
X182761904Y-163750000D01*
X182857142Y-163702380D01*
X183095238Y-163702380D01*
X183190476Y-163750000D01*
X183238095Y-163797619D01*
X183285714Y-163892857D01*
X183285714Y-163988095D01*
X183238095Y-164130952D01*
X182666666Y-164702380D01*
X183285714Y-164702380D01*
X175583333Y-164607142D02*
X175535714Y-164654761D01*
X175392857Y-164702380D01*
X175297619Y-164702380D01*
X175154761Y-164654761D01*
X175059523Y-164559523D01*
X175011904Y-164464285D01*
X174964285Y-164273809D01*
X174964285Y-164130952D01*
X175011904Y-163940476D01*
X175059523Y-163845238D01*
X175154761Y-163750000D01*
X175297619Y-163702380D01*
X175392857Y-163702380D01*
X175535714Y-163750000D01*
X175583333Y-163797619D01*
X176535714Y-164702380D02*
X175964285Y-164702380D01*
X176250000Y-164702380D02*
X176250000Y-163702380D01*
X176154761Y-163845238D01*
X176059523Y-163940476D01*
X175964285Y-163988095D01*
X159095238Y-170678571D02*
X159238095Y-170726190D01*
X159285714Y-170773809D01*
X159333333Y-170869047D01*
X159333333Y-171011904D01*
X159285714Y-171107142D01*
X159238095Y-171154761D01*
X159142857Y-171202380D01*
X158761904Y-171202380D01*
X158761904Y-170202380D01*
X159095238Y-170202380D01*
X159190476Y-170250000D01*
X159238095Y-170297619D01*
X159285714Y-170392857D01*
X159285714Y-170488095D01*
X159238095Y-170583333D01*
X159190476Y-170630952D01*
X159095238Y-170678571D01*
X158761904Y-170678571D01*
X159904761Y-170630952D02*
X159809523Y-170583333D01*
X159761904Y-170535714D01*
X159714285Y-170440476D01*
X159714285Y-170392857D01*
X159761904Y-170297619D01*
X159809523Y-170250000D01*
X159904761Y-170202380D01*
X160095238Y-170202380D01*
X160190476Y-170250000D01*
X160238095Y-170297619D01*
X160285714Y-170392857D01*
X160285714Y-170440476D01*
X160238095Y-170535714D01*
X160190476Y-170583333D01*
X160095238Y-170630952D01*
X159904761Y-170630952D01*
X159809523Y-170678571D01*
X159761904Y-170726190D01*
X159714285Y-170821428D01*
X159714285Y-171011904D01*
X159761904Y-171107142D01*
X159809523Y-171154761D01*
X159904761Y-171202380D01*
X160095238Y-171202380D01*
X160190476Y-171154761D01*
X160238095Y-171107142D01*
X160285714Y-171011904D01*
X160285714Y-170821428D01*
X160238095Y-170726190D01*
X160190476Y-170678571D01*
X160095238Y-170630952D01*
X153095238Y-170678571D02*
X153238095Y-170726190D01*
X153285714Y-170773809D01*
X153333333Y-170869047D01*
X153333333Y-171011904D01*
X153285714Y-171107142D01*
X153238095Y-171154761D01*
X153142857Y-171202380D01*
X152761904Y-171202380D01*
X152761904Y-170202380D01*
X153095238Y-170202380D01*
X153190476Y-170250000D01*
X153238095Y-170297619D01*
X153285714Y-170392857D01*
X153285714Y-170488095D01*
X153238095Y-170583333D01*
X153190476Y-170630952D01*
X153095238Y-170678571D01*
X152761904Y-170678571D01*
X153666666Y-170202380D02*
X154333333Y-170202380D01*
X153904761Y-171202380D01*
X146595238Y-170678571D02*
X146738095Y-170726190D01*
X146785714Y-170773809D01*
X146833333Y-170869047D01*
X146833333Y-171011904D01*
X146785714Y-171107142D01*
X146738095Y-171154761D01*
X146642857Y-171202380D01*
X146261904Y-171202380D01*
X146261904Y-170202380D01*
X146595238Y-170202380D01*
X146690476Y-170250000D01*
X146738095Y-170297619D01*
X146785714Y-170392857D01*
X146785714Y-170488095D01*
X146738095Y-170583333D01*
X146690476Y-170630952D01*
X146595238Y-170678571D01*
X146261904Y-170678571D01*
X147690476Y-170202380D02*
X147500000Y-170202380D01*
X147404761Y-170250000D01*
X147357142Y-170297619D01*
X147261904Y-170440476D01*
X147214285Y-170630952D01*
X147214285Y-171011904D01*
X147261904Y-171107142D01*
X147309523Y-171154761D01*
X147404761Y-171202380D01*
X147595238Y-171202380D01*
X147690476Y-171154761D01*
X147738095Y-171107142D01*
X147785714Y-171011904D01*
X147785714Y-170773809D01*
X147738095Y-170678571D01*
X147690476Y-170630952D01*
X147595238Y-170583333D01*
X147404761Y-170583333D01*
X147309523Y-170630952D01*
X147261904Y-170678571D01*
X147214285Y-170773809D01*
X139595238Y-170678571D02*
X139738095Y-170726190D01*
X139785714Y-170773809D01*
X139833333Y-170869047D01*
X139833333Y-171011904D01*
X139785714Y-171107142D01*
X139738095Y-171154761D01*
X139642857Y-171202380D01*
X139261904Y-171202380D01*
X139261904Y-170202380D01*
X139595238Y-170202380D01*
X139690476Y-170250000D01*
X139738095Y-170297619D01*
X139785714Y-170392857D01*
X139785714Y-170488095D01*
X139738095Y-170583333D01*
X139690476Y-170630952D01*
X139595238Y-170678571D01*
X139261904Y-170678571D01*
X140738095Y-170202380D02*
X140261904Y-170202380D01*
X140214285Y-170678571D01*
X140261904Y-170630952D01*
X140357142Y-170583333D01*
X140595238Y-170583333D01*
X140690476Y-170630952D01*
X140738095Y-170678571D01*
X140785714Y-170773809D01*
X140785714Y-171011904D01*
X140738095Y-171107142D01*
X140690476Y-171154761D01*
X140595238Y-171202380D01*
X140357142Y-171202380D01*
X140261904Y-171154761D01*
X140214285Y-171107142D01*
X133095238Y-170678571D02*
X133238095Y-170726190D01*
X133285714Y-170773809D01*
X133333333Y-170869047D01*
X133333333Y-171011904D01*
X133285714Y-171107142D01*
X133238095Y-171154761D01*
X133142857Y-171202380D01*
X132761904Y-171202380D01*
X132761904Y-170202380D01*
X133095238Y-170202380D01*
X133190476Y-170250000D01*
X133238095Y-170297619D01*
X133285714Y-170392857D01*
X133285714Y-170488095D01*
X133238095Y-170583333D01*
X133190476Y-170630952D01*
X133095238Y-170678571D01*
X132761904Y-170678571D01*
X134190476Y-170535714D02*
X134190476Y-171202380D01*
X133952380Y-170154761D02*
X133714285Y-170869047D01*
X134333333Y-170869047D01*
X52095238Y-120678571D02*
X52238095Y-120726190D01*
X52285714Y-120773809D01*
X52333333Y-120869047D01*
X52333333Y-121011904D01*
X52285714Y-121107142D01*
X52238095Y-121154761D01*
X52142857Y-121202380D01*
X51761904Y-121202380D01*
X51761904Y-120202380D01*
X52095238Y-120202380D01*
X52190476Y-120250000D01*
X52238095Y-120297619D01*
X52285714Y-120392857D01*
X52285714Y-120488095D01*
X52238095Y-120583333D01*
X52190476Y-120630952D01*
X52095238Y-120678571D01*
X51761904Y-120678571D01*
X52904761Y-120630952D02*
X52809523Y-120583333D01*
X52761904Y-120535714D01*
X52714285Y-120440476D01*
X52714285Y-120392857D01*
X52761904Y-120297619D01*
X52809523Y-120250000D01*
X52904761Y-120202380D01*
X53095238Y-120202380D01*
X53190476Y-120250000D01*
X53238095Y-120297619D01*
X53285714Y-120392857D01*
X53285714Y-120440476D01*
X53238095Y-120535714D01*
X53190476Y-120583333D01*
X53095238Y-120630952D01*
X52904761Y-120630952D01*
X52809523Y-120678571D01*
X52761904Y-120726190D01*
X52714285Y-120821428D01*
X52714285Y-121011904D01*
X52761904Y-121107142D01*
X52809523Y-121154761D01*
X52904761Y-121202380D01*
X53095238Y-121202380D01*
X53190476Y-121154761D01*
X53238095Y-121107142D01*
X53285714Y-121011904D01*
X53285714Y-120821428D01*
X53238095Y-120726190D01*
X53190476Y-120678571D01*
X53095238Y-120630952D01*
X52095238Y-123428571D02*
X52238095Y-123476190D01*
X52285714Y-123523809D01*
X52333333Y-123619047D01*
X52333333Y-123761904D01*
X52285714Y-123857142D01*
X52238095Y-123904761D01*
X52142857Y-123952380D01*
X51761904Y-123952380D01*
X51761904Y-122952380D01*
X52095238Y-122952380D01*
X52190476Y-123000000D01*
X52238095Y-123047619D01*
X52285714Y-123142857D01*
X52285714Y-123238095D01*
X52238095Y-123333333D01*
X52190476Y-123380952D01*
X52095238Y-123428571D01*
X51761904Y-123428571D01*
X52666666Y-122952380D02*
X53333333Y-122952380D01*
X52904761Y-123952380D01*
X52095238Y-125928571D02*
X52238095Y-125976190D01*
X52285714Y-126023809D01*
X52333333Y-126119047D01*
X52333333Y-126261904D01*
X52285714Y-126357142D01*
X52238095Y-126404761D01*
X52142857Y-126452380D01*
X51761904Y-126452380D01*
X51761904Y-125452380D01*
X52095238Y-125452380D01*
X52190476Y-125500000D01*
X52238095Y-125547619D01*
X52285714Y-125642857D01*
X52285714Y-125738095D01*
X52238095Y-125833333D01*
X52190476Y-125880952D01*
X52095238Y-125928571D01*
X51761904Y-125928571D01*
X53190476Y-125452380D02*
X53000000Y-125452380D01*
X52904761Y-125500000D01*
X52857142Y-125547619D01*
X52761904Y-125690476D01*
X52714285Y-125880952D01*
X52714285Y-126261904D01*
X52761904Y-126357142D01*
X52809523Y-126404761D01*
X52904761Y-126452380D01*
X53095238Y-126452380D01*
X53190476Y-126404761D01*
X53238095Y-126357142D01*
X53285714Y-126261904D01*
X53285714Y-126023809D01*
X53238095Y-125928571D01*
X53190476Y-125880952D01*
X53095238Y-125833333D01*
X52904761Y-125833333D01*
X52809523Y-125880952D01*
X52761904Y-125928571D01*
X52714285Y-126023809D01*
X52095238Y-128428571D02*
X52238095Y-128476190D01*
X52285714Y-128523809D01*
X52333333Y-128619047D01*
X52333333Y-128761904D01*
X52285714Y-128857142D01*
X52238095Y-128904761D01*
X52142857Y-128952380D01*
X51761904Y-128952380D01*
X51761904Y-127952380D01*
X52095238Y-127952380D01*
X52190476Y-128000000D01*
X52238095Y-128047619D01*
X52285714Y-128142857D01*
X52285714Y-128238095D01*
X52238095Y-128333333D01*
X52190476Y-128380952D01*
X52095238Y-128428571D01*
X51761904Y-128428571D01*
X53238095Y-127952380D02*
X52761904Y-127952380D01*
X52714285Y-128428571D01*
X52761904Y-128380952D01*
X52857142Y-128333333D01*
X53095238Y-128333333D01*
X53190476Y-128380952D01*
X53238095Y-128428571D01*
X53285714Y-128523809D01*
X53285714Y-128761904D01*
X53238095Y-128857142D01*
X53190476Y-128904761D01*
X53095238Y-128952380D01*
X52857142Y-128952380D01*
X52761904Y-128904761D01*
X52714285Y-128857142D01*
X52095238Y-130928571D02*
X52238095Y-130976190D01*
X52285714Y-131023809D01*
X52333333Y-131119047D01*
X52333333Y-131261904D01*
X52285714Y-131357142D01*
X52238095Y-131404761D01*
X52142857Y-131452380D01*
X51761904Y-131452380D01*
X51761904Y-130452380D01*
X52095238Y-130452380D01*
X52190476Y-130500000D01*
X52238095Y-130547619D01*
X52285714Y-130642857D01*
X52285714Y-130738095D01*
X52238095Y-130833333D01*
X52190476Y-130880952D01*
X52095238Y-130928571D01*
X51761904Y-130928571D01*
X53190476Y-130785714D02*
X53190476Y-131452380D01*
X52952380Y-130404761D02*
X52714285Y-131119047D01*
X53333333Y-131119047D01*
X52095238Y-133428571D02*
X52238095Y-133476190D01*
X52285714Y-133523809D01*
X52333333Y-133619047D01*
X52333333Y-133761904D01*
X52285714Y-133857142D01*
X52238095Y-133904761D01*
X52142857Y-133952380D01*
X51761904Y-133952380D01*
X51761904Y-132952380D01*
X52095238Y-132952380D01*
X52190476Y-133000000D01*
X52238095Y-133047619D01*
X52285714Y-133142857D01*
X52285714Y-133238095D01*
X52238095Y-133333333D01*
X52190476Y-133380952D01*
X52095238Y-133428571D01*
X51761904Y-133428571D01*
X52666666Y-132952380D02*
X53285714Y-132952380D01*
X52952380Y-133333333D01*
X53095238Y-133333333D01*
X53190476Y-133380952D01*
X53238095Y-133428571D01*
X53285714Y-133523809D01*
X53285714Y-133761904D01*
X53238095Y-133857142D01*
X53190476Y-133904761D01*
X53095238Y-133952380D01*
X52809523Y-133952380D01*
X52714285Y-133904761D01*
X52666666Y-133857142D01*
X52095238Y-135928571D02*
X52238095Y-135976190D01*
X52285714Y-136023809D01*
X52333333Y-136119047D01*
X52333333Y-136261904D01*
X52285714Y-136357142D01*
X52238095Y-136404761D01*
X52142857Y-136452380D01*
X51761904Y-136452380D01*
X51761904Y-135452380D01*
X52095238Y-135452380D01*
X52190476Y-135500000D01*
X52238095Y-135547619D01*
X52285714Y-135642857D01*
X52285714Y-135738095D01*
X52238095Y-135833333D01*
X52190476Y-135880952D01*
X52095238Y-135928571D01*
X51761904Y-135928571D01*
X52714285Y-135547619D02*
X52761904Y-135500000D01*
X52857142Y-135452380D01*
X53095238Y-135452380D01*
X53190476Y-135500000D01*
X53238095Y-135547619D01*
X53285714Y-135642857D01*
X53285714Y-135738095D01*
X53238095Y-135880952D01*
X52666666Y-136452380D01*
X53285714Y-136452380D01*
X52095238Y-138428571D02*
X52238095Y-138476190D01*
X52285714Y-138523809D01*
X52333333Y-138619047D01*
X52333333Y-138761904D01*
X52285714Y-138857142D01*
X52238095Y-138904761D01*
X52142857Y-138952380D01*
X51761904Y-138952380D01*
X51761904Y-137952380D01*
X52095238Y-137952380D01*
X52190476Y-138000000D01*
X52238095Y-138047619D01*
X52285714Y-138142857D01*
X52285714Y-138238095D01*
X52238095Y-138333333D01*
X52190476Y-138380952D01*
X52095238Y-138428571D01*
X51761904Y-138428571D01*
X53285714Y-138952380D02*
X52714285Y-138952380D01*
X53000000Y-138952380D02*
X53000000Y-137952380D01*
X52904761Y-138095238D01*
X52809523Y-138190476D01*
X52714285Y-138238095D01*
X126595238Y-170678571D02*
X126738095Y-170726190D01*
X126785714Y-170773809D01*
X126833333Y-170869047D01*
X126833333Y-171011904D01*
X126785714Y-171107142D01*
X126738095Y-171154761D01*
X126642857Y-171202380D01*
X126261904Y-171202380D01*
X126261904Y-170202380D01*
X126595238Y-170202380D01*
X126690476Y-170250000D01*
X126738095Y-170297619D01*
X126785714Y-170392857D01*
X126785714Y-170488095D01*
X126738095Y-170583333D01*
X126690476Y-170630952D01*
X126595238Y-170678571D01*
X126261904Y-170678571D01*
X127166666Y-170202380D02*
X127785714Y-170202380D01*
X127452380Y-170583333D01*
X127595238Y-170583333D01*
X127690476Y-170630952D01*
X127738095Y-170678571D01*
X127785714Y-170773809D01*
X127785714Y-171011904D01*
X127738095Y-171107142D01*
X127690476Y-171154761D01*
X127595238Y-171202380D01*
X127309523Y-171202380D01*
X127214285Y-171154761D01*
X127166666Y-171107142D01*
X118845238Y-170678571D02*
X118988095Y-170726190D01*
X119035714Y-170773809D01*
X119083333Y-170869047D01*
X119083333Y-171011904D01*
X119035714Y-171107142D01*
X118988095Y-171154761D01*
X118892857Y-171202380D01*
X118511904Y-171202380D01*
X118511904Y-170202380D01*
X118845238Y-170202380D01*
X118940476Y-170250000D01*
X118988095Y-170297619D01*
X119035714Y-170392857D01*
X119035714Y-170488095D01*
X118988095Y-170583333D01*
X118940476Y-170630952D01*
X118845238Y-170678571D01*
X118511904Y-170678571D01*
X119464285Y-170297619D02*
X119511904Y-170250000D01*
X119607142Y-170202380D01*
X119845238Y-170202380D01*
X119940476Y-170250000D01*
X119988095Y-170297619D01*
X120035714Y-170392857D01*
X120035714Y-170488095D01*
X119988095Y-170630952D01*
X119416666Y-171202380D01*
X120035714Y-171202380D01*
X110845238Y-170678571D02*
X110988095Y-170726190D01*
X111035714Y-170773809D01*
X111083333Y-170869047D01*
X111083333Y-171011904D01*
X111035714Y-171107142D01*
X110988095Y-171154761D01*
X110892857Y-171202380D01*
X110511904Y-171202380D01*
X110511904Y-170202380D01*
X110845238Y-170202380D01*
X110940476Y-170250000D01*
X110988095Y-170297619D01*
X111035714Y-170392857D01*
X111035714Y-170488095D01*
X110988095Y-170583333D01*
X110940476Y-170630952D01*
X110845238Y-170678571D01*
X110511904Y-170678571D01*
X112035714Y-171202380D02*
X111464285Y-171202380D01*
X111750000Y-171202380D02*
X111750000Y-170202380D01*
X111654761Y-170345238D01*
X111559523Y-170440476D01*
X111464285Y-170488095D01*
X99285714Y-170916666D02*
X99761904Y-170916666D01*
X99190476Y-171202380D02*
X99523809Y-170202380D01*
X99857142Y-171202380D01*
X100333333Y-170630952D02*
X100238095Y-170583333D01*
X100190476Y-170535714D01*
X100142857Y-170440476D01*
X100142857Y-170392857D01*
X100190476Y-170297619D01*
X100238095Y-170250000D01*
X100333333Y-170202380D01*
X100523809Y-170202380D01*
X100619047Y-170250000D01*
X100666666Y-170297619D01*
X100714285Y-170392857D01*
X100714285Y-170440476D01*
X100666666Y-170535714D01*
X100619047Y-170583333D01*
X100523809Y-170630952D01*
X100333333Y-170630952D01*
X100238095Y-170678571D01*
X100190476Y-170726190D01*
X100142857Y-170821428D01*
X100142857Y-171011904D01*
X100190476Y-171107142D01*
X100238095Y-171154761D01*
X100333333Y-171202380D01*
X100523809Y-171202380D01*
X100619047Y-171154761D01*
X100666666Y-171107142D01*
X100714285Y-171011904D01*
X100714285Y-170821428D01*
X100666666Y-170726190D01*
X100619047Y-170678571D01*
X100523809Y-170630952D01*
X92535714Y-170916666D02*
X93011904Y-170916666D01*
X92440476Y-171202380D02*
X92773809Y-170202380D01*
X93107142Y-171202380D01*
X93345238Y-170202380D02*
X94011904Y-170202380D01*
X93583333Y-171202380D01*
X86535714Y-170916666D02*
X87011904Y-170916666D01*
X86440476Y-171202380D02*
X86773809Y-170202380D01*
X87107142Y-171202380D01*
X87869047Y-170202380D02*
X87678571Y-170202380D01*
X87583333Y-170250000D01*
X87535714Y-170297619D01*
X87440476Y-170440476D01*
X87392857Y-170630952D01*
X87392857Y-171011904D01*
X87440476Y-171107142D01*
X87488095Y-171154761D01*
X87583333Y-171202380D01*
X87773809Y-171202380D01*
X87869047Y-171154761D01*
X87916666Y-171107142D01*
X87964285Y-171011904D01*
X87964285Y-170773809D01*
X87916666Y-170678571D01*
X87869047Y-170630952D01*
X87773809Y-170583333D01*
X87583333Y-170583333D01*
X87488095Y-170630952D01*
X87440476Y-170678571D01*
X87392857Y-170773809D01*
X79785714Y-170916666D02*
X80261904Y-170916666D01*
X79690476Y-171202380D02*
X80023809Y-170202380D01*
X80357142Y-171202380D01*
X81166666Y-170202380D02*
X80690476Y-170202380D01*
X80642857Y-170678571D01*
X80690476Y-170630952D01*
X80785714Y-170583333D01*
X81023809Y-170583333D01*
X81119047Y-170630952D01*
X81166666Y-170678571D01*
X81214285Y-170773809D01*
X81214285Y-171011904D01*
X81166666Y-171107142D01*
X81119047Y-171154761D01*
X81023809Y-171202380D01*
X80785714Y-171202380D01*
X80690476Y-171154761D01*
X80642857Y-171107142D01*
X73535714Y-170916666D02*
X74011904Y-170916666D01*
X73440476Y-171202380D02*
X73773809Y-170202380D01*
X74107142Y-171202380D01*
X74869047Y-170535714D02*
X74869047Y-171202380D01*
X74630952Y-170154761D02*
X74392857Y-170869047D01*
X75011904Y-170869047D01*
X67535714Y-170916666D02*
X68011904Y-170916666D01*
X67440476Y-171202380D02*
X67773809Y-170202380D01*
X68107142Y-171202380D01*
X68345238Y-170202380D02*
X68964285Y-170202380D01*
X68630952Y-170583333D01*
X68773809Y-170583333D01*
X68869047Y-170630952D01*
X68916666Y-170678571D01*
X68964285Y-170773809D01*
X68964285Y-171011904D01*
X68916666Y-171107142D01*
X68869047Y-171154761D01*
X68773809Y-171202380D01*
X68488095Y-171202380D01*
X68392857Y-171154761D01*
X68345238Y-171107142D01*
X60285714Y-170666666D02*
X60761904Y-170666666D01*
X60190476Y-170952380D02*
X60523809Y-169952380D01*
X60857142Y-170952380D01*
X61142857Y-170047619D02*
X61190476Y-170000000D01*
X61285714Y-169952380D01*
X61523809Y-169952380D01*
X61619047Y-170000000D01*
X61666666Y-170047619D01*
X61714285Y-170142857D01*
X61714285Y-170238095D01*
X61666666Y-170380952D01*
X61095238Y-170952380D01*
X61714285Y-170952380D01*
X53535714Y-170666666D02*
X54011904Y-170666666D01*
X53440476Y-170952380D02*
X53773809Y-169952380D01*
X54107142Y-170952380D01*
X54964285Y-170952380D02*
X54392857Y-170952380D01*
X54678571Y-170952380D02*
X54678571Y-169952380D01*
X54583333Y-170095238D01*
X54488095Y-170190476D01*
X54392857Y-170238095D01*
X51535714Y-144416666D02*
X52011904Y-144416666D01*
X51440476Y-144702380D02*
X51773809Y-143702380D01*
X52107142Y-144702380D01*
X52583333Y-144130952D02*
X52488095Y-144083333D01*
X52440476Y-144035714D01*
X52392857Y-143940476D01*
X52392857Y-143892857D01*
X52440476Y-143797619D01*
X52488095Y-143750000D01*
X52583333Y-143702380D01*
X52773809Y-143702380D01*
X52869047Y-143750000D01*
X52916666Y-143797619D01*
X52964285Y-143892857D01*
X52964285Y-143940476D01*
X52916666Y-144035714D01*
X52869047Y-144083333D01*
X52773809Y-144130952D01*
X52583333Y-144130952D01*
X52488095Y-144178571D01*
X52440476Y-144226190D01*
X52392857Y-144321428D01*
X52392857Y-144511904D01*
X52440476Y-144607142D01*
X52488095Y-144654761D01*
X52583333Y-144702380D01*
X52773809Y-144702380D01*
X52869047Y-144654761D01*
X52916666Y-144607142D01*
X52964285Y-144511904D01*
X52964285Y-144321428D01*
X52916666Y-144226190D01*
X52869047Y-144178571D01*
X52773809Y-144130952D01*
X51535714Y-146916666D02*
X52011904Y-146916666D01*
X51440476Y-147202380D02*
X51773809Y-146202380D01*
X52107142Y-147202380D01*
X52345238Y-146202380D02*
X53011904Y-146202380D01*
X52583333Y-147202380D01*
X51535714Y-149416666D02*
X52011904Y-149416666D01*
X51440476Y-149702380D02*
X51773809Y-148702380D01*
X52107142Y-149702380D01*
X52869047Y-148702380D02*
X52678571Y-148702380D01*
X52583333Y-148750000D01*
X52535714Y-148797619D01*
X52440476Y-148940476D01*
X52392857Y-149130952D01*
X52392857Y-149511904D01*
X52440476Y-149607142D01*
X52488095Y-149654761D01*
X52583333Y-149702380D01*
X52773809Y-149702380D01*
X52869047Y-149654761D01*
X52916666Y-149607142D01*
X52964285Y-149511904D01*
X52964285Y-149273809D01*
X52916666Y-149178571D01*
X52869047Y-149130952D01*
X52773809Y-149083333D01*
X52583333Y-149083333D01*
X52488095Y-149130952D01*
X52440476Y-149178571D01*
X52392857Y-149273809D01*
X51535714Y-151916666D02*
X52011904Y-151916666D01*
X51440476Y-152202380D02*
X51773809Y-151202380D01*
X52107142Y-152202380D01*
X52916666Y-151202380D02*
X52440476Y-151202380D01*
X52392857Y-151678571D01*
X52440476Y-151630952D01*
X52535714Y-151583333D01*
X52773809Y-151583333D01*
X52869047Y-151630952D01*
X52916666Y-151678571D01*
X52964285Y-151773809D01*
X52964285Y-152011904D01*
X52916666Y-152107142D01*
X52869047Y-152154761D01*
X52773809Y-152202380D01*
X52535714Y-152202380D01*
X52440476Y-152154761D01*
X52392857Y-152107142D01*
X51535714Y-154416666D02*
X52011904Y-154416666D01*
X51440476Y-154702380D02*
X51773809Y-153702380D01*
X52107142Y-154702380D01*
X52869047Y-154035714D02*
X52869047Y-154702380D01*
X52630952Y-153654761D02*
X52392857Y-154369047D01*
X53011904Y-154369047D01*
X51535714Y-156916666D02*
X52011904Y-156916666D01*
X51440476Y-157202380D02*
X51773809Y-156202380D01*
X52107142Y-157202380D01*
X52345238Y-156202380D02*
X52964285Y-156202380D01*
X52630952Y-156583333D01*
X52773809Y-156583333D01*
X52869047Y-156630952D01*
X52916666Y-156678571D01*
X52964285Y-156773809D01*
X52964285Y-157011904D01*
X52916666Y-157107142D01*
X52869047Y-157154761D01*
X52773809Y-157202380D01*
X52488095Y-157202380D01*
X52392857Y-157154761D01*
X52345238Y-157107142D01*
X51535714Y-159416666D02*
X52011904Y-159416666D01*
X51440476Y-159702380D02*
X51773809Y-158702380D01*
X52107142Y-159702380D01*
X52392857Y-158797619D02*
X52440476Y-158750000D01*
X52535714Y-158702380D01*
X52773809Y-158702380D01*
X52869047Y-158750000D01*
X52916666Y-158797619D01*
X52964285Y-158892857D01*
X52964285Y-158988095D01*
X52916666Y-159130952D01*
X52345238Y-159702380D01*
X52964285Y-159702380D01*
X51535714Y-161916666D02*
X52011904Y-161916666D01*
X51440476Y-162202380D02*
X51773809Y-161202380D01*
X52107142Y-162202380D01*
X52964285Y-162202380D02*
X52392857Y-162202380D01*
X52678571Y-162202380D02*
X52678571Y-161202380D01*
X52583333Y-161345238D01*
X52488095Y-161440476D01*
X52392857Y-161488095D01*
D12*
%TO.C,REF\u002A\u002A*%
G36*
X62969909Y-139409560D02*
G01*
X63022412Y-139435499D01*
X63087158Y-139480700D01*
X63134347Y-139529991D01*
X63166665Y-139591885D01*
X63186797Y-139674896D01*
X63197430Y-139787538D01*
X63201247Y-139938324D01*
X63201470Y-140003149D01*
X63200818Y-140145221D01*
X63198112Y-140246757D01*
X63192224Y-140317015D01*
X63182027Y-140365256D01*
X63166394Y-140400738D01*
X63150128Y-140424943D01*
X63046295Y-140527929D01*
X62924021Y-140589874D01*
X62792114Y-140608506D01*
X62659384Y-140581549D01*
X62617333Y-140562486D01*
X62516666Y-140510015D01*
X62516666Y-141332259D01*
X62590135Y-141294267D01*
X62686941Y-141264872D01*
X62805928Y-141257342D01*
X62924745Y-141271245D01*
X63014473Y-141302476D01*
X63088899Y-141361954D01*
X63152490Y-141447066D01*
X63157271Y-141455805D01*
X63177437Y-141496966D01*
X63192165Y-141538454D01*
X63202303Y-141588713D01*
X63208699Y-141656184D01*
X63212201Y-141749309D01*
X63213658Y-141876531D01*
X63213921Y-142019701D01*
X63213921Y-142476471D01*
X62940000Y-142476471D01*
X62940000Y-141634231D01*
X62863383Y-141569763D01*
X62783793Y-141518194D01*
X62708422Y-141508818D01*
X62632633Y-141532947D01*
X62592241Y-141556574D01*
X62562179Y-141590227D01*
X62540797Y-141641087D01*
X62526450Y-141716334D01*
X62517490Y-141823146D01*
X62512270Y-141968704D01*
X62510431Y-142065588D01*
X62504215Y-142464020D01*
X62373480Y-142471547D01*
X62242745Y-142479073D01*
X62242745Y-140006582D01*
X62516666Y-140006582D01*
X62523650Y-140144423D01*
X62547182Y-140240107D01*
X62591135Y-140299641D01*
X62659382Y-140329029D01*
X62728333Y-140334902D01*
X62806386Y-140328154D01*
X62858189Y-140301594D01*
X62890583Y-140266499D01*
X62916084Y-140228752D01*
X62931265Y-140186700D01*
X62938019Y-140127779D01*
X62938241Y-140039428D01*
X62935968Y-139965448D01*
X62930749Y-139854000D01*
X62922979Y-139780833D01*
X62909895Y-139734422D01*
X62888732Y-139703244D01*
X62868760Y-139685223D01*
X62785314Y-139645925D01*
X62686551Y-139639579D01*
X62629841Y-139653116D01*
X62573692Y-139701233D01*
X62536499Y-139794833D01*
X62518472Y-139933254D01*
X62516666Y-140006582D01*
X62242745Y-140006582D01*
X62242745Y-139388628D01*
X62379705Y-139388628D01*
X62461935Y-139391879D01*
X62504360Y-139403426D01*
X62516661Y-139425952D01*
X62516666Y-139426620D01*
X62522374Y-139448681D01*
X62547547Y-139446176D01*
X62597598Y-139421935D01*
X62714219Y-139384851D01*
X62845429Y-139380953D01*
X62969909Y-139409560D01*
G37*
X62969909Y-139409560D02*
X63022412Y-139435499D01*
X63087158Y-139480700D01*
X63134347Y-139529991D01*
X63166665Y-139591885D01*
X63186797Y-139674896D01*
X63197430Y-139787538D01*
X63201247Y-139938324D01*
X63201470Y-140003149D01*
X63200818Y-140145221D01*
X63198112Y-140246757D01*
X63192224Y-140317015D01*
X63182027Y-140365256D01*
X63166394Y-140400738D01*
X63150128Y-140424943D01*
X63046295Y-140527929D01*
X62924021Y-140589874D01*
X62792114Y-140608506D01*
X62659384Y-140581549D01*
X62617333Y-140562486D01*
X62516666Y-140510015D01*
X62516666Y-141332259D01*
X62590135Y-141294267D01*
X62686941Y-141264872D01*
X62805928Y-141257342D01*
X62924745Y-141271245D01*
X63014473Y-141302476D01*
X63088899Y-141361954D01*
X63152490Y-141447066D01*
X63157271Y-141455805D01*
X63177437Y-141496966D01*
X63192165Y-141538454D01*
X63202303Y-141588713D01*
X63208699Y-141656184D01*
X63212201Y-141749309D01*
X63213658Y-141876531D01*
X63213921Y-142019701D01*
X63213921Y-142476471D01*
X62940000Y-142476471D01*
X62940000Y-141634231D01*
X62863383Y-141569763D01*
X62783793Y-141518194D01*
X62708422Y-141508818D01*
X62632633Y-141532947D01*
X62592241Y-141556574D01*
X62562179Y-141590227D01*
X62540797Y-141641087D01*
X62526450Y-141716334D01*
X62517490Y-141823146D01*
X62512270Y-141968704D01*
X62510431Y-142065588D01*
X62504215Y-142464020D01*
X62373480Y-142471547D01*
X62242745Y-142479073D01*
X62242745Y-140006582D01*
X62516666Y-140006582D01*
X62523650Y-140144423D01*
X62547182Y-140240107D01*
X62591135Y-140299641D01*
X62659382Y-140329029D01*
X62728333Y-140334902D01*
X62806386Y-140328154D01*
X62858189Y-140301594D01*
X62890583Y-140266499D01*
X62916084Y-140228752D01*
X62931265Y-140186700D01*
X62938019Y-140127779D01*
X62938241Y-140039428D01*
X62935968Y-139965448D01*
X62930749Y-139854000D01*
X62922979Y-139780833D01*
X62909895Y-139734422D01*
X62888732Y-139703244D01*
X62868760Y-139685223D01*
X62785314Y-139645925D01*
X62686551Y-139639579D01*
X62629841Y-139653116D01*
X62573692Y-139701233D01*
X62536499Y-139794833D01*
X62518472Y-139933254D01*
X62516666Y-140006582D01*
X62242745Y-140006582D01*
X62242745Y-139388628D01*
X62379705Y-139388628D01*
X62461935Y-139391879D01*
X62504360Y-139403426D01*
X62516661Y-139425952D01*
X62516666Y-139426620D01*
X62522374Y-139448681D01*
X62547547Y-139446176D01*
X62597598Y-139421935D01*
X62714219Y-139384851D01*
X62845429Y-139380953D01*
X62969909Y-139409560D01*
G36*
X64008720Y-141265922D02*
G01*
X64125870Y-141297180D01*
X64215051Y-141353837D01*
X64277984Y-141428045D01*
X64297548Y-141459716D01*
X64311992Y-141492891D01*
X64322089Y-141535329D01*
X64328615Y-141594788D01*
X64332342Y-141679029D01*
X64334046Y-141795810D01*
X64334500Y-141952890D01*
X64334509Y-141994565D01*
X64334509Y-142476471D01*
X64214980Y-142476471D01*
X64138739Y-142471131D01*
X64082366Y-142457604D01*
X64068242Y-142449262D01*
X64029630Y-142434864D01*
X63990192Y-142449262D01*
X63925262Y-142467237D01*
X63830945Y-142474472D01*
X63726407Y-142471333D01*
X63630811Y-142458186D01*
X63575000Y-142441318D01*
X63466998Y-142371986D01*
X63399503Y-142275772D01*
X63369159Y-142147844D01*
X63368877Y-142144559D01*
X63371540Y-142087808D01*
X63612353Y-142087808D01*
X63633405Y-142152358D01*
X63667697Y-142188686D01*
X63736532Y-142216162D01*
X63827390Y-142227129D01*
X63920042Y-142221731D01*
X63994256Y-142200110D01*
X64015049Y-142186239D01*
X64051381Y-142122143D01*
X64060588Y-142049278D01*
X64060588Y-141953530D01*
X63922827Y-141953530D01*
X63791953Y-141963605D01*
X63692741Y-141992148D01*
X63631023Y-142036639D01*
X63612353Y-142087808D01*
X63371540Y-142087808D01*
X63375436Y-142004790D01*
X63421534Y-141894282D01*
X63508200Y-141810712D01*
X63520179Y-141803110D01*
X63571655Y-141778357D01*
X63635368Y-141763368D01*
X63724435Y-141756082D01*
X63830245Y-141754407D01*
X64060588Y-141754314D01*
X64060588Y-141657755D01*
X64050817Y-141582836D01*
X64025884Y-141532644D01*
X64022965Y-141529972D01*
X63967481Y-141508015D01*
X63883727Y-141499505D01*
X63791167Y-141503687D01*
X63709270Y-141519809D01*
X63660673Y-141543990D01*
X63634341Y-141563359D01*
X63606535Y-141567057D01*
X63568161Y-141551188D01*
X63510125Y-141511855D01*
X63423331Y-141445164D01*
X63415365Y-141438916D01*
X63419447Y-141415800D01*
X63453501Y-141377352D01*
X63505260Y-141334627D01*
X63562455Y-141298679D01*
X63580425Y-141290191D01*
X63645972Y-141273252D01*
X63742020Y-141261170D01*
X63849329Y-141256323D01*
X63854347Y-141256313D01*
X64008720Y-141265922D01*
G37*
X64008720Y-141265922D02*
X64125870Y-141297180D01*
X64215051Y-141353837D01*
X64277984Y-141428045D01*
X64297548Y-141459716D01*
X64311992Y-141492891D01*
X64322089Y-141535329D01*
X64328615Y-141594788D01*
X64332342Y-141679029D01*
X64334046Y-141795810D01*
X64334500Y-141952890D01*
X64334509Y-141994565D01*
X64334509Y-142476471D01*
X64214980Y-142476471D01*
X64138739Y-142471131D01*
X64082366Y-142457604D01*
X64068242Y-142449262D01*
X64029630Y-142434864D01*
X63990192Y-142449262D01*
X63925262Y-142467237D01*
X63830945Y-142474472D01*
X63726407Y-142471333D01*
X63630811Y-142458186D01*
X63575000Y-142441318D01*
X63466998Y-142371986D01*
X63399503Y-142275772D01*
X63369159Y-142147844D01*
X63368877Y-142144559D01*
X63371540Y-142087808D01*
X63612353Y-142087808D01*
X63633405Y-142152358D01*
X63667697Y-142188686D01*
X63736532Y-142216162D01*
X63827390Y-142227129D01*
X63920042Y-142221731D01*
X63994256Y-142200110D01*
X64015049Y-142186239D01*
X64051381Y-142122143D01*
X64060588Y-142049278D01*
X64060588Y-141953530D01*
X63922827Y-141953530D01*
X63791953Y-141963605D01*
X63692741Y-141992148D01*
X63631023Y-142036639D01*
X63612353Y-142087808D01*
X63371540Y-142087808D01*
X63375436Y-142004790D01*
X63421534Y-141894282D01*
X63508200Y-141810712D01*
X63520179Y-141803110D01*
X63571655Y-141778357D01*
X63635368Y-141763368D01*
X63724435Y-141756082D01*
X63830245Y-141754407D01*
X64060588Y-141754314D01*
X64060588Y-141657755D01*
X64050817Y-141582836D01*
X64025884Y-141532644D01*
X64022965Y-141529972D01*
X63967481Y-141508015D01*
X63883727Y-141499505D01*
X63791167Y-141503687D01*
X63709270Y-141519809D01*
X63660673Y-141543990D01*
X63634341Y-141563359D01*
X63606535Y-141567057D01*
X63568161Y-141551188D01*
X63510125Y-141511855D01*
X63423331Y-141445164D01*
X63415365Y-141438916D01*
X63419447Y-141415800D01*
X63453501Y-141377352D01*
X63505260Y-141334627D01*
X63562455Y-141298679D01*
X63580425Y-141290191D01*
X63645972Y-141273252D01*
X63742020Y-141261170D01*
X63849329Y-141256323D01*
X63854347Y-141256313D01*
X64008720Y-141265922D01*
G36*
X64782764Y-141258921D02*
G01*
X64820030Y-141270091D01*
X64832043Y-141294633D01*
X64832549Y-141305712D01*
X64834704Y-141336572D01*
X64849551Y-141341417D01*
X64889657Y-141320260D01*
X64913480Y-141305806D01*
X64988638Y-141274850D01*
X65078406Y-141259544D01*
X65172529Y-141258367D01*
X65260754Y-141269799D01*
X65332826Y-141292320D01*
X65378492Y-141324409D01*
X65387498Y-141364545D01*
X65382953Y-141375415D01*
X65349821Y-141420534D01*
X65298445Y-141476026D01*
X65289152Y-141484996D01*
X65240182Y-141526245D01*
X65197931Y-141539572D01*
X65138841Y-141530271D01*
X65115169Y-141524090D01*
X65041504Y-141509246D01*
X64989710Y-141515921D01*
X64945969Y-141539465D01*
X64905902Y-141571061D01*
X64876392Y-141610798D01*
X64855884Y-141666252D01*
X64842824Y-141745003D01*
X64835656Y-141854629D01*
X64832824Y-142002706D01*
X64832549Y-142092111D01*
X64832549Y-142476471D01*
X64583529Y-142476471D01*
X64583529Y-141256275D01*
X64708039Y-141256275D01*
X64782764Y-141258921D01*
G37*
X64782764Y-141258921D02*
X64820030Y-141270091D01*
X64832043Y-141294633D01*
X64832549Y-141305712D01*
X64834704Y-141336572D01*
X64849551Y-141341417D01*
X64889657Y-141320260D01*
X64913480Y-141305806D01*
X64988638Y-141274850D01*
X65078406Y-141259544D01*
X65172529Y-141258367D01*
X65260754Y-141269799D01*
X65332826Y-141292320D01*
X65378492Y-141324409D01*
X65387498Y-141364545D01*
X65382953Y-141375415D01*
X65349821Y-141420534D01*
X65298445Y-141476026D01*
X65289152Y-141484996D01*
X65240182Y-141526245D01*
X65197931Y-141539572D01*
X65138841Y-141530271D01*
X65115169Y-141524090D01*
X65041504Y-141509246D01*
X64989710Y-141515921D01*
X64945969Y-141539465D01*
X64905902Y-141571061D01*
X64876392Y-141610798D01*
X64855884Y-141666252D01*
X64842824Y-141745003D01*
X64835656Y-141854629D01*
X64832824Y-142002706D01*
X64832549Y-142092111D01*
X64832549Y-142476471D01*
X64583529Y-142476471D01*
X64583529Y-141256275D01*
X64708039Y-141256275D01*
X64782764Y-141258921D01*
G36*
X66351568Y-142476471D02*
G01*
X66214607Y-142476471D01*
X66135111Y-142474140D01*
X66093708Y-142464488D01*
X66078801Y-142443525D01*
X66077647Y-142429351D01*
X66075133Y-142400927D01*
X66059280Y-142395475D01*
X66017621Y-142412998D01*
X65985224Y-142429351D01*
X65860849Y-142468103D01*
X65725646Y-142470346D01*
X65615726Y-142441444D01*
X65513366Y-142371619D01*
X65435340Y-142268555D01*
X65392614Y-142146989D01*
X65391526Y-142140192D01*
X65385178Y-142066032D01*
X65382021Y-141959570D01*
X65382275Y-141879052D01*
X65654289Y-141879052D01*
X65660590Y-141986070D01*
X65674925Y-142074278D01*
X65694331Y-142124090D01*
X65767746Y-142192162D01*
X65854914Y-142216564D01*
X65944804Y-142196831D01*
X66021617Y-142137968D01*
X66050708Y-142098379D01*
X66067717Y-142051138D01*
X66075684Y-141982181D01*
X66077647Y-141878607D01*
X66074134Y-141776039D01*
X66064857Y-141685921D01*
X66051706Y-141625613D01*
X66049514Y-141620208D01*
X65996478Y-141555940D01*
X65919067Y-141520656D01*
X65832454Y-141514959D01*
X65751807Y-141539453D01*
X65692297Y-141594742D01*
X65686124Y-141605743D01*
X65666801Y-141672827D01*
X65656274Y-141769284D01*
X65654289Y-141879052D01*
X65382275Y-141879052D01*
X65382404Y-141838225D01*
X65384194Y-141772918D01*
X65396373Y-141611355D01*
X65421685Y-141490053D01*
X65463793Y-141400379D01*
X65526359Y-141333699D01*
X65587100Y-141294557D01*
X65671964Y-141267040D01*
X65777515Y-141257603D01*
X65885598Y-141265290D01*
X65978058Y-141289146D01*
X66026910Y-141317685D01*
X66077647Y-141363601D01*
X66077647Y-140783137D01*
X66351568Y-140783137D01*
X66351568Y-142476471D01*
G37*
X66351568Y-142476471D02*
X66214607Y-142476471D01*
X66135111Y-142474140D01*
X66093708Y-142464488D01*
X66078801Y-142443525D01*
X66077647Y-142429351D01*
X66075133Y-142400927D01*
X66059280Y-142395475D01*
X66017621Y-142412998D01*
X65985224Y-142429351D01*
X65860849Y-142468103D01*
X65725646Y-142470346D01*
X65615726Y-142441444D01*
X65513366Y-142371619D01*
X65435340Y-142268555D01*
X65392614Y-142146989D01*
X65391526Y-142140192D01*
X65385178Y-142066032D01*
X65382021Y-141959570D01*
X65382275Y-141879052D01*
X65654289Y-141879052D01*
X65660590Y-141986070D01*
X65674925Y-142074278D01*
X65694331Y-142124090D01*
X65767746Y-142192162D01*
X65854914Y-142216564D01*
X65944804Y-142196831D01*
X66021617Y-142137968D01*
X66050708Y-142098379D01*
X66067717Y-142051138D01*
X66075684Y-141982181D01*
X66077647Y-141878607D01*
X66074134Y-141776039D01*
X66064857Y-141685921D01*
X66051706Y-141625613D01*
X66049514Y-141620208D01*
X65996478Y-141555940D01*
X65919067Y-141520656D01*
X65832454Y-141514959D01*
X65751807Y-141539453D01*
X65692297Y-141594742D01*
X65686124Y-141605743D01*
X65666801Y-141672827D01*
X65656274Y-141769284D01*
X65654289Y-141879052D01*
X65382275Y-141879052D01*
X65382404Y-141838225D01*
X65384194Y-141772918D01*
X65396373Y-141611355D01*
X65421685Y-141490053D01*
X65463793Y-141400379D01*
X65526359Y-141333699D01*
X65587100Y-141294557D01*
X65671964Y-141267040D01*
X65777515Y-141257603D01*
X65885598Y-141265290D01*
X65978058Y-141289146D01*
X66026910Y-141317685D01*
X66077647Y-141363601D01*
X66077647Y-140783137D01*
X66351568Y-140783137D01*
X66351568Y-142476471D01*
G36*
X67307528Y-141261332D02*
G01*
X67406014Y-141268726D01*
X67534776Y-141654706D01*
X67663537Y-142040686D01*
X67703911Y-141903726D01*
X67728207Y-141819083D01*
X67760167Y-141704697D01*
X67794679Y-141578963D01*
X67812928Y-141511520D01*
X67881571Y-141256275D01*
X68164773Y-141256275D01*
X68080122Y-141523971D01*
X68038435Y-141655638D01*
X67988074Y-141814458D01*
X67935481Y-141980128D01*
X67888530Y-142127843D01*
X67781589Y-142464020D01*
X67550661Y-142479044D01*
X67488050Y-142272316D01*
X67449438Y-142143896D01*
X67407300Y-142002322D01*
X67370472Y-141877285D01*
X67369018Y-141872309D01*
X67341511Y-141787586D01*
X67317242Y-141729778D01*
X67300243Y-141707918D01*
X67296750Y-141710446D01*
X67284490Y-141744336D01*
X67261195Y-141816930D01*
X67229700Y-141919101D01*
X67192842Y-142041720D01*
X67172899Y-142109167D01*
X67064895Y-142476471D01*
X66835679Y-142476471D01*
X66652439Y-141897500D01*
X66600963Y-141735091D01*
X66554070Y-141587602D01*
X66513977Y-141461960D01*
X66482897Y-141365095D01*
X66463045Y-141303934D01*
X66457011Y-141286065D01*
X66461788Y-141267768D01*
X66499297Y-141259755D01*
X66577355Y-141260557D01*
X66589574Y-141261163D01*
X66734326Y-141268726D01*
X66829130Y-141617353D01*
X66863977Y-141744497D01*
X66895117Y-141856265D01*
X66919809Y-141942953D01*
X66935312Y-141994856D01*
X66938176Y-142003318D01*
X66950046Y-141993587D01*
X66973983Y-141943172D01*
X67007239Y-141858935D01*
X67047064Y-141747741D01*
X67080730Y-141647297D01*
X67209041Y-141253939D01*
X67307528Y-141261332D01*
G37*
X67307528Y-141261332D02*
X67406014Y-141268726D01*
X67534776Y-141654706D01*
X67663537Y-142040686D01*
X67703911Y-141903726D01*
X67728207Y-141819083D01*
X67760167Y-141704697D01*
X67794679Y-141578963D01*
X67812928Y-141511520D01*
X67881571Y-141256275D01*
X68164773Y-141256275D01*
X68080122Y-141523971D01*
X68038435Y-141655638D01*
X67988074Y-141814458D01*
X67935481Y-141980128D01*
X67888530Y-142127843D01*
X67781589Y-142464020D01*
X67550661Y-142479044D01*
X67488050Y-142272316D01*
X67449438Y-142143896D01*
X67407300Y-142002322D01*
X67370472Y-141877285D01*
X67369018Y-141872309D01*
X67341511Y-141787586D01*
X67317242Y-141729778D01*
X67300243Y-141707918D01*
X67296750Y-141710446D01*
X67284490Y-141744336D01*
X67261195Y-141816930D01*
X67229700Y-141919101D01*
X67192842Y-142041720D01*
X67172899Y-142109167D01*
X67064895Y-142476471D01*
X66835679Y-142476471D01*
X66652439Y-141897500D01*
X66600963Y-141735091D01*
X66554070Y-141587602D01*
X66513977Y-141461960D01*
X66482897Y-141365095D01*
X66463045Y-141303934D01*
X66457011Y-141286065D01*
X66461788Y-141267768D01*
X66499297Y-141259755D01*
X66577355Y-141260557D01*
X66589574Y-141261163D01*
X66734326Y-141268726D01*
X66829130Y-141617353D01*
X66863977Y-141744497D01*
X66895117Y-141856265D01*
X66919809Y-141942953D01*
X66935312Y-141994856D01*
X66938176Y-142003318D01*
X66950046Y-141993587D01*
X66973983Y-141943172D01*
X67007239Y-141858935D01*
X67047064Y-141747741D01*
X67080730Y-141647297D01*
X67209041Y-141253939D01*
X67307528Y-141261332D01*
G36*
X68806459Y-141263669D02*
G01*
X68911420Y-141289163D01*
X68941761Y-141302669D01*
X69000573Y-141338046D01*
X69045709Y-141377890D01*
X69079106Y-141429120D01*
X69102701Y-141498654D01*
X69118433Y-141593409D01*
X69128239Y-141720305D01*
X69134057Y-141886258D01*
X69136266Y-141997108D01*
X69144396Y-142476471D01*
X69005531Y-142476471D01*
X68921287Y-142472938D01*
X68877884Y-142460866D01*
X68866666Y-142440594D01*
X68860744Y-142418674D01*
X68834266Y-142422865D01*
X68798186Y-142440441D01*
X68707862Y-142467382D01*
X68591777Y-142474642D01*
X68469680Y-142462767D01*
X68361321Y-142432305D01*
X68351602Y-142428077D01*
X68252568Y-142358505D01*
X68187281Y-142261789D01*
X68157240Y-142148738D01*
X68159535Y-142108122D01*
X68404633Y-142108122D01*
X68426229Y-142162782D01*
X68490259Y-142201952D01*
X68593565Y-142222974D01*
X68648774Y-142225766D01*
X68740782Y-142218620D01*
X68801941Y-142190848D01*
X68816862Y-142177647D01*
X68857287Y-142105829D01*
X68866666Y-142040686D01*
X68866666Y-141953530D01*
X68745269Y-141953530D01*
X68604153Y-141960722D01*
X68505173Y-141983345D01*
X68442633Y-142022964D01*
X68428631Y-142040628D01*
X68404633Y-142108122D01*
X68159535Y-142108122D01*
X68163941Y-142030157D01*
X68208880Y-141916855D01*
X68270196Y-141840285D01*
X68307332Y-141807181D01*
X68343687Y-141785425D01*
X68390990Y-141772161D01*
X68460973Y-141764528D01*
X68565364Y-141759670D01*
X68606770Y-141758273D01*
X68866666Y-141749780D01*
X68866285Y-141671116D01*
X68856219Y-141588428D01*
X68819829Y-141538431D01*
X68746311Y-141506489D01*
X68744339Y-141505920D01*
X68640105Y-141493361D01*
X68538108Y-141509766D01*
X68462305Y-141549657D01*
X68431890Y-141569354D01*
X68399132Y-141566629D01*
X68348721Y-141538091D01*
X68319119Y-141517950D01*
X68261218Y-141474919D01*
X68225352Y-141442662D01*
X68219597Y-141433427D01*
X68243295Y-141385636D01*
X68313313Y-141328562D01*
X68343725Y-141309305D01*
X68431155Y-141276140D01*
X68548983Y-141257350D01*
X68679866Y-141253129D01*
X68806459Y-141263669D01*
G37*
X68806459Y-141263669D02*
X68911420Y-141289163D01*
X68941761Y-141302669D01*
X69000573Y-141338046D01*
X69045709Y-141377890D01*
X69079106Y-141429120D01*
X69102701Y-141498654D01*
X69118433Y-141593409D01*
X69128239Y-141720305D01*
X69134057Y-141886258D01*
X69136266Y-141997108D01*
X69144396Y-142476471D01*
X69005531Y-142476471D01*
X68921287Y-142472938D01*
X68877884Y-142460866D01*
X68866666Y-142440594D01*
X68860744Y-142418674D01*
X68834266Y-142422865D01*
X68798186Y-142440441D01*
X68707862Y-142467382D01*
X68591777Y-142474642D01*
X68469680Y-142462767D01*
X68361321Y-142432305D01*
X68351602Y-142428077D01*
X68252568Y-142358505D01*
X68187281Y-142261789D01*
X68157240Y-142148738D01*
X68159535Y-142108122D01*
X68404633Y-142108122D01*
X68426229Y-142162782D01*
X68490259Y-142201952D01*
X68593565Y-142222974D01*
X68648774Y-142225766D01*
X68740782Y-142218620D01*
X68801941Y-142190848D01*
X68816862Y-142177647D01*
X68857287Y-142105829D01*
X68866666Y-142040686D01*
X68866666Y-141953530D01*
X68745269Y-141953530D01*
X68604153Y-141960722D01*
X68505173Y-141983345D01*
X68442633Y-142022964D01*
X68428631Y-142040628D01*
X68404633Y-142108122D01*
X68159535Y-142108122D01*
X68163941Y-142030157D01*
X68208880Y-141916855D01*
X68270196Y-141840285D01*
X68307332Y-141807181D01*
X68343687Y-141785425D01*
X68390990Y-141772161D01*
X68460973Y-141764528D01*
X68565364Y-141759670D01*
X68606770Y-141758273D01*
X68866666Y-141749780D01*
X68866285Y-141671116D01*
X68856219Y-141588428D01*
X68819829Y-141538431D01*
X68746311Y-141506489D01*
X68744339Y-141505920D01*
X68640105Y-141493361D01*
X68538108Y-141509766D01*
X68462305Y-141549657D01*
X68431890Y-141569354D01*
X68399132Y-141566629D01*
X68348721Y-141538091D01*
X68319119Y-141517950D01*
X68261218Y-141474919D01*
X68225352Y-141442662D01*
X68219597Y-141433427D01*
X68243295Y-141385636D01*
X68313313Y-141328562D01*
X68343725Y-141309305D01*
X68431155Y-141276140D01*
X68548983Y-141257350D01*
X68679866Y-141253129D01*
X68806459Y-141263669D01*
G36*
X69988446Y-141255883D02*
G01*
X70084177Y-141274755D01*
X70138677Y-141302699D01*
X70196008Y-141349123D01*
X70114441Y-141452111D01*
X70064150Y-141514479D01*
X70030001Y-141544907D01*
X69996063Y-141549555D01*
X69946406Y-141534586D01*
X69923096Y-141526117D01*
X69828063Y-141513622D01*
X69741032Y-141540406D01*
X69677138Y-141600915D01*
X69666759Y-141620208D01*
X69655456Y-141671314D01*
X69646732Y-141765500D01*
X69640997Y-141896089D01*
X69638660Y-142056405D01*
X69638627Y-142079211D01*
X69638627Y-142476471D01*
X69364705Y-142476471D01*
X69364705Y-141256275D01*
X69501666Y-141256275D01*
X69580638Y-141258337D01*
X69621779Y-141267513D01*
X69636992Y-141288290D01*
X69638627Y-141307886D01*
X69638627Y-141359497D01*
X69704240Y-141307886D01*
X69779475Y-141272675D01*
X69880544Y-141255265D01*
X69988446Y-141255883D01*
G37*
X69988446Y-141255883D02*
X70084177Y-141274755D01*
X70138677Y-141302699D01*
X70196008Y-141349123D01*
X70114441Y-141452111D01*
X70064150Y-141514479D01*
X70030001Y-141544907D01*
X69996063Y-141549555D01*
X69946406Y-141534586D01*
X69923096Y-141526117D01*
X69828063Y-141513622D01*
X69741032Y-141540406D01*
X69677138Y-141600915D01*
X69666759Y-141620208D01*
X69655456Y-141671314D01*
X69646732Y-141765500D01*
X69640997Y-141896089D01*
X69638660Y-142056405D01*
X69638627Y-142079211D01*
X69638627Y-142476471D01*
X69364705Y-142476471D01*
X69364705Y-141256275D01*
X69501666Y-141256275D01*
X69580638Y-141258337D01*
X69621779Y-141267513D01*
X69636992Y-141288290D01*
X69638627Y-141307886D01*
X69638627Y-141359497D01*
X69704240Y-141307886D01*
X69779475Y-141272675D01*
X69880544Y-141255265D01*
X69988446Y-141255883D01*
G36*
X70775307Y-141262784D02*
G01*
X70894337Y-141293731D01*
X70994021Y-141357600D01*
X71042288Y-141405313D01*
X71121408Y-141518106D01*
X71166752Y-141648950D01*
X71182330Y-141809792D01*
X71182410Y-141822794D01*
X71182549Y-141953530D01*
X70430091Y-141953530D01*
X70446130Y-142022010D01*
X70475091Y-142084031D01*
X70525778Y-142148654D01*
X70536379Y-142158971D01*
X70627494Y-142214805D01*
X70731400Y-142224275D01*
X70851000Y-142187540D01*
X70871274Y-142177647D01*
X70933456Y-142147574D01*
X70975106Y-142130440D01*
X70982373Y-142128855D01*
X71007740Y-142144242D01*
X71056120Y-142181887D01*
X71080679Y-142202459D01*
X71131570Y-142249714D01*
X71148281Y-142280917D01*
X71136683Y-142309620D01*
X71130483Y-142317468D01*
X71088493Y-142351819D01*
X71019206Y-142393565D01*
X70970882Y-142417935D01*
X70833711Y-142460873D01*
X70681847Y-142474786D01*
X70538024Y-142458300D01*
X70497745Y-142446496D01*
X70373078Y-142379689D01*
X70280671Y-142276892D01*
X70219990Y-142137105D01*
X70190498Y-141959330D01*
X70187260Y-141866373D01*
X70196714Y-141731033D01*
X70435490Y-141731033D01*
X70458584Y-141741038D01*
X70520662Y-141748888D01*
X70610914Y-141753521D01*
X70672058Y-141754314D01*
X70782040Y-141753549D01*
X70851457Y-141749970D01*
X70889538Y-141741649D01*
X70905515Y-141726657D01*
X70908627Y-141704903D01*
X70887278Y-141637892D01*
X70833529Y-141571664D01*
X70762822Y-141520832D01*
X70692089Y-141500038D01*
X70596016Y-141518484D01*
X70512849Y-141571811D01*
X70455186Y-141648677D01*
X70435490Y-141731033D01*
X70196714Y-141731033D01*
X70201028Y-141669291D01*
X70243520Y-141512271D01*
X70315635Y-141394069D01*
X70418273Y-141313440D01*
X70552332Y-141269139D01*
X70624957Y-141260607D01*
X70775307Y-141262784D01*
G37*
X70775307Y-141262784D02*
X70894337Y-141293731D01*
X70994021Y-141357600D01*
X71042288Y-141405313D01*
X71121408Y-141518106D01*
X71166752Y-141648950D01*
X71182330Y-141809792D01*
X71182410Y-141822794D01*
X71182549Y-141953530D01*
X70430091Y-141953530D01*
X70446130Y-142022010D01*
X70475091Y-142084031D01*
X70525778Y-142148654D01*
X70536379Y-142158971D01*
X70627494Y-142214805D01*
X70731400Y-142224275D01*
X70851000Y-142187540D01*
X70871274Y-142177647D01*
X70933456Y-142147574D01*
X70975106Y-142130440D01*
X70982373Y-142128855D01*
X71007740Y-142144242D01*
X71056120Y-142181887D01*
X71080679Y-142202459D01*
X71131570Y-142249714D01*
X71148281Y-142280917D01*
X71136683Y-142309620D01*
X71130483Y-142317468D01*
X71088493Y-142351819D01*
X71019206Y-142393565D01*
X70970882Y-142417935D01*
X70833711Y-142460873D01*
X70681847Y-142474786D01*
X70538024Y-142458300D01*
X70497745Y-142446496D01*
X70373078Y-142379689D01*
X70280671Y-142276892D01*
X70219990Y-142137105D01*
X70190498Y-141959330D01*
X70187260Y-141866373D01*
X70196714Y-141731033D01*
X70435490Y-141731033D01*
X70458584Y-141741038D01*
X70520662Y-141748888D01*
X70610914Y-141753521D01*
X70672058Y-141754314D01*
X70782040Y-141753549D01*
X70851457Y-141749970D01*
X70889538Y-141741649D01*
X70905515Y-141726657D01*
X70908627Y-141704903D01*
X70887278Y-141637892D01*
X70833529Y-141571664D01*
X70762822Y-141520832D01*
X70692089Y-141500038D01*
X70596016Y-141518484D01*
X70512849Y-141571811D01*
X70455186Y-141648677D01*
X70435490Y-141731033D01*
X70196714Y-141731033D01*
X70201028Y-141669291D01*
X70243520Y-141512271D01*
X70315635Y-141394069D01*
X70418273Y-141313440D01*
X70552332Y-141269139D01*
X70624957Y-141260607D01*
X70775307Y-141262784D01*
G36*
X61723247Y-139401568D02*
G01*
X61853522Y-139459163D01*
X61952419Y-139555334D01*
X62020082Y-139690229D01*
X62056655Y-139863996D01*
X62059276Y-139891126D01*
X62061330Y-140082408D01*
X62034699Y-140250073D01*
X61981001Y-140385967D01*
X61952247Y-140429681D01*
X61852091Y-140522198D01*
X61724537Y-140582119D01*
X61581837Y-140606985D01*
X61436240Y-140594339D01*
X61325562Y-140555391D01*
X61230384Y-140489755D01*
X61152594Y-140403699D01*
X61151249Y-140401685D01*
X61119657Y-140348570D01*
X61099127Y-140295160D01*
X61086695Y-140227754D01*
X61079397Y-140132653D01*
X61076182Y-140054666D01*
X61074844Y-139983944D01*
X61323814Y-139983944D01*
X61326247Y-140054348D01*
X61335080Y-140148068D01*
X61350664Y-140208214D01*
X61378766Y-140251006D01*
X61405086Y-140276002D01*
X61498392Y-140328338D01*
X61596020Y-140335333D01*
X61686942Y-140297676D01*
X61732402Y-140255479D01*
X61765162Y-140212956D01*
X61784323Y-140172267D01*
X61792733Y-140119314D01*
X61793237Y-140039997D01*
X61790645Y-139966950D01*
X61785071Y-139862601D01*
X61776234Y-139794920D01*
X61760307Y-139750774D01*
X61733462Y-139717031D01*
X61712189Y-139697746D01*
X61623206Y-139647086D01*
X61527211Y-139644560D01*
X61446719Y-139674567D01*
X61378053Y-139737231D01*
X61337144Y-139840168D01*
X61323814Y-139983944D01*
X61074844Y-139983944D01*
X61073246Y-139899582D01*
X61078260Y-139783600D01*
X61093283Y-139696367D01*
X61120376Y-139627530D01*
X61161600Y-139566737D01*
X61176885Y-139548686D01*
X61272454Y-139458746D01*
X61374961Y-139406211D01*
X61500321Y-139384201D01*
X61561450Y-139382402D01*
X61723247Y-139401568D01*
G37*
X61723247Y-139401568D02*
X61853522Y-139459163D01*
X61952419Y-139555334D01*
X62020082Y-139690229D01*
X62056655Y-139863996D01*
X62059276Y-139891126D01*
X62061330Y-140082408D01*
X62034699Y-140250073D01*
X61981001Y-140385967D01*
X61952247Y-140429681D01*
X61852091Y-140522198D01*
X61724537Y-140582119D01*
X61581837Y-140606985D01*
X61436240Y-140594339D01*
X61325562Y-140555391D01*
X61230384Y-140489755D01*
X61152594Y-140403699D01*
X61151249Y-140401685D01*
X61119657Y-140348570D01*
X61099127Y-140295160D01*
X61086695Y-140227754D01*
X61079397Y-140132653D01*
X61076182Y-140054666D01*
X61074844Y-139983944D01*
X61323814Y-139983944D01*
X61326247Y-140054348D01*
X61335080Y-140148068D01*
X61350664Y-140208214D01*
X61378766Y-140251006D01*
X61405086Y-140276002D01*
X61498392Y-140328338D01*
X61596020Y-140335333D01*
X61686942Y-140297676D01*
X61732402Y-140255479D01*
X61765162Y-140212956D01*
X61784323Y-140172267D01*
X61792733Y-140119314D01*
X61793237Y-140039997D01*
X61790645Y-139966950D01*
X61785071Y-139862601D01*
X61776234Y-139794920D01*
X61760307Y-139750774D01*
X61733462Y-139717031D01*
X61712189Y-139697746D01*
X61623206Y-139647086D01*
X61527211Y-139644560D01*
X61446719Y-139674567D01*
X61378053Y-139737231D01*
X61337144Y-139840168D01*
X61323814Y-139983944D01*
X61074844Y-139983944D01*
X61073246Y-139899582D01*
X61078260Y-139783600D01*
X61093283Y-139696367D01*
X61120376Y-139627530D01*
X61161600Y-139566737D01*
X61176885Y-139548686D01*
X61272454Y-139458746D01*
X61374961Y-139406211D01*
X61500321Y-139384201D01*
X61561450Y-139382402D01*
X61723247Y-139401568D01*
G36*
X64063204Y-139416354D02*
G01*
X64088019Y-139428037D01*
X64173906Y-139490951D01*
X64255121Y-139582769D01*
X64315764Y-139683868D01*
X64333012Y-139730349D01*
X64348749Y-139813376D01*
X64358133Y-139913713D01*
X64359272Y-139955147D01*
X64359411Y-140085882D01*
X63606953Y-140085882D01*
X63622993Y-140154363D01*
X63662363Y-140235355D01*
X63731194Y-140305351D01*
X63813081Y-140350441D01*
X63865263Y-140359804D01*
X63936029Y-140348441D01*
X64020460Y-140319943D01*
X64049142Y-140306831D01*
X64155209Y-140253858D01*
X64245728Y-140322901D01*
X64297961Y-140369597D01*
X64325753Y-140408140D01*
X64327160Y-140419452D01*
X64302332Y-140446868D01*
X64247917Y-140488532D01*
X64198528Y-140521037D01*
X64065252Y-140579468D01*
X63915839Y-140605915D01*
X63767751Y-140599039D01*
X63649705Y-140563096D01*
X63528018Y-140486101D01*
X63441540Y-140384728D01*
X63387441Y-140253570D01*
X63362891Y-140087224D01*
X63360714Y-140011108D01*
X63369427Y-139836685D01*
X63370497Y-139831611D01*
X63619827Y-139831611D01*
X63626694Y-139847968D01*
X63654917Y-139856988D01*
X63713127Y-139860854D01*
X63809958Y-139861749D01*
X63847243Y-139861765D01*
X63960683Y-139860413D01*
X64032622Y-139855505D01*
X64071313Y-139845760D01*
X64085005Y-139829899D01*
X64085490Y-139824805D01*
X64069863Y-139784326D01*
X64030753Y-139727621D01*
X64013939Y-139707766D01*
X63951519Y-139651611D01*
X63886453Y-139629532D01*
X63851397Y-139627686D01*
X63756558Y-139650766D01*
X63677027Y-139712759D01*
X63626577Y-139802802D01*
X63625683Y-139805735D01*
X63619827Y-139831611D01*
X63370497Y-139831611D01*
X63398399Y-139699343D01*
X63450590Y-139589461D01*
X63514421Y-139511461D01*
X63632433Y-139426882D01*
X63771158Y-139381686D01*
X63918710Y-139377600D01*
X64063204Y-139416354D01*
G37*
X64063204Y-139416354D02*
X64088019Y-139428037D01*
X64173906Y-139490951D01*
X64255121Y-139582769D01*
X64315764Y-139683868D01*
X64333012Y-139730349D01*
X64348749Y-139813376D01*
X64358133Y-139913713D01*
X64359272Y-139955147D01*
X64359411Y-140085882D01*
X63606953Y-140085882D01*
X63622993Y-140154363D01*
X63662363Y-140235355D01*
X63731194Y-140305351D01*
X63813081Y-140350441D01*
X63865263Y-140359804D01*
X63936029Y-140348441D01*
X64020460Y-140319943D01*
X64049142Y-140306831D01*
X64155209Y-140253858D01*
X64245728Y-140322901D01*
X64297961Y-140369597D01*
X64325753Y-140408140D01*
X64327160Y-140419452D01*
X64302332Y-140446868D01*
X64247917Y-140488532D01*
X64198528Y-140521037D01*
X64065252Y-140579468D01*
X63915839Y-140605915D01*
X63767751Y-140599039D01*
X63649705Y-140563096D01*
X63528018Y-140486101D01*
X63441540Y-140384728D01*
X63387441Y-140253570D01*
X63362891Y-140087224D01*
X63360714Y-140011108D01*
X63369427Y-139836685D01*
X63370497Y-139831611D01*
X63619827Y-139831611D01*
X63626694Y-139847968D01*
X63654917Y-139856988D01*
X63713127Y-139860854D01*
X63809958Y-139861749D01*
X63847243Y-139861765D01*
X63960683Y-139860413D01*
X64032622Y-139855505D01*
X64071313Y-139845760D01*
X64085005Y-139829899D01*
X64085490Y-139824805D01*
X64069863Y-139784326D01*
X64030753Y-139727621D01*
X64013939Y-139707766D01*
X63951519Y-139651611D01*
X63886453Y-139629532D01*
X63851397Y-139627686D01*
X63756558Y-139650766D01*
X63677027Y-139712759D01*
X63626577Y-139802802D01*
X63625683Y-139805735D01*
X63619827Y-139831611D01*
X63370497Y-139831611D01*
X63398399Y-139699343D01*
X63450590Y-139589461D01*
X63514421Y-139511461D01*
X63632433Y-139426882D01*
X63771158Y-139381686D01*
X63918710Y-139377600D01*
X64063204Y-139416354D01*
G36*
X66777759Y-139384345D02*
G01*
X66872059Y-139402229D01*
X66969890Y-139439633D01*
X66980343Y-139444402D01*
X67054531Y-139483412D01*
X67105910Y-139519664D01*
X67122517Y-139542887D01*
X67106702Y-139580761D01*
X67068288Y-139636644D01*
X67051237Y-139657505D01*
X66980969Y-139739618D01*
X66890379Y-139686168D01*
X66804164Y-139650561D01*
X66704549Y-139631529D01*
X66609019Y-139630326D01*
X66535061Y-139648210D01*
X66517312Y-139659373D01*
X66483512Y-139710553D01*
X66479404Y-139769509D01*
X66504696Y-139815567D01*
X66519656Y-139824499D01*
X66564486Y-139835592D01*
X66643286Y-139848630D01*
X66740426Y-139861088D01*
X66758346Y-139863042D01*
X66914365Y-139890030D01*
X67027523Y-139935873D01*
X67102569Y-140004803D01*
X67144253Y-140101054D01*
X67157238Y-140218617D01*
X67139299Y-140352254D01*
X67081050Y-140457195D01*
X66982255Y-140533630D01*
X66842682Y-140581748D01*
X66687745Y-140600732D01*
X66561398Y-140600504D01*
X66458913Y-140583262D01*
X66388921Y-140559457D01*
X66300483Y-140517978D01*
X66218754Y-140469842D01*
X66189705Y-140448655D01*
X66115000Y-140387676D01*
X66205098Y-140296508D01*
X66295196Y-140205339D01*
X66397632Y-140273128D01*
X66500374Y-140324042D01*
X66610087Y-140350673D01*
X66715551Y-140353483D01*
X66805546Y-140332935D01*
X66868854Y-140289493D01*
X66889296Y-140252838D01*
X66886229Y-140194053D01*
X66835434Y-140149099D01*
X66737048Y-140118057D01*
X66629256Y-140103710D01*
X66463365Y-140076337D01*
X66340124Y-140024693D01*
X66257886Y-139947266D01*
X66215001Y-139842544D01*
X66209060Y-139718387D01*
X66238406Y-139588702D01*
X66305309Y-139490677D01*
X66410371Y-139423866D01*
X66554190Y-139387820D01*
X66660738Y-139380754D01*
X66777759Y-139384345D01*
G37*
X66777759Y-139384345D02*
X66872059Y-139402229D01*
X66969890Y-139439633D01*
X66980343Y-139444402D01*
X67054531Y-139483412D01*
X67105910Y-139519664D01*
X67122517Y-139542887D01*
X67106702Y-139580761D01*
X67068288Y-139636644D01*
X67051237Y-139657505D01*
X66980969Y-139739618D01*
X66890379Y-139686168D01*
X66804164Y-139650561D01*
X66704549Y-139631529D01*
X66609019Y-139630326D01*
X66535061Y-139648210D01*
X66517312Y-139659373D01*
X66483512Y-139710553D01*
X66479404Y-139769509D01*
X66504696Y-139815567D01*
X66519656Y-139824499D01*
X66564486Y-139835592D01*
X66643286Y-139848630D01*
X66740426Y-139861088D01*
X66758346Y-139863042D01*
X66914365Y-139890030D01*
X67027523Y-139935873D01*
X67102569Y-140004803D01*
X67144253Y-140101054D01*
X67157238Y-140218617D01*
X67139299Y-140352254D01*
X67081050Y-140457195D01*
X66982255Y-140533630D01*
X66842682Y-140581748D01*
X66687745Y-140600732D01*
X66561398Y-140600504D01*
X66458913Y-140583262D01*
X66388921Y-140559457D01*
X66300483Y-140517978D01*
X66218754Y-140469842D01*
X66189705Y-140448655D01*
X66115000Y-140387676D01*
X66205098Y-140296508D01*
X66295196Y-140205339D01*
X66397632Y-140273128D01*
X66500374Y-140324042D01*
X66610087Y-140350673D01*
X66715551Y-140353483D01*
X66805546Y-140332935D01*
X66868854Y-140289493D01*
X66889296Y-140252838D01*
X66886229Y-140194053D01*
X66835434Y-140149099D01*
X66737048Y-140118057D01*
X66629256Y-140103710D01*
X66463365Y-140076337D01*
X66340124Y-140024693D01*
X66257886Y-139947266D01*
X66215001Y-139842544D01*
X66209060Y-139718387D01*
X66238406Y-139588702D01*
X66305309Y-139490677D01*
X66410371Y-139423866D01*
X66554190Y-139387820D01*
X66660738Y-139380754D01*
X66777759Y-139384345D01*
G36*
X67959547Y-139403364D02*
G01*
X68085502Y-139471959D01*
X68184047Y-139580245D01*
X68230478Y-139668315D01*
X68250412Y-139746101D01*
X68263328Y-139856993D01*
X68268863Y-139984738D01*
X68266654Y-140113084D01*
X68256337Y-140225779D01*
X68244286Y-140285969D01*
X68203634Y-140368311D01*
X68133230Y-140455770D01*
X68048382Y-140532251D01*
X67964397Y-140581655D01*
X67962349Y-140582439D01*
X67858134Y-140604027D01*
X67734627Y-140604562D01*
X67617261Y-140584908D01*
X67571942Y-140569155D01*
X67455220Y-140502966D01*
X67371624Y-140416246D01*
X67316701Y-140301438D01*
X67285995Y-140150982D01*
X67279047Y-140072173D01*
X67279933Y-139973145D01*
X67546862Y-139973145D01*
X67555854Y-140117645D01*
X67581736Y-140227760D01*
X67622868Y-140298116D01*
X67652172Y-140318235D01*
X67727251Y-140332265D01*
X67816494Y-140328111D01*
X67893650Y-140307922D01*
X67913883Y-140296815D01*
X67967265Y-140232123D01*
X68002500Y-140133119D01*
X68017498Y-140012632D01*
X68010172Y-139883494D01*
X67993799Y-139805775D01*
X67946790Y-139715771D01*
X67872582Y-139659509D01*
X67783209Y-139640057D01*
X67690707Y-139660481D01*
X67619653Y-139710437D01*
X67582312Y-139751655D01*
X67560518Y-139792281D01*
X67550130Y-139847264D01*
X67547006Y-139931549D01*
X67546862Y-139973145D01*
X67279933Y-139973145D01*
X67280930Y-139861874D01*
X67315180Y-139689423D01*
X67381802Y-139554814D01*
X67480799Y-139458040D01*
X67612175Y-139399094D01*
X67640385Y-139392259D01*
X67809926Y-139376213D01*
X67959547Y-139403364D01*
G37*
X67959547Y-139403364D02*
X68085502Y-139471959D01*
X68184047Y-139580245D01*
X68230478Y-139668315D01*
X68250412Y-139746101D01*
X68263328Y-139856993D01*
X68268863Y-139984738D01*
X68266654Y-140113084D01*
X68256337Y-140225779D01*
X68244286Y-140285969D01*
X68203634Y-140368311D01*
X68133230Y-140455770D01*
X68048382Y-140532251D01*
X67964397Y-140581655D01*
X67962349Y-140582439D01*
X67858134Y-140604027D01*
X67734627Y-140604562D01*
X67617261Y-140584908D01*
X67571942Y-140569155D01*
X67455220Y-140502966D01*
X67371624Y-140416246D01*
X67316701Y-140301438D01*
X67285995Y-140150982D01*
X67279047Y-140072173D01*
X67279933Y-139973145D01*
X67546862Y-139973145D01*
X67555854Y-140117645D01*
X67581736Y-140227760D01*
X67622868Y-140298116D01*
X67652172Y-140318235D01*
X67727251Y-140332265D01*
X67816494Y-140328111D01*
X67893650Y-140307922D01*
X67913883Y-140296815D01*
X67967265Y-140232123D01*
X68002500Y-140133119D01*
X68017498Y-140012632D01*
X68010172Y-139883494D01*
X67993799Y-139805775D01*
X67946790Y-139715771D01*
X67872582Y-139659509D01*
X67783209Y-139640057D01*
X67690707Y-139660481D01*
X67619653Y-139710437D01*
X67582312Y-139751655D01*
X67560518Y-139792281D01*
X67550130Y-139847264D01*
X67547006Y-139931549D01*
X67546862Y-139973145D01*
X67279933Y-139973145D01*
X67280930Y-139861874D01*
X67315180Y-139689423D01*
X67381802Y-139554814D01*
X67480799Y-139458040D01*
X67612175Y-139399094D01*
X67640385Y-139392259D01*
X67809926Y-139376213D01*
X67959547Y-139403364D01*
G36*
X68717254Y-139776245D02*
G01*
X68719608Y-139958879D01*
X68728207Y-140097600D01*
X68745360Y-140198147D01*
X68773374Y-140266254D01*
X68814557Y-140307659D01*
X68871217Y-140328097D01*
X68941372Y-140333318D01*
X69014848Y-140327468D01*
X69070657Y-140306093D01*
X69111109Y-140263458D01*
X69138509Y-140193825D01*
X69155167Y-140091460D01*
X69163389Y-139950624D01*
X69165490Y-139776245D01*
X69165490Y-139388628D01*
X69439411Y-139388628D01*
X69439411Y-140583922D01*
X69302451Y-140583922D01*
X69219884Y-140580576D01*
X69177368Y-140568826D01*
X69165490Y-140546520D01*
X69158336Y-140526654D01*
X69129865Y-140530857D01*
X69072476Y-140558971D01*
X68940945Y-140602342D01*
X68801438Y-140599270D01*
X68667765Y-140552174D01*
X68604108Y-140514971D01*
X68555553Y-140474691D01*
X68520081Y-140424291D01*
X68495674Y-140356729D01*
X68480313Y-140264965D01*
X68471982Y-140141955D01*
X68468662Y-139980659D01*
X68468235Y-139855928D01*
X68468235Y-139388628D01*
X68717254Y-139388628D01*
X68717254Y-139776245D01*
G37*
X68717254Y-139776245D02*
X68719608Y-139958879D01*
X68728207Y-140097600D01*
X68745360Y-140198147D01*
X68773374Y-140266254D01*
X68814557Y-140307659D01*
X68871217Y-140328097D01*
X68941372Y-140333318D01*
X69014848Y-140327468D01*
X69070657Y-140306093D01*
X69111109Y-140263458D01*
X69138509Y-140193825D01*
X69155167Y-140091460D01*
X69163389Y-139950624D01*
X69165490Y-139776245D01*
X69165490Y-139388628D01*
X69439411Y-139388628D01*
X69439411Y-140583922D01*
X69302451Y-140583922D01*
X69219884Y-140580576D01*
X69177368Y-140568826D01*
X69165490Y-140546520D01*
X69158336Y-140526654D01*
X69129865Y-140530857D01*
X69072476Y-140558971D01*
X68940945Y-140602342D01*
X68801438Y-140599270D01*
X68667765Y-140552174D01*
X68604108Y-140514971D01*
X68555553Y-140474691D01*
X68520081Y-140424291D01*
X68495674Y-140356729D01*
X68480313Y-140264965D01*
X68471982Y-140141955D01*
X68468662Y-139980659D01*
X68468235Y-139855928D01*
X68468235Y-139388628D01*
X68717254Y-139388628D01*
X68717254Y-139776245D01*
G36*
X71140976Y-139399056D02*
G01*
X71285256Y-139460348D01*
X71330699Y-139490185D01*
X71388779Y-139536036D01*
X71425238Y-139572089D01*
X71431568Y-139583832D01*
X71413693Y-139609889D01*
X71367950Y-139654105D01*
X71331328Y-139684965D01*
X71231088Y-139765520D01*
X71151935Y-139698918D01*
X71090769Y-139655921D01*
X71031129Y-139641079D01*
X70962872Y-139644704D01*
X70854482Y-139671652D01*
X70779872Y-139727587D01*
X70734530Y-139818014D01*
X70713947Y-139948435D01*
X70713942Y-139948517D01*
X70715722Y-140094290D01*
X70743387Y-140201245D01*
X70798571Y-140274064D01*
X70836192Y-140298723D01*
X70936105Y-140329431D01*
X71042822Y-140329449D01*
X71135669Y-140299655D01*
X71157647Y-140285098D01*
X71212765Y-140247914D01*
X71255859Y-140241820D01*
X71302335Y-140269496D01*
X71353716Y-140319205D01*
X71435046Y-140403116D01*
X71344749Y-140477546D01*
X71205236Y-140561549D01*
X71047912Y-140602947D01*
X70883503Y-140599950D01*
X70775531Y-140572500D01*
X70649331Y-140504620D01*
X70548401Y-140397831D01*
X70502548Y-140322451D01*
X70465410Y-140214297D01*
X70446827Y-140077318D01*
X70446684Y-139928864D01*
X70464865Y-139786281D01*
X70501255Y-139666918D01*
X70506987Y-139654680D01*
X70591865Y-139534655D01*
X70706782Y-139447267D01*
X70842659Y-139394329D01*
X70990417Y-139377654D01*
X71140976Y-139399056D01*
G37*
X71140976Y-139399056D02*
X71285256Y-139460348D01*
X71330699Y-139490185D01*
X71388779Y-139536036D01*
X71425238Y-139572089D01*
X71431568Y-139583832D01*
X71413693Y-139609889D01*
X71367950Y-139654105D01*
X71331328Y-139684965D01*
X71231088Y-139765520D01*
X71151935Y-139698918D01*
X71090769Y-139655921D01*
X71031129Y-139641079D01*
X70962872Y-139644704D01*
X70854482Y-139671652D01*
X70779872Y-139727587D01*
X70734530Y-139818014D01*
X70713947Y-139948435D01*
X70713942Y-139948517D01*
X70715722Y-140094290D01*
X70743387Y-140201245D01*
X70798571Y-140274064D01*
X70836192Y-140298723D01*
X70936105Y-140329431D01*
X71042822Y-140329449D01*
X71135669Y-140299655D01*
X71157647Y-140285098D01*
X71212765Y-140247914D01*
X71255859Y-140241820D01*
X71302335Y-140269496D01*
X71353716Y-140319205D01*
X71435046Y-140403116D01*
X71344749Y-140477546D01*
X71205236Y-140561549D01*
X71047912Y-140602947D01*
X70883503Y-140599950D01*
X70775531Y-140572500D01*
X70649331Y-140504620D01*
X70548401Y-140397831D01*
X70502548Y-140322451D01*
X70465410Y-140214297D01*
X70446827Y-140077318D01*
X70446684Y-139928864D01*
X70464865Y-139786281D01*
X70501255Y-139666918D01*
X70506987Y-139654680D01*
X70591865Y-139534655D01*
X70706782Y-139447267D01*
X70842659Y-139394329D01*
X70990417Y-139377654D01*
X71140976Y-139399056D01*
G36*
X72053287Y-139384355D02*
G01*
X72117051Y-139399845D01*
X72239300Y-139456569D01*
X72343834Y-139543202D01*
X72416180Y-139647074D01*
X72426119Y-139670396D01*
X72439754Y-139731484D01*
X72449298Y-139821853D01*
X72452549Y-139913190D01*
X72452549Y-140085882D01*
X72091470Y-140085882D01*
X71942546Y-140086445D01*
X71837632Y-140089864D01*
X71770937Y-140098731D01*
X71736666Y-140115641D01*
X71729028Y-140143189D01*
X71742229Y-140183968D01*
X71765877Y-140231683D01*
X71831843Y-140311314D01*
X71923512Y-140350987D01*
X72035555Y-140349695D01*
X72162472Y-140306514D01*
X72272158Y-140253224D01*
X72363173Y-140325191D01*
X72454188Y-140397157D01*
X72368563Y-140476269D01*
X72254250Y-140551017D01*
X72113666Y-140596084D01*
X71962449Y-140608696D01*
X71816236Y-140586079D01*
X71792647Y-140578405D01*
X71664141Y-140511296D01*
X71568551Y-140411247D01*
X71503861Y-140275271D01*
X71468057Y-140100380D01*
X71467640Y-140096632D01*
X71464434Y-139906032D01*
X71477393Y-139838035D01*
X71730392Y-139838035D01*
X71753627Y-139848491D01*
X71816710Y-139856500D01*
X71909706Y-139861073D01*
X71968638Y-139861765D01*
X72078537Y-139861332D01*
X72147252Y-139858578D01*
X72183405Y-139851321D01*
X72195615Y-139837376D01*
X72192504Y-139814562D01*
X72189894Y-139805735D01*
X72145344Y-139722800D01*
X72075279Y-139655960D01*
X72013446Y-139626589D01*
X71931301Y-139628362D01*
X71848062Y-139664990D01*
X71778238Y-139725634D01*
X71736337Y-139799456D01*
X71730392Y-139838035D01*
X71477393Y-139838035D01*
X71496385Y-139738395D01*
X71559773Y-139597711D01*
X71650878Y-139487974D01*
X71765978Y-139413174D01*
X71901355Y-139377304D01*
X72053287Y-139384355D01*
G37*
X72053287Y-139384355D02*
X72117051Y-139399845D01*
X72239300Y-139456569D01*
X72343834Y-139543202D01*
X72416180Y-139647074D01*
X72426119Y-139670396D01*
X72439754Y-139731484D01*
X72449298Y-139821853D01*
X72452549Y-139913190D01*
X72452549Y-140085882D01*
X72091470Y-140085882D01*
X71942546Y-140086445D01*
X71837632Y-140089864D01*
X71770937Y-140098731D01*
X71736666Y-140115641D01*
X71729028Y-140143189D01*
X71742229Y-140183968D01*
X71765877Y-140231683D01*
X71831843Y-140311314D01*
X71923512Y-140350987D01*
X72035555Y-140349695D01*
X72162472Y-140306514D01*
X72272158Y-140253224D01*
X72363173Y-140325191D01*
X72454188Y-140397157D01*
X72368563Y-140476269D01*
X72254250Y-140551017D01*
X72113666Y-140596084D01*
X71962449Y-140608696D01*
X71816236Y-140586079D01*
X71792647Y-140578405D01*
X71664141Y-140511296D01*
X71568551Y-140411247D01*
X71503861Y-140275271D01*
X71468057Y-140100380D01*
X71467640Y-140096632D01*
X71464434Y-139906032D01*
X71477393Y-139838035D01*
X71730392Y-139838035D01*
X71753627Y-139848491D01*
X71816710Y-139856500D01*
X71909706Y-139861073D01*
X71968638Y-139861765D01*
X72078537Y-139861332D01*
X72147252Y-139858578D01*
X72183405Y-139851321D01*
X72195615Y-139837376D01*
X72192504Y-139814562D01*
X72189894Y-139805735D01*
X72145344Y-139722800D01*
X72075279Y-139655960D01*
X72013446Y-139626589D01*
X71931301Y-139628362D01*
X71848062Y-139664990D01*
X71778238Y-139725634D01*
X71736337Y-139799456D01*
X71730392Y-139838035D01*
X71477393Y-139838035D01*
X71496385Y-139738395D01*
X71559773Y-139597711D01*
X71650878Y-139487974D01*
X71765978Y-139413174D01*
X71901355Y-139377304D01*
X72053287Y-139384355D01*
G36*
X65256760Y-139409199D02*
G01*
X65318736Y-139438802D01*
X65378759Y-139481561D01*
X65424486Y-139530775D01*
X65457793Y-139593544D01*
X65480555Y-139676971D01*
X65494647Y-139788159D01*
X65501942Y-139934209D01*
X65504318Y-140122223D01*
X65504355Y-140141912D01*
X65504902Y-140583922D01*
X65230980Y-140583922D01*
X65230980Y-140176435D01*
X65230785Y-140025471D01*
X65229436Y-139916056D01*
X65225788Y-139839933D01*
X65218696Y-139788848D01*
X65207013Y-139754545D01*
X65189594Y-139728768D01*
X65165329Y-139703298D01*
X65080435Y-139648571D01*
X64987761Y-139638416D01*
X64899473Y-139673017D01*
X64868770Y-139698770D01*
X64846229Y-139722982D01*
X64830046Y-139748912D01*
X64819168Y-139784708D01*
X64812542Y-139838519D01*
X64809115Y-139918493D01*
X64807834Y-140032779D01*
X64807647Y-140171907D01*
X64807647Y-140583922D01*
X64533725Y-140583922D01*
X64533725Y-139388628D01*
X64670686Y-139388628D01*
X64752916Y-139391879D01*
X64795340Y-139403426D01*
X64807641Y-139425952D01*
X64807647Y-139426620D01*
X64813354Y-139448681D01*
X64838527Y-139446177D01*
X64888578Y-139421937D01*
X65002094Y-139386271D01*
X65131945Y-139382305D01*
X65256760Y-139409199D01*
G37*
X65256760Y-139409199D02*
X65318736Y-139438802D01*
X65378759Y-139481561D01*
X65424486Y-139530775D01*
X65457793Y-139593544D01*
X65480555Y-139676971D01*
X65494647Y-139788159D01*
X65501942Y-139934209D01*
X65504318Y-140122223D01*
X65504355Y-140141912D01*
X65504902Y-140583922D01*
X65230980Y-140583922D01*
X65230980Y-140176435D01*
X65230785Y-140025471D01*
X65229436Y-139916056D01*
X65225788Y-139839933D01*
X65218696Y-139788848D01*
X65207013Y-139754545D01*
X65189594Y-139728768D01*
X65165329Y-139703298D01*
X65080435Y-139648571D01*
X64987761Y-139638416D01*
X64899473Y-139673017D01*
X64868770Y-139698770D01*
X64846229Y-139722982D01*
X64830046Y-139748912D01*
X64819168Y-139784708D01*
X64812542Y-139838519D01*
X64809115Y-139918493D01*
X64807834Y-140032779D01*
X64807647Y-140171907D01*
X64807647Y-140583922D01*
X64533725Y-140583922D01*
X64533725Y-139388628D01*
X64670686Y-139388628D01*
X64752916Y-139391879D01*
X64795340Y-139403426D01*
X64807641Y-139425952D01*
X64807647Y-139426620D01*
X64813354Y-139448681D01*
X64838527Y-139446177D01*
X64888578Y-139421937D01*
X65002094Y-139386271D01*
X65131945Y-139382305D01*
X65256760Y-139409199D01*
G36*
X70313637Y-139387472D02*
G01*
X70399290Y-139413641D01*
X70454437Y-139446707D01*
X70472401Y-139472855D01*
X70467457Y-139503852D01*
X70435372Y-139552547D01*
X70408243Y-139587035D01*
X70352317Y-139649383D01*
X70310299Y-139675615D01*
X70274480Y-139673903D01*
X70168224Y-139646863D01*
X70090189Y-139648091D01*
X70026820Y-139678735D01*
X70005546Y-139696670D01*
X69937451Y-139759779D01*
X69937451Y-140583922D01*
X69663529Y-140583922D01*
X69663529Y-139388628D01*
X69800490Y-139388628D01*
X69882719Y-139391879D01*
X69925144Y-139403426D01*
X69937445Y-139425952D01*
X69937451Y-139426620D01*
X69943260Y-139450215D01*
X69969531Y-139447138D01*
X70005931Y-139430115D01*
X70081111Y-139398439D01*
X70142158Y-139379381D01*
X70220708Y-139374496D01*
X70313637Y-139387472D01*
G37*
X70313637Y-139387472D02*
X70399290Y-139413641D01*
X70454437Y-139446707D01*
X70472401Y-139472855D01*
X70467457Y-139503852D01*
X70435372Y-139552547D01*
X70408243Y-139587035D01*
X70352317Y-139649383D01*
X70310299Y-139675615D01*
X70274480Y-139673903D01*
X70168224Y-139646863D01*
X70090189Y-139648091D01*
X70026820Y-139678735D01*
X70005546Y-139696670D01*
X69937451Y-139759779D01*
X69937451Y-140583922D01*
X69663529Y-140583922D01*
X69663529Y-139388628D01*
X69800490Y-139388628D01*
X69882719Y-139391879D01*
X69925144Y-139403426D01*
X69937445Y-139425952D01*
X69937451Y-139426620D01*
X69943260Y-139450215D01*
X69969531Y-139447138D01*
X70005931Y-139430115D01*
X70081111Y-139398439D01*
X70142158Y-139379381D01*
X70220708Y-139374496D01*
X70313637Y-139387472D01*
G36*
X67496535Y-131133172D02*
G01*
X67609117Y-131730363D01*
X68024531Y-131901610D01*
X68439944Y-132072857D01*
X68938302Y-131733978D01*
X69077868Y-131639622D01*
X69204028Y-131555375D01*
X69310895Y-131485083D01*
X69392582Y-131432592D01*
X69443201Y-131401749D01*
X69456986Y-131395098D01*
X69481820Y-131412203D01*
X69534888Y-131459489D01*
X69610240Y-131530917D01*
X69701929Y-131620445D01*
X69804007Y-131722034D01*
X69910526Y-131829643D01*
X70015536Y-131937232D01*
X70113091Y-132038760D01*
X70197242Y-132128186D01*
X70262040Y-132199471D01*
X70301538Y-132246573D01*
X70310980Y-132262337D01*
X70297391Y-132291398D01*
X70259293Y-132355066D01*
X70200694Y-132447112D01*
X70125597Y-132561309D01*
X70038009Y-132691429D01*
X69987254Y-132765646D01*
X69894745Y-132901167D01*
X69812540Y-133023461D01*
X69744630Y-133126440D01*
X69695000Y-133204018D01*
X69667640Y-133250106D01*
X69663529Y-133259792D01*
X69672849Y-133287319D01*
X69698254Y-133351473D01*
X69735911Y-133443235D01*
X69781986Y-133553584D01*
X69832646Y-133673500D01*
X69884059Y-133793964D01*
X69932389Y-133905954D01*
X69973806Y-134000452D01*
X70004474Y-134068437D01*
X70020562Y-134100888D01*
X70021511Y-134102165D01*
X70046772Y-134108362D01*
X70114046Y-134122185D01*
X70216360Y-134142277D01*
X70346741Y-134167279D01*
X70498216Y-134195831D01*
X70586594Y-134212296D01*
X70748452Y-134243114D01*
X70894649Y-134272439D01*
X71017787Y-134298666D01*
X71110469Y-134320191D01*
X71165301Y-134335410D01*
X71176323Y-134340238D01*
X71187119Y-134372919D01*
X71195829Y-134446730D01*
X71202460Y-134553037D01*
X71207018Y-134683212D01*
X71209509Y-134828621D01*
X71209938Y-134980635D01*
X71208311Y-135130622D01*
X71204635Y-135269951D01*
X71198915Y-135389990D01*
X71191158Y-135482110D01*
X71181368Y-135537677D01*
X71175496Y-135549245D01*
X71140399Y-135563110D01*
X71066028Y-135582933D01*
X70962223Y-135606384D01*
X70838819Y-135631136D01*
X70795741Y-135639143D01*
X70588047Y-135677186D01*
X70423984Y-135707824D01*
X70298130Y-135732274D01*
X70205065Y-135751754D01*
X70139367Y-135767481D01*
X70095617Y-135780673D01*
X70068392Y-135792549D01*
X70052272Y-135804325D01*
X70050017Y-135806653D01*
X70027503Y-135844145D01*
X69993158Y-135917110D01*
X69950411Y-136016612D01*
X69902692Y-136133718D01*
X69853430Y-136259493D01*
X69806055Y-136385002D01*
X69763995Y-136501310D01*
X69730680Y-136599484D01*
X69709541Y-136670588D01*
X69704005Y-136705687D01*
X69704466Y-136706917D01*
X69723223Y-136735606D01*
X69765776Y-136798730D01*
X69827653Y-136889718D01*
X69904382Y-137002000D01*
X69991491Y-137129005D01*
X70016299Y-137165098D01*
X70104753Y-137295948D01*
X70182588Y-137415336D01*
X70245566Y-137516407D01*
X70289445Y-137592304D01*
X70309985Y-137636172D01*
X70310980Y-137641562D01*
X70293722Y-137669889D01*
X70246036Y-137726006D01*
X70174050Y-137803882D01*
X70083897Y-137897485D01*
X69981705Y-138000786D01*
X69873606Y-138107751D01*
X69765728Y-138212351D01*
X69664204Y-138308554D01*
X69575162Y-138390329D01*
X69504733Y-138451645D01*
X69459047Y-138486471D01*
X69446409Y-138492157D01*
X69416991Y-138478765D01*
X69356761Y-138442644D01*
X69275530Y-138389881D01*
X69213030Y-138347412D01*
X69099785Y-138269485D01*
X68965674Y-138177729D01*
X68831155Y-138086120D01*
X68758833Y-138037091D01*
X68514038Y-137871515D01*
X68308551Y-137982620D01*
X68214936Y-138031293D01*
X68135330Y-138069126D01*
X68081467Y-138090703D01*
X68067757Y-138093706D01*
X68051270Y-138071538D01*
X68018745Y-138008894D01*
X67972609Y-137911554D01*
X67915290Y-137785294D01*
X67849216Y-137635895D01*
X67776815Y-137469133D01*
X67700516Y-137290787D01*
X67622746Y-137106636D01*
X67545934Y-136922457D01*
X67472506Y-136744030D01*
X67404892Y-136577132D01*
X67345520Y-136427542D01*
X67296816Y-136301038D01*
X67261210Y-136203399D01*
X67241130Y-136140402D01*
X67237900Y-136118766D01*
X67263496Y-136091169D01*
X67319539Y-136046370D01*
X67394311Y-135993679D01*
X67400587Y-135989510D01*
X67593845Y-135834814D01*
X67749674Y-135654336D01*
X67866724Y-135453847D01*
X67943645Y-135239119D01*
X67979086Y-135015922D01*
X67971697Y-134790026D01*
X67920127Y-134567204D01*
X67823026Y-134353224D01*
X67794458Y-134306409D01*
X67645868Y-134117363D01*
X67470327Y-133965557D01*
X67273910Y-133851779D01*
X67062693Y-133776820D01*
X66842753Y-133741467D01*
X66620163Y-133746512D01*
X66401001Y-133792744D01*
X66191342Y-133880951D01*
X65997261Y-134011924D01*
X65937226Y-134065082D01*
X65784435Y-134231484D01*
X65673097Y-134406657D01*
X65596723Y-134603011D01*
X65554187Y-134797462D01*
X65543686Y-135016087D01*
X65578701Y-135235797D01*
X65655673Y-135449165D01*
X65771047Y-135648767D01*
X65921266Y-135827174D01*
X66102773Y-135976962D01*
X66126627Y-135992751D01*
X66202201Y-136044457D01*
X66259651Y-136089257D01*
X66287117Y-136117862D01*
X66287517Y-136118766D01*
X66281620Y-136149709D01*
X66258245Y-136219936D01*
X66219821Y-136323670D01*
X66168777Y-136455135D01*
X66107542Y-136608552D01*
X66038544Y-136778146D01*
X65964214Y-136958138D01*
X65886978Y-137142753D01*
X65809268Y-137326213D01*
X65733511Y-137502741D01*
X65662137Y-137666559D01*
X65597574Y-137811892D01*
X65542252Y-137932962D01*
X65498600Y-138023992D01*
X65469046Y-138079205D01*
X65457144Y-138093706D01*
X65420777Y-138082414D01*
X65352730Y-138052130D01*
X65264737Y-138008265D01*
X65216351Y-137982620D01*
X65010863Y-137871515D01*
X64766068Y-138037091D01*
X64641106Y-138121915D01*
X64504295Y-138215261D01*
X64376089Y-138303153D01*
X64311871Y-138347412D01*
X64221551Y-138408063D01*
X64145071Y-138456126D01*
X64092407Y-138485515D01*
X64075302Y-138491727D01*
X64050405Y-138474968D01*
X63995305Y-138428181D01*
X63915343Y-138356225D01*
X63815861Y-138263957D01*
X63702200Y-138156235D01*
X63630315Y-138087071D01*
X63504551Y-137963502D01*
X63395863Y-137852979D01*
X63308645Y-137760230D01*
X63247289Y-137689982D01*
X63216191Y-137646965D01*
X63213208Y-137638235D01*
X63227053Y-137605029D01*
X63265312Y-137537887D01*
X63323742Y-137443608D01*
X63398097Y-137328990D01*
X63484135Y-137200828D01*
X63508603Y-137165098D01*
X63597755Y-137035234D01*
X63677738Y-136918314D01*
X63744080Y-136820907D01*
X63792311Y-136749584D01*
X63817957Y-136710915D01*
X63820435Y-136706917D01*
X63816729Y-136676100D01*
X63797061Y-136608344D01*
X63764860Y-136512584D01*
X63723555Y-136397754D01*
X63676575Y-136272789D01*
X63627349Y-136146624D01*
X63579308Y-136028193D01*
X63535881Y-135926430D01*
X63500496Y-135850271D01*
X63476584Y-135808649D01*
X63474884Y-135806653D01*
X63460262Y-135794758D01*
X63435565Y-135782995D01*
X63395372Y-135770146D01*
X63334263Y-135754994D01*
X63246817Y-135736321D01*
X63127612Y-135712910D01*
X62971227Y-135683542D01*
X62772243Y-135647000D01*
X62729160Y-135639143D01*
X62601471Y-135614472D01*
X62490153Y-135590338D01*
X62405045Y-135569069D01*
X62355983Y-135552993D01*
X62349405Y-135549245D01*
X62338564Y-135516018D01*
X62329753Y-135441766D01*
X62322976Y-135335121D01*
X62318240Y-135204712D01*
X62315550Y-135059172D01*
X62314913Y-134907131D01*
X62316334Y-134757221D01*
X62319820Y-134618073D01*
X62325376Y-134498317D01*
X62333008Y-134406586D01*
X62342722Y-134351511D01*
X62348578Y-134340238D01*
X62381180Y-134328868D01*
X62455418Y-134310369D01*
X62563896Y-134286347D01*
X62699217Y-134258407D01*
X62853985Y-134228153D01*
X62938308Y-134212296D01*
X63098296Y-134182389D01*
X63240967Y-134155295D01*
X63359348Y-134132376D01*
X63446465Y-134114988D01*
X63495345Y-134104492D01*
X63503390Y-134102165D01*
X63516987Y-134075931D01*
X63545729Y-134012740D01*
X63585785Y-133921622D01*
X63633324Y-133811602D01*
X63684515Y-133691710D01*
X63735526Y-133570972D01*
X63782526Y-133458416D01*
X63821684Y-133363071D01*
X63849169Y-133293962D01*
X63861149Y-133260119D01*
X63861372Y-133258640D01*
X63847791Y-133231942D01*
X63809715Y-133170505D01*
X63751147Y-133080434D01*
X63676088Y-132967835D01*
X63588540Y-132838815D01*
X63537647Y-132764706D01*
X63444909Y-132628822D01*
X63362541Y-132505454D01*
X63294561Y-132400842D01*
X63244988Y-132321228D01*
X63217842Y-132272852D01*
X63213921Y-132262007D01*
X63230775Y-132236765D01*
X63277368Y-132182869D01*
X63347749Y-132106358D01*
X63435965Y-132013268D01*
X63536065Y-131909640D01*
X63642098Y-131801509D01*
X63748111Y-131694915D01*
X63848152Y-131595895D01*
X63936270Y-131510487D01*
X64006513Y-131444730D01*
X64052928Y-131404661D01*
X64068456Y-131395098D01*
X64093739Y-131408545D01*
X64154211Y-131446320D01*
X64243992Y-131504580D01*
X64357203Y-131579479D01*
X64487964Y-131667170D01*
X64586600Y-131733978D01*
X65084957Y-132072857D01*
X65500371Y-131901610D01*
X65915784Y-131730363D01*
X66028366Y-131133172D01*
X66140949Y-130535980D01*
X67383952Y-130535980D01*
X67496535Y-131133172D01*
G37*
X67496535Y-131133172D02*
X67609117Y-131730363D01*
X68024531Y-131901610D01*
X68439944Y-132072857D01*
X68938302Y-131733978D01*
X69077868Y-131639622D01*
X69204028Y-131555375D01*
X69310895Y-131485083D01*
X69392582Y-131432592D01*
X69443201Y-131401749D01*
X69456986Y-131395098D01*
X69481820Y-131412203D01*
X69534888Y-131459489D01*
X69610240Y-131530917D01*
X69701929Y-131620445D01*
X69804007Y-131722034D01*
X69910526Y-131829643D01*
X70015536Y-131937232D01*
X70113091Y-132038760D01*
X70197242Y-132128186D01*
X70262040Y-132199471D01*
X70301538Y-132246573D01*
X70310980Y-132262337D01*
X70297391Y-132291398D01*
X70259293Y-132355066D01*
X70200694Y-132447112D01*
X70125597Y-132561309D01*
X70038009Y-132691429D01*
X69987254Y-132765646D01*
X69894745Y-132901167D01*
X69812540Y-133023461D01*
X69744630Y-133126440D01*
X69695000Y-133204018D01*
X69667640Y-133250106D01*
X69663529Y-133259792D01*
X69672849Y-133287319D01*
X69698254Y-133351473D01*
X69735911Y-133443235D01*
X69781986Y-133553584D01*
X69832646Y-133673500D01*
X69884059Y-133793964D01*
X69932389Y-133905954D01*
X69973806Y-134000452D01*
X70004474Y-134068437D01*
X70020562Y-134100888D01*
X70021511Y-134102165D01*
X70046772Y-134108362D01*
X70114046Y-134122185D01*
X70216360Y-134142277D01*
X70346741Y-134167279D01*
X70498216Y-134195831D01*
X70586594Y-134212296D01*
X70748452Y-134243114D01*
X70894649Y-134272439D01*
X71017787Y-134298666D01*
X71110469Y-134320191D01*
X71165301Y-134335410D01*
X71176323Y-134340238D01*
X71187119Y-134372919D01*
X71195829Y-134446730D01*
X71202460Y-134553037D01*
X71207018Y-134683212D01*
X71209509Y-134828621D01*
X71209938Y-134980635D01*
X71208311Y-135130622D01*
X71204635Y-135269951D01*
X71198915Y-135389990D01*
X71191158Y-135482110D01*
X71181368Y-135537677D01*
X71175496Y-135549245D01*
X71140399Y-135563110D01*
X71066028Y-135582933D01*
X70962223Y-135606384D01*
X70838819Y-135631136D01*
X70795741Y-135639143D01*
X70588047Y-135677186D01*
X70423984Y-135707824D01*
X70298130Y-135732274D01*
X70205065Y-135751754D01*
X70139367Y-135767481D01*
X70095617Y-135780673D01*
X70068392Y-135792549D01*
X70052272Y-135804325D01*
X70050017Y-135806653D01*
X70027503Y-135844145D01*
X69993158Y-135917110D01*
X69950411Y-136016612D01*
X69902692Y-136133718D01*
X69853430Y-136259493D01*
X69806055Y-136385002D01*
X69763995Y-136501310D01*
X69730680Y-136599484D01*
X69709541Y-136670588D01*
X69704005Y-136705687D01*
X69704466Y-136706917D01*
X69723223Y-136735606D01*
X69765776Y-136798730D01*
X69827653Y-136889718D01*
X69904382Y-137002000D01*
X69991491Y-137129005D01*
X70016299Y-137165098D01*
X70104753Y-137295948D01*
X70182588Y-137415336D01*
X70245566Y-137516407D01*
X70289445Y-137592304D01*
X70309985Y-137636172D01*
X70310980Y-137641562D01*
X70293722Y-137669889D01*
X70246036Y-137726006D01*
X70174050Y-137803882D01*
X70083897Y-137897485D01*
X69981705Y-138000786D01*
X69873606Y-138107751D01*
X69765728Y-138212351D01*
X69664204Y-138308554D01*
X69575162Y-138390329D01*
X69504733Y-138451645D01*
X69459047Y-138486471D01*
X69446409Y-138492157D01*
X69416991Y-138478765D01*
X69356761Y-138442644D01*
X69275530Y-138389881D01*
X69213030Y-138347412D01*
X69099785Y-138269485D01*
X68965674Y-138177729D01*
X68831155Y-138086120D01*
X68758833Y-138037091D01*
X68514038Y-137871515D01*
X68308551Y-137982620D01*
X68214936Y-138031293D01*
X68135330Y-138069126D01*
X68081467Y-138090703D01*
X68067757Y-138093706D01*
X68051270Y-138071538D01*
X68018745Y-138008894D01*
X67972609Y-137911554D01*
X67915290Y-137785294D01*
X67849216Y-137635895D01*
X67776815Y-137469133D01*
X67700516Y-137290787D01*
X67622746Y-137106636D01*
X67545934Y-136922457D01*
X67472506Y-136744030D01*
X67404892Y-136577132D01*
X67345520Y-136427542D01*
X67296816Y-136301038D01*
X67261210Y-136203399D01*
X67241130Y-136140402D01*
X67237900Y-136118766D01*
X67263496Y-136091169D01*
X67319539Y-136046370D01*
X67394311Y-135993679D01*
X67400587Y-135989510D01*
X67593845Y-135834814D01*
X67749674Y-135654336D01*
X67866724Y-135453847D01*
X67943645Y-135239119D01*
X67979086Y-135015922D01*
X67971697Y-134790026D01*
X67920127Y-134567204D01*
X67823026Y-134353224D01*
X67794458Y-134306409D01*
X67645868Y-134117363D01*
X67470327Y-133965557D01*
X67273910Y-133851779D01*
X67062693Y-133776820D01*
X66842753Y-133741467D01*
X66620163Y-133746512D01*
X66401001Y-133792744D01*
X66191342Y-133880951D01*
X65997261Y-134011924D01*
X65937226Y-134065082D01*
X65784435Y-134231484D01*
X65673097Y-134406657D01*
X65596723Y-134603011D01*
X65554187Y-134797462D01*
X65543686Y-135016087D01*
X65578701Y-135235797D01*
X65655673Y-135449165D01*
X65771047Y-135648767D01*
X65921266Y-135827174D01*
X66102773Y-135976962D01*
X66126627Y-135992751D01*
X66202201Y-136044457D01*
X66259651Y-136089257D01*
X66287117Y-136117862D01*
X66287517Y-136118766D01*
X66281620Y-136149709D01*
X66258245Y-136219936D01*
X66219821Y-136323670D01*
X66168777Y-136455135D01*
X66107542Y-136608552D01*
X66038544Y-136778146D01*
X65964214Y-136958138D01*
X65886978Y-137142753D01*
X65809268Y-137326213D01*
X65733511Y-137502741D01*
X65662137Y-137666559D01*
X65597574Y-137811892D01*
X65542252Y-137932962D01*
X65498600Y-138023992D01*
X65469046Y-138079205D01*
X65457144Y-138093706D01*
X65420777Y-138082414D01*
X65352730Y-138052130D01*
X65264737Y-138008265D01*
X65216351Y-137982620D01*
X65010863Y-137871515D01*
X64766068Y-138037091D01*
X64641106Y-138121915D01*
X64504295Y-138215261D01*
X64376089Y-138303153D01*
X64311871Y-138347412D01*
X64221551Y-138408063D01*
X64145071Y-138456126D01*
X64092407Y-138485515D01*
X64075302Y-138491727D01*
X64050405Y-138474968D01*
X63995305Y-138428181D01*
X63915343Y-138356225D01*
X63815861Y-138263957D01*
X63702200Y-138156235D01*
X63630315Y-138087071D01*
X63504551Y-137963502D01*
X63395863Y-137852979D01*
X63308645Y-137760230D01*
X63247289Y-137689982D01*
X63216191Y-137646965D01*
X63213208Y-137638235D01*
X63227053Y-137605029D01*
X63265312Y-137537887D01*
X63323742Y-137443608D01*
X63398097Y-137328990D01*
X63484135Y-137200828D01*
X63508603Y-137165098D01*
X63597755Y-137035234D01*
X63677738Y-136918314D01*
X63744080Y-136820907D01*
X63792311Y-136749584D01*
X63817957Y-136710915D01*
X63820435Y-136706917D01*
X63816729Y-136676100D01*
X63797061Y-136608344D01*
X63764860Y-136512584D01*
X63723555Y-136397754D01*
X63676575Y-136272789D01*
X63627349Y-136146624D01*
X63579308Y-136028193D01*
X63535881Y-135926430D01*
X63500496Y-135850271D01*
X63476584Y-135808649D01*
X63474884Y-135806653D01*
X63460262Y-135794758D01*
X63435565Y-135782995D01*
X63395372Y-135770146D01*
X63334263Y-135754994D01*
X63246817Y-135736321D01*
X63127612Y-135712910D01*
X62971227Y-135683542D01*
X62772243Y-135647000D01*
X62729160Y-135639143D01*
X62601471Y-135614472D01*
X62490153Y-135590338D01*
X62405045Y-135569069D01*
X62355983Y-135552993D01*
X62349405Y-135549245D01*
X62338564Y-135516018D01*
X62329753Y-135441766D01*
X62322976Y-135335121D01*
X62318240Y-135204712D01*
X62315550Y-135059172D01*
X62314913Y-134907131D01*
X62316334Y-134757221D01*
X62319820Y-134618073D01*
X62325376Y-134498317D01*
X62333008Y-134406586D01*
X62342722Y-134351511D01*
X62348578Y-134340238D01*
X62381180Y-134328868D01*
X62455418Y-134310369D01*
X62563896Y-134286347D01*
X62699217Y-134258407D01*
X62853985Y-134228153D01*
X62938308Y-134212296D01*
X63098296Y-134182389D01*
X63240967Y-134155295D01*
X63359348Y-134132376D01*
X63446465Y-134114988D01*
X63495345Y-134104492D01*
X63503390Y-134102165D01*
X63516987Y-134075931D01*
X63545729Y-134012740D01*
X63585785Y-133921622D01*
X63633324Y-133811602D01*
X63684515Y-133691710D01*
X63735526Y-133570972D01*
X63782526Y-133458416D01*
X63821684Y-133363071D01*
X63849169Y-133293962D01*
X63861149Y-133260119D01*
X63861372Y-133258640D01*
X63847791Y-133231942D01*
X63809715Y-133170505D01*
X63751147Y-133080434D01*
X63676088Y-132967835D01*
X63588540Y-132838815D01*
X63537647Y-132764706D01*
X63444909Y-132628822D01*
X63362541Y-132505454D01*
X63294561Y-132400842D01*
X63244988Y-132321228D01*
X63217842Y-132272852D01*
X63213921Y-132262007D01*
X63230775Y-132236765D01*
X63277368Y-132182869D01*
X63347749Y-132106358D01*
X63435965Y-132013268D01*
X63536065Y-131909640D01*
X63642098Y-131801509D01*
X63748111Y-131694915D01*
X63848152Y-131595895D01*
X63936270Y-131510487D01*
X64006513Y-131444730D01*
X64052928Y-131404661D01*
X64068456Y-131395098D01*
X64093739Y-131408545D01*
X64154211Y-131446320D01*
X64243992Y-131504580D01*
X64357203Y-131579479D01*
X64487964Y-131667170D01*
X64586600Y-131733978D01*
X65084957Y-132072857D01*
X65500371Y-131901610D01*
X65915784Y-131730363D01*
X66028366Y-131133172D01*
X66140949Y-130535980D01*
X67383952Y-130535980D01*
X67496535Y-131133172D01*
D13*
%TO.C,D1*%
X55330000Y-168540000D02*
X55486000Y-168540000D01*
X53014000Y-168540000D02*
X53170000Y-168540000D01*
X53171392Y-165307665D02*
G75*
G03*
X53014484Y-168540000I1078608J-1672335D01*
G01*
X55328608Y-165307665D02*
G75*
G02*
X55485516Y-168540000I-1078608J-1672335D01*
G01*
X53170163Y-165938870D02*
G75*
G03*
X53170000Y-168020961I1079837J-1041130D01*
G01*
X55329837Y-165938870D02*
G75*
G02*
X55330000Y-168020961I-1079837J-1041130D01*
G01*
%TO.C,D2*%
X62080000Y-168540000D02*
X62236000Y-168540000D01*
X59764000Y-168540000D02*
X59920000Y-168540000D01*
X59921392Y-165307665D02*
G75*
G03*
X59764484Y-168540000I1078608J-1672335D01*
G01*
X62078608Y-165307665D02*
G75*
G02*
X62235516Y-168540000I-1078608J-1672335D01*
G01*
X59920163Y-165938870D02*
G75*
G03*
X59920000Y-168020961I1079837J-1041130D01*
G01*
X62079837Y-165938870D02*
G75*
G02*
X62080000Y-168020961I-1079837J-1041130D01*
G01*
%TO.C,D3*%
X69330000Y-168790000D02*
X69486000Y-168790000D01*
X67014000Y-168790000D02*
X67170000Y-168790000D01*
X67171392Y-165557665D02*
G75*
G03*
X67014484Y-168790000I1078608J-1672335D01*
G01*
X69328608Y-165557665D02*
G75*
G02*
X69485516Y-168790000I-1078608J-1672335D01*
G01*
X67170163Y-166188870D02*
G75*
G03*
X67170000Y-168270961I1079837J-1041130D01*
G01*
X69329837Y-166188870D02*
G75*
G02*
X69330000Y-168270961I-1079837J-1041130D01*
G01*
%TO.C,D4*%
X75330000Y-168790000D02*
X75486000Y-168790000D01*
X73014000Y-168790000D02*
X73170000Y-168790000D01*
X73171392Y-165557665D02*
G75*
G03*
X73014484Y-168790000I1078608J-1672335D01*
G01*
X75328608Y-165557665D02*
G75*
G02*
X75485516Y-168790000I-1078608J-1672335D01*
G01*
X73170163Y-166188870D02*
G75*
G03*
X73170000Y-168270961I1079837J-1041130D01*
G01*
X75329837Y-166188870D02*
G75*
G02*
X75330000Y-168270961I-1079837J-1041130D01*
G01*
%TO.C,D5*%
X81580000Y-168790000D02*
X81736000Y-168790000D01*
X79264000Y-168790000D02*
X79420000Y-168790000D01*
X79421392Y-165557665D02*
G75*
G03*
X79264484Y-168790000I1078608J-1672335D01*
G01*
X81578608Y-165557665D02*
G75*
G02*
X81735516Y-168790000I-1078608J-1672335D01*
G01*
X79420163Y-166188870D02*
G75*
G03*
X79420000Y-168270961I1079837J-1041130D01*
G01*
X81579837Y-166188870D02*
G75*
G02*
X81580000Y-168270961I-1079837J-1041130D01*
G01*
%TO.C,D6*%
X88330000Y-168790000D02*
X88486000Y-168790000D01*
X86014000Y-168790000D02*
X86170000Y-168790000D01*
X86171392Y-165557665D02*
G75*
G03*
X86014484Y-168790000I1078608J-1672335D01*
G01*
X88328608Y-165557665D02*
G75*
G02*
X88485516Y-168790000I-1078608J-1672335D01*
G01*
X86170163Y-166188870D02*
G75*
G03*
X86170000Y-168270961I1079837J-1041130D01*
G01*
X88329837Y-166188870D02*
G75*
G02*
X88330000Y-168270961I-1079837J-1041130D01*
G01*
%TO.C,D7*%
X94330000Y-169040000D02*
X94486000Y-169040000D01*
X92014000Y-169040000D02*
X92170000Y-169040000D01*
X92171392Y-165807665D02*
G75*
G03*
X92014484Y-169040000I1078608J-1672335D01*
G01*
X94328608Y-165807665D02*
G75*
G02*
X94485516Y-169040000I-1078608J-1672335D01*
G01*
X92170163Y-166438870D02*
G75*
G03*
X92170000Y-168520961I1079837J-1041130D01*
G01*
X94329837Y-166438870D02*
G75*
G02*
X94330000Y-168520961I-1079837J-1041130D01*
G01*
%TO.C,D8*%
X101080000Y-169040000D02*
X101236000Y-169040000D01*
X98764000Y-169040000D02*
X98920000Y-169040000D01*
X98921392Y-165807665D02*
G75*
G03*
X98764484Y-169040000I1078608J-1672335D01*
G01*
X101078608Y-165807665D02*
G75*
G02*
X101235516Y-169040000I-1078608J-1672335D01*
G01*
X98920163Y-166438870D02*
G75*
G03*
X98920000Y-168520961I1079837J-1041130D01*
G01*
X101079837Y-166438870D02*
G75*
G02*
X101080000Y-168520961I-1079837J-1041130D01*
G01*
%TO.C,D11*%
X112330000Y-169040000D02*
X112486000Y-169040000D01*
X110014000Y-169040000D02*
X110170000Y-169040000D01*
X110171392Y-165807665D02*
G75*
G03*
X110014484Y-169040000I1078608J-1672335D01*
G01*
X112328608Y-165807665D02*
G75*
G02*
X112485516Y-169040000I-1078608J-1672335D01*
G01*
X110170163Y-166438870D02*
G75*
G03*
X110170000Y-168520961I1079837J-1041130D01*
G01*
X112329837Y-166438870D02*
G75*
G02*
X112330000Y-168520961I-1079837J-1041130D01*
G01*
%TO.C,D12*%
X120330000Y-169290000D02*
X120486000Y-169290000D01*
X118014000Y-169290000D02*
X118170000Y-169290000D01*
X118171392Y-166057665D02*
G75*
G03*
X118014484Y-169290000I1078608J-1672335D01*
G01*
X120328608Y-166057665D02*
G75*
G02*
X120485516Y-169290000I-1078608J-1672335D01*
G01*
X118170163Y-166688870D02*
G75*
G03*
X118170000Y-168770961I1079837J-1041130D01*
G01*
X120329837Y-166688870D02*
G75*
G02*
X120330000Y-168770961I-1079837J-1041130D01*
G01*
%TO.C,D13*%
X128079837Y-166688870D02*
G75*
G02*
X128080000Y-168770961I-1079837J-1041130D01*
G01*
X125920163Y-166688870D02*
G75*
G03*
X125920000Y-168770961I1079837J-1041130D01*
G01*
X128078608Y-166057665D02*
G75*
G02*
X128235516Y-169290000I-1078608J-1672335D01*
G01*
X125921392Y-166057665D02*
G75*
G03*
X125764484Y-169290000I1078608J-1672335D01*
G01*
X125764000Y-169290000D02*
X125920000Y-169290000D01*
X128080000Y-169290000D02*
X128236000Y-169290000D01*
%TO.C,D14*%
X134579837Y-166688870D02*
G75*
G02*
X134580000Y-168770961I-1079837J-1041130D01*
G01*
X132420163Y-166688870D02*
G75*
G03*
X132420000Y-168770961I1079837J-1041130D01*
G01*
X134578608Y-166057665D02*
G75*
G02*
X134735516Y-169290000I-1078608J-1672335D01*
G01*
X132421392Y-166057665D02*
G75*
G03*
X132264484Y-169290000I1078608J-1672335D01*
G01*
X132264000Y-169290000D02*
X132420000Y-169290000D01*
X134580000Y-169290000D02*
X134736000Y-169290000D01*
%TO.C,D15*%
X141079837Y-166438870D02*
G75*
G02*
X141080000Y-168520961I-1079837J-1041130D01*
G01*
X138920163Y-166438870D02*
G75*
G03*
X138920000Y-168520961I1079837J-1041130D01*
G01*
X141078608Y-165807665D02*
G75*
G02*
X141235516Y-169040000I-1078608J-1672335D01*
G01*
X138921392Y-165807665D02*
G75*
G03*
X138764484Y-169040000I1078608J-1672335D01*
G01*
X138764000Y-169040000D02*
X138920000Y-169040000D01*
X141080000Y-169040000D02*
X141236000Y-169040000D01*
%TO.C,D16*%
X148080000Y-169040000D02*
X148236000Y-169040000D01*
X145764000Y-169040000D02*
X145920000Y-169040000D01*
X145921392Y-165807665D02*
G75*
G03*
X145764484Y-169040000I1078608J-1672335D01*
G01*
X148078608Y-165807665D02*
G75*
G02*
X148235516Y-169040000I-1078608J-1672335D01*
G01*
X145920163Y-166438870D02*
G75*
G03*
X145920000Y-168520961I1079837J-1041130D01*
G01*
X148079837Y-166438870D02*
G75*
G02*
X148080000Y-168520961I-1079837J-1041130D01*
G01*
%TO.C,D17*%
X154580000Y-169290000D02*
X154736000Y-169290000D01*
X152264000Y-169290000D02*
X152420000Y-169290000D01*
X152421392Y-166057665D02*
G75*
G03*
X152264484Y-169290000I1078608J-1672335D01*
G01*
X154578608Y-166057665D02*
G75*
G02*
X154735516Y-169290000I-1078608J-1672335D01*
G01*
X152420163Y-166688870D02*
G75*
G03*
X152420000Y-168770961I1079837J-1041130D01*
G01*
X154579837Y-166688870D02*
G75*
G02*
X154580000Y-168770961I-1079837J-1041130D01*
G01*
%TO.C,D18*%
X160830000Y-169290000D02*
X160986000Y-169290000D01*
X158514000Y-169290000D02*
X158670000Y-169290000D01*
X158671392Y-166057665D02*
G75*
G03*
X158514484Y-169290000I1078608J-1672335D01*
G01*
X160828608Y-166057665D02*
G75*
G02*
X160985516Y-169290000I-1078608J-1672335D01*
G01*
X158670163Y-166688870D02*
G75*
G03*
X158670000Y-168770961I1079837J-1041130D01*
G01*
X160829837Y-166688870D02*
G75*
G02*
X160830000Y-168770961I-1079837J-1041130D01*
G01*
%TO.C,D21*%
X176830000Y-169540000D02*
X176986000Y-169540000D01*
X174514000Y-169540000D02*
X174670000Y-169540000D01*
X174671392Y-166307665D02*
G75*
G03*
X174514484Y-169540000I1078608J-1672335D01*
G01*
X176828608Y-166307665D02*
G75*
G02*
X176985516Y-169540000I-1078608J-1672335D01*
G01*
X174670163Y-166938870D02*
G75*
G03*
X174670000Y-169020961I1079837J-1041130D01*
G01*
X176829837Y-166938870D02*
G75*
G02*
X176830000Y-169020961I-1079837J-1041130D01*
G01*
%TO.C,D22*%
X183830000Y-169540000D02*
X183986000Y-169540000D01*
X181514000Y-169540000D02*
X181670000Y-169540000D01*
X181671392Y-166307665D02*
G75*
G03*
X181514484Y-169540000I1078608J-1672335D01*
G01*
X183828608Y-166307665D02*
G75*
G02*
X183985516Y-169540000I-1078608J-1672335D01*
G01*
X181670163Y-166938870D02*
G75*
G03*
X181670000Y-169020961I1079837J-1041130D01*
G01*
X183829837Y-166938870D02*
G75*
G02*
X183830000Y-169020961I-1079837J-1041130D01*
G01*
%TO.C,D23*%
X190830000Y-169540000D02*
X190986000Y-169540000D01*
X188514000Y-169540000D02*
X188670000Y-169540000D01*
X188671392Y-166307665D02*
G75*
G03*
X188514484Y-169540000I1078608J-1672335D01*
G01*
X190828608Y-166307665D02*
G75*
G02*
X190985516Y-169540000I-1078608J-1672335D01*
G01*
X188670163Y-166938870D02*
G75*
G03*
X188670000Y-169020961I1079837J-1041130D01*
G01*
X190829837Y-166938870D02*
G75*
G02*
X190830000Y-169020961I-1079837J-1041130D01*
G01*
%TO.C,D24*%
X197580000Y-169540000D02*
X197736000Y-169540000D01*
X195264000Y-169540000D02*
X195420000Y-169540000D01*
X195421392Y-166307665D02*
G75*
G03*
X195264484Y-169540000I1078608J-1672335D01*
G01*
X197578608Y-166307665D02*
G75*
G02*
X197735516Y-169540000I-1078608J-1672335D01*
G01*
X195420163Y-166938870D02*
G75*
G03*
X195420000Y-169020961I1079837J-1041130D01*
G01*
X197579837Y-166938870D02*
G75*
G02*
X197580000Y-169020961I-1079837J-1041130D01*
G01*
%TO.C,D25*%
X204330000Y-169540000D02*
X204486000Y-169540000D01*
X202014000Y-169540000D02*
X202170000Y-169540000D01*
X202171392Y-166307665D02*
G75*
G03*
X202014484Y-169540000I1078608J-1672335D01*
G01*
X204328608Y-166307665D02*
G75*
G02*
X204485516Y-169540000I-1078608J-1672335D01*
G01*
X202170163Y-166938870D02*
G75*
G03*
X202170000Y-169020961I1079837J-1041130D01*
G01*
X204329837Y-166938870D02*
G75*
G02*
X204330000Y-169020961I-1079837J-1041130D01*
G01*
%TO.C,D26*%
X211080000Y-169540000D02*
X211236000Y-169540000D01*
X208764000Y-169540000D02*
X208920000Y-169540000D01*
X208921392Y-166307665D02*
G75*
G03*
X208764484Y-169540000I1078608J-1672335D01*
G01*
X211078608Y-166307665D02*
G75*
G02*
X211235516Y-169540000I-1078608J-1672335D01*
G01*
X208920163Y-166938870D02*
G75*
G03*
X208920000Y-169020961I1079837J-1041130D01*
G01*
X211079837Y-166938870D02*
G75*
G02*
X211080000Y-169020961I-1079837J-1041130D01*
G01*
%TO.C,D27*%
X218080000Y-169540000D02*
X218236000Y-169540000D01*
X215764000Y-169540000D02*
X215920000Y-169540000D01*
X215921392Y-166307665D02*
G75*
G03*
X215764484Y-169540000I1078608J-1672335D01*
G01*
X218078608Y-166307665D02*
G75*
G02*
X218235516Y-169540000I-1078608J-1672335D01*
G01*
X215920163Y-166938870D02*
G75*
G03*
X215920000Y-169020961I1079837J-1041130D01*
G01*
X218079837Y-166938870D02*
G75*
G02*
X218080000Y-169020961I-1079837J-1041130D01*
G01*
%TO.C,D28*%
X225080000Y-169540000D02*
X225236000Y-169540000D01*
X222764000Y-169540000D02*
X222920000Y-169540000D01*
X222921392Y-166307665D02*
G75*
G03*
X222764484Y-169540000I1078608J-1672335D01*
G01*
X225078608Y-166307665D02*
G75*
G02*
X225235516Y-169540000I-1078608J-1672335D01*
G01*
X222920163Y-166938870D02*
G75*
G03*
X222920000Y-169020961I1079837J-1041130D01*
G01*
X225079837Y-166938870D02*
G75*
G02*
X225080000Y-169020961I-1079837J-1041130D01*
G01*
%TO.C,D29*%
X231829837Y-166938870D02*
G75*
G02*
X231830000Y-169020961I-1079837J-1041130D01*
G01*
X229670163Y-166938870D02*
G75*
G03*
X229670000Y-169020961I1079837J-1041130D01*
G01*
X231828608Y-166307665D02*
G75*
G02*
X231985516Y-169540000I-1078608J-1672335D01*
G01*
X229671392Y-166307665D02*
G75*
G03*
X229514484Y-169540000I1078608J-1672335D01*
G01*
X229514000Y-169540000D02*
X229670000Y-169540000D01*
X231830000Y-169540000D02*
X231986000Y-169540000D01*
%TO.C,J1*%
X50300000Y-182750000D02*
X49800000Y-183250000D01*
X50300000Y-183750000D02*
X50300000Y-182750000D01*
X49800000Y-183250000D02*
X50300000Y-183750000D01*
X32980000Y-175890000D02*
X40950000Y-175890000D01*
X32980000Y-188110000D02*
X40950000Y-188110000D01*
X32980000Y-175890000D02*
X32980000Y-188110000D01*
X49600000Y-188110000D02*
X45850000Y-188110000D01*
X49600000Y-175890000D02*
X45850000Y-175890000D01*
X49600000Y-175890000D02*
X49600000Y-188110000D01*
%TO.C,R1*%
X54250000Y-174700000D02*
X54250000Y-174810000D01*
X54250000Y-187060000D02*
X54250000Y-186950000D01*
X51880000Y-174810000D02*
X51880000Y-186950000D01*
X56620000Y-174810000D02*
X51880000Y-174810000D01*
X56620000Y-186950000D02*
X56620000Y-174810000D01*
X51880000Y-186950000D02*
X56620000Y-186950000D01*
%TO.C,R2*%
X61000000Y-174700000D02*
X61000000Y-174810000D01*
X61000000Y-187060000D02*
X61000000Y-186950000D01*
X58630000Y-174810000D02*
X58630000Y-186950000D01*
X63370000Y-174810000D02*
X58630000Y-174810000D01*
X63370000Y-186950000D02*
X63370000Y-174810000D01*
X58630000Y-186950000D02*
X63370000Y-186950000D01*
%TO.C,R3*%
X65880000Y-186950000D02*
X70620000Y-186950000D01*
X70620000Y-186950000D02*
X70620000Y-174810000D01*
X70620000Y-174810000D02*
X65880000Y-174810000D01*
X65880000Y-174810000D02*
X65880000Y-186950000D01*
X68250000Y-187060000D02*
X68250000Y-186950000D01*
X68250000Y-174700000D02*
X68250000Y-174810000D01*
%TO.C,R4*%
X71880000Y-186950000D02*
X76620000Y-186950000D01*
X76620000Y-186950000D02*
X76620000Y-174810000D01*
X76620000Y-174810000D02*
X71880000Y-174810000D01*
X71880000Y-174810000D02*
X71880000Y-186950000D01*
X74250000Y-187060000D02*
X74250000Y-186950000D01*
X74250000Y-174700000D02*
X74250000Y-174810000D01*
%TO.C,R5*%
X78130000Y-186950000D02*
X82870000Y-186950000D01*
X82870000Y-186950000D02*
X82870000Y-174810000D01*
X82870000Y-174810000D02*
X78130000Y-174810000D01*
X78130000Y-174810000D02*
X78130000Y-186950000D01*
X80500000Y-187060000D02*
X80500000Y-186950000D01*
X80500000Y-174700000D02*
X80500000Y-174810000D01*
%TO.C,R6*%
X84880000Y-186950000D02*
X89620000Y-186950000D01*
X89620000Y-186950000D02*
X89620000Y-174810000D01*
X89620000Y-174810000D02*
X84880000Y-174810000D01*
X84880000Y-174810000D02*
X84880000Y-186950000D01*
X87250000Y-187060000D02*
X87250000Y-186950000D01*
X87250000Y-174700000D02*
X87250000Y-174810000D01*
%TO.C,R7*%
X93250000Y-174700000D02*
X93250000Y-174810000D01*
X93250000Y-187060000D02*
X93250000Y-186950000D01*
X90880000Y-174810000D02*
X90880000Y-186950000D01*
X95620000Y-174810000D02*
X90880000Y-174810000D01*
X95620000Y-186950000D02*
X95620000Y-174810000D01*
X90880000Y-186950000D02*
X95620000Y-186950000D01*
%TO.C,R8*%
X100000000Y-174700000D02*
X100000000Y-174810000D01*
X100000000Y-187060000D02*
X100000000Y-186950000D01*
X97630000Y-174810000D02*
X97630000Y-186950000D01*
X102370000Y-174810000D02*
X97630000Y-174810000D01*
X102370000Y-186950000D02*
X102370000Y-174810000D01*
X97630000Y-186950000D02*
X102370000Y-186950000D01*
%TO.C,R11*%
X108880000Y-186700000D02*
X113620000Y-186700000D01*
X113620000Y-186700000D02*
X113620000Y-174560000D01*
X113620000Y-174560000D02*
X108880000Y-174560000D01*
X108880000Y-174560000D02*
X108880000Y-186700000D01*
X111250000Y-186810000D02*
X111250000Y-186700000D01*
X111250000Y-174450000D02*
X111250000Y-174560000D01*
%TO.C,R12*%
X116880000Y-186700000D02*
X121620000Y-186700000D01*
X121620000Y-186700000D02*
X121620000Y-174560000D01*
X121620000Y-174560000D02*
X116880000Y-174560000D01*
X116880000Y-174560000D02*
X116880000Y-186700000D01*
X119250000Y-186810000D02*
X119250000Y-186700000D01*
X119250000Y-174450000D02*
X119250000Y-174560000D01*
%TO.C,R13*%
X127000000Y-174450000D02*
X127000000Y-174560000D01*
X127000000Y-186810000D02*
X127000000Y-186700000D01*
X124630000Y-174560000D02*
X124630000Y-186700000D01*
X129370000Y-174560000D02*
X124630000Y-174560000D01*
X129370000Y-186700000D02*
X129370000Y-174560000D01*
X124630000Y-186700000D02*
X129370000Y-186700000D01*
%TO.C,R14*%
X133500000Y-174450000D02*
X133500000Y-174560000D01*
X133500000Y-186810000D02*
X133500000Y-186700000D01*
X131130000Y-174560000D02*
X131130000Y-186700000D01*
X135870000Y-174560000D02*
X131130000Y-174560000D01*
X135870000Y-186700000D02*
X135870000Y-174560000D01*
X131130000Y-186700000D02*
X135870000Y-186700000D01*
%TO.C,R15*%
X140000000Y-174450000D02*
X140000000Y-174560000D01*
X140000000Y-186810000D02*
X140000000Y-186700000D01*
X137630000Y-174560000D02*
X137630000Y-186700000D01*
X142370000Y-174560000D02*
X137630000Y-174560000D01*
X142370000Y-186700000D02*
X142370000Y-174560000D01*
X137630000Y-186700000D02*
X142370000Y-186700000D01*
%TO.C,R16*%
X144630000Y-186700000D02*
X149370000Y-186700000D01*
X149370000Y-186700000D02*
X149370000Y-174560000D01*
X149370000Y-174560000D02*
X144630000Y-174560000D01*
X144630000Y-174560000D02*
X144630000Y-186700000D01*
X147000000Y-186810000D02*
X147000000Y-186700000D01*
X147000000Y-174450000D02*
X147000000Y-174560000D01*
%TO.C,R17*%
X151130000Y-186700000D02*
X155870000Y-186700000D01*
X155870000Y-186700000D02*
X155870000Y-174560000D01*
X155870000Y-174560000D02*
X151130000Y-174560000D01*
X151130000Y-174560000D02*
X151130000Y-186700000D01*
X153500000Y-186810000D02*
X153500000Y-186700000D01*
X153500000Y-174450000D02*
X153500000Y-174560000D01*
%TO.C,R18*%
X157380000Y-186700000D02*
X162120000Y-186700000D01*
X162120000Y-186700000D02*
X162120000Y-174560000D01*
X162120000Y-174560000D02*
X157380000Y-174560000D01*
X157380000Y-174560000D02*
X157380000Y-186700000D01*
X159750000Y-186810000D02*
X159750000Y-186700000D01*
X159750000Y-174450000D02*
X159750000Y-174560000D01*
%TO.C,R21*%
X173380000Y-186700000D02*
X178120000Y-186700000D01*
X178120000Y-186700000D02*
X178120000Y-174560000D01*
X178120000Y-174560000D02*
X173380000Y-174560000D01*
X173380000Y-174560000D02*
X173380000Y-186700000D01*
X175750000Y-186810000D02*
X175750000Y-186700000D01*
X175750000Y-174450000D02*
X175750000Y-174560000D01*
%TO.C,R22*%
X182750000Y-174450000D02*
X182750000Y-174560000D01*
X182750000Y-186810000D02*
X182750000Y-186700000D01*
X180380000Y-174560000D02*
X180380000Y-186700000D01*
X185120000Y-174560000D02*
X180380000Y-174560000D01*
X185120000Y-186700000D02*
X185120000Y-174560000D01*
X180380000Y-186700000D02*
X185120000Y-186700000D01*
%TO.C,R23*%
X187380000Y-186700000D02*
X192120000Y-186700000D01*
X192120000Y-186700000D02*
X192120000Y-174560000D01*
X192120000Y-174560000D02*
X187380000Y-174560000D01*
X187380000Y-174560000D02*
X187380000Y-186700000D01*
X189750000Y-186810000D02*
X189750000Y-186700000D01*
X189750000Y-174450000D02*
X189750000Y-174560000D01*
%TO.C,R24*%
X194130000Y-186700000D02*
X198870000Y-186700000D01*
X198870000Y-186700000D02*
X198870000Y-174560000D01*
X198870000Y-174560000D02*
X194130000Y-174560000D01*
X194130000Y-174560000D02*
X194130000Y-186700000D01*
X196500000Y-186810000D02*
X196500000Y-186700000D01*
X196500000Y-174450000D02*
X196500000Y-174560000D01*
%TO.C,R25*%
X203250000Y-174450000D02*
X203250000Y-174560000D01*
X203250000Y-186810000D02*
X203250000Y-186700000D01*
X200880000Y-174560000D02*
X200880000Y-186700000D01*
X205620000Y-174560000D02*
X200880000Y-174560000D01*
X205620000Y-186700000D02*
X205620000Y-174560000D01*
X200880000Y-186700000D02*
X205620000Y-186700000D01*
%TO.C,R26*%
X210000000Y-174450000D02*
X210000000Y-174560000D01*
X210000000Y-186810000D02*
X210000000Y-186700000D01*
X207630000Y-174560000D02*
X207630000Y-186700000D01*
X212370000Y-174560000D02*
X207630000Y-174560000D01*
X212370000Y-186700000D02*
X212370000Y-174560000D01*
X207630000Y-186700000D02*
X212370000Y-186700000D01*
%TO.C,R27*%
X217000000Y-174450000D02*
X217000000Y-174560000D01*
X217000000Y-186810000D02*
X217000000Y-186700000D01*
X214630000Y-174560000D02*
X214630000Y-186700000D01*
X219370000Y-174560000D02*
X214630000Y-174560000D01*
X219370000Y-186700000D02*
X219370000Y-174560000D01*
X214630000Y-186700000D02*
X219370000Y-186700000D01*
%TO.C,R28*%
X224000000Y-174450000D02*
X224000000Y-174560000D01*
X224000000Y-186810000D02*
X224000000Y-186700000D01*
X221630000Y-174560000D02*
X221630000Y-186700000D01*
X226370000Y-174560000D02*
X221630000Y-174560000D01*
X226370000Y-186700000D02*
X226370000Y-174560000D01*
X221630000Y-186700000D02*
X226370000Y-186700000D01*
%TO.C,R29*%
X230750000Y-174450000D02*
X230750000Y-174560000D01*
X230750000Y-186810000D02*
X230750000Y-186700000D01*
X228380000Y-174560000D02*
X228380000Y-186700000D01*
X233120000Y-174560000D02*
X228380000Y-174560000D01*
X233120000Y-186700000D02*
X233120000Y-174560000D01*
X228380000Y-186700000D02*
X233120000Y-186700000D01*
%TO.C,SW1*%
X48960000Y-142670000D02*
X47310000Y-142670000D01*
X48960000Y-163110000D02*
X48960000Y-142670000D01*
X43660000Y-163110000D02*
X48960000Y-163110000D01*
X43660000Y-142670000D02*
X43660000Y-163110000D01*
X45310000Y-142670000D02*
X43660000Y-142670000D01*
X47310000Y-142670000D02*
G75*
G02*
X45310000Y-142670000I-1000000J0D01*
G01*
%TO.C,SW2*%
X47560000Y-119420000D02*
G75*
G02*
X45560000Y-119420000I-1000000J0D01*
G01*
X45560000Y-119420000D02*
X43910000Y-119420000D01*
X43910000Y-119420000D02*
X43910000Y-139860000D01*
X43910000Y-139860000D02*
X49210000Y-139860000D01*
X49210000Y-139860000D02*
X49210000Y-119420000D01*
X49210000Y-119420000D02*
X47560000Y-119420000D01*
%TO.C,U1*%
X188560000Y-137670000D02*
G75*
G02*
X186560000Y-137670000I-1000000J0D01*
G01*
X186560000Y-137670000D02*
X184910000Y-137670000D01*
X184910000Y-137670000D02*
X184910000Y-158110000D01*
X184910000Y-158110000D02*
X190210000Y-158110000D01*
X190210000Y-158110000D02*
X190210000Y-137670000D01*
X190210000Y-137670000D02*
X188560000Y-137670000D01*
X182420000Y-137610000D02*
X182420000Y-158170000D01*
X182420000Y-158170000D02*
X192700000Y-158170000D01*
X192700000Y-158170000D02*
X192700000Y-137610000D01*
X192700000Y-137610000D02*
X182420000Y-137610000D01*
%TO.C,U2*%
X220700000Y-120360000D02*
X210420000Y-120360000D01*
X220700000Y-140920000D02*
X220700000Y-120360000D01*
X210420000Y-140920000D02*
X220700000Y-140920000D01*
X210420000Y-120360000D02*
X210420000Y-140920000D01*
X218210000Y-120420000D02*
X216560000Y-120420000D01*
X218210000Y-140860000D02*
X218210000Y-120420000D01*
X212910000Y-140860000D02*
X218210000Y-140860000D01*
X212910000Y-120420000D02*
X212910000Y-140860000D01*
X214560000Y-120420000D02*
X212910000Y-120420000D01*
X216560000Y-120420000D02*
G75*
G02*
X214560000Y-120420000I-1000000J0D01*
G01*
%TO.C,D1*%
D10*
X51742380Y-167718095D02*
X50742380Y-167718095D01*
X50742380Y-167480000D01*
X50790000Y-167337142D01*
X50885238Y-167241904D01*
X50980476Y-167194285D01*
X51170952Y-167146666D01*
X51313809Y-167146666D01*
X51504285Y-167194285D01*
X51599523Y-167241904D01*
X51694761Y-167337142D01*
X51742380Y-167480000D01*
X51742380Y-167718095D01*
X51742380Y-166194285D02*
X51742380Y-166765714D01*
X51742380Y-166480000D02*
X50742380Y-166480000D01*
X50885238Y-166575238D01*
X50980476Y-166670476D01*
X51028095Y-166765714D01*
%TO.C,D2*%
X58492380Y-167718095D02*
X57492380Y-167718095D01*
X57492380Y-167480000D01*
X57540000Y-167337142D01*
X57635238Y-167241904D01*
X57730476Y-167194285D01*
X57920952Y-167146666D01*
X58063809Y-167146666D01*
X58254285Y-167194285D01*
X58349523Y-167241904D01*
X58444761Y-167337142D01*
X58492380Y-167480000D01*
X58492380Y-167718095D01*
X57587619Y-166765714D02*
X57540000Y-166718095D01*
X57492380Y-166622857D01*
X57492380Y-166384761D01*
X57540000Y-166289523D01*
X57587619Y-166241904D01*
X57682857Y-166194285D01*
X57778095Y-166194285D01*
X57920952Y-166241904D01*
X58492380Y-166813333D01*
X58492380Y-166194285D01*
%TO.C,D3*%
X65742380Y-167968095D02*
X64742380Y-167968095D01*
X64742380Y-167730000D01*
X64790000Y-167587142D01*
X64885238Y-167491904D01*
X64980476Y-167444285D01*
X65170952Y-167396666D01*
X65313809Y-167396666D01*
X65504285Y-167444285D01*
X65599523Y-167491904D01*
X65694761Y-167587142D01*
X65742380Y-167730000D01*
X65742380Y-167968095D01*
X64742380Y-167063333D02*
X64742380Y-166444285D01*
X65123333Y-166777619D01*
X65123333Y-166634761D01*
X65170952Y-166539523D01*
X65218571Y-166491904D01*
X65313809Y-166444285D01*
X65551904Y-166444285D01*
X65647142Y-166491904D01*
X65694761Y-166539523D01*
X65742380Y-166634761D01*
X65742380Y-166920476D01*
X65694761Y-167015714D01*
X65647142Y-167063333D01*
%TO.C,D4*%
X71742380Y-167968095D02*
X70742380Y-167968095D01*
X70742380Y-167730000D01*
X70790000Y-167587142D01*
X70885238Y-167491904D01*
X70980476Y-167444285D01*
X71170952Y-167396666D01*
X71313809Y-167396666D01*
X71504285Y-167444285D01*
X71599523Y-167491904D01*
X71694761Y-167587142D01*
X71742380Y-167730000D01*
X71742380Y-167968095D01*
X71075714Y-166539523D02*
X71742380Y-166539523D01*
X70694761Y-166777619D02*
X71409047Y-167015714D01*
X71409047Y-166396666D01*
%TO.C,D5*%
X77992380Y-167968095D02*
X76992380Y-167968095D01*
X76992380Y-167730000D01*
X77040000Y-167587142D01*
X77135238Y-167491904D01*
X77230476Y-167444285D01*
X77420952Y-167396666D01*
X77563809Y-167396666D01*
X77754285Y-167444285D01*
X77849523Y-167491904D01*
X77944761Y-167587142D01*
X77992380Y-167730000D01*
X77992380Y-167968095D01*
X76992380Y-166491904D02*
X76992380Y-166968095D01*
X77468571Y-167015714D01*
X77420952Y-166968095D01*
X77373333Y-166872857D01*
X77373333Y-166634761D01*
X77420952Y-166539523D01*
X77468571Y-166491904D01*
X77563809Y-166444285D01*
X77801904Y-166444285D01*
X77897142Y-166491904D01*
X77944761Y-166539523D01*
X77992380Y-166634761D01*
X77992380Y-166872857D01*
X77944761Y-166968095D01*
X77897142Y-167015714D01*
%TO.C,D6*%
X84742380Y-167968095D02*
X83742380Y-167968095D01*
X83742380Y-167730000D01*
X83790000Y-167587142D01*
X83885238Y-167491904D01*
X83980476Y-167444285D01*
X84170952Y-167396666D01*
X84313809Y-167396666D01*
X84504285Y-167444285D01*
X84599523Y-167491904D01*
X84694761Y-167587142D01*
X84742380Y-167730000D01*
X84742380Y-167968095D01*
X83742380Y-166539523D02*
X83742380Y-166730000D01*
X83790000Y-166825238D01*
X83837619Y-166872857D01*
X83980476Y-166968095D01*
X84170952Y-167015714D01*
X84551904Y-167015714D01*
X84647142Y-166968095D01*
X84694761Y-166920476D01*
X84742380Y-166825238D01*
X84742380Y-166634761D01*
X84694761Y-166539523D01*
X84647142Y-166491904D01*
X84551904Y-166444285D01*
X84313809Y-166444285D01*
X84218571Y-166491904D01*
X84170952Y-166539523D01*
X84123333Y-166634761D01*
X84123333Y-166825238D01*
X84170952Y-166920476D01*
X84218571Y-166968095D01*
X84313809Y-167015714D01*
%TO.C,D7*%
X90742380Y-168218095D02*
X89742380Y-168218095D01*
X89742380Y-167980000D01*
X89790000Y-167837142D01*
X89885238Y-167741904D01*
X89980476Y-167694285D01*
X90170952Y-167646666D01*
X90313809Y-167646666D01*
X90504285Y-167694285D01*
X90599523Y-167741904D01*
X90694761Y-167837142D01*
X90742380Y-167980000D01*
X90742380Y-168218095D01*
X89742380Y-167313333D02*
X89742380Y-166646666D01*
X90742380Y-167075238D01*
%TO.C,D8*%
X97492380Y-168218095D02*
X96492380Y-168218095D01*
X96492380Y-167980000D01*
X96540000Y-167837142D01*
X96635238Y-167741904D01*
X96730476Y-167694285D01*
X96920952Y-167646666D01*
X97063809Y-167646666D01*
X97254285Y-167694285D01*
X97349523Y-167741904D01*
X97444761Y-167837142D01*
X97492380Y-167980000D01*
X97492380Y-168218095D01*
X96920952Y-167075238D02*
X96873333Y-167170476D01*
X96825714Y-167218095D01*
X96730476Y-167265714D01*
X96682857Y-167265714D01*
X96587619Y-167218095D01*
X96540000Y-167170476D01*
X96492380Y-167075238D01*
X96492380Y-166884761D01*
X96540000Y-166789523D01*
X96587619Y-166741904D01*
X96682857Y-166694285D01*
X96730476Y-166694285D01*
X96825714Y-166741904D01*
X96873333Y-166789523D01*
X96920952Y-166884761D01*
X96920952Y-167075238D01*
X96968571Y-167170476D01*
X97016190Y-167218095D01*
X97111428Y-167265714D01*
X97301904Y-167265714D01*
X97397142Y-167218095D01*
X97444761Y-167170476D01*
X97492380Y-167075238D01*
X97492380Y-166884761D01*
X97444761Y-166789523D01*
X97397142Y-166741904D01*
X97301904Y-166694285D01*
X97111428Y-166694285D01*
X97016190Y-166741904D01*
X96968571Y-166789523D01*
X96920952Y-166884761D01*
%TO.C,D11*%
X108742380Y-168694285D02*
X107742380Y-168694285D01*
X107742380Y-168456190D01*
X107790000Y-168313333D01*
X107885238Y-168218095D01*
X107980476Y-168170476D01*
X108170952Y-168122857D01*
X108313809Y-168122857D01*
X108504285Y-168170476D01*
X108599523Y-168218095D01*
X108694761Y-168313333D01*
X108742380Y-168456190D01*
X108742380Y-168694285D01*
X108742380Y-167170476D02*
X108742380Y-167741904D01*
X108742380Y-167456190D02*
X107742380Y-167456190D01*
X107885238Y-167551428D01*
X107980476Y-167646666D01*
X108028095Y-167741904D01*
X108742380Y-166218095D02*
X108742380Y-166789523D01*
X108742380Y-166503809D02*
X107742380Y-166503809D01*
X107885238Y-166599047D01*
X107980476Y-166694285D01*
X108028095Y-166789523D01*
%TO.C,D12*%
X116742380Y-168944285D02*
X115742380Y-168944285D01*
X115742380Y-168706190D01*
X115790000Y-168563333D01*
X115885238Y-168468095D01*
X115980476Y-168420476D01*
X116170952Y-168372857D01*
X116313809Y-168372857D01*
X116504285Y-168420476D01*
X116599523Y-168468095D01*
X116694761Y-168563333D01*
X116742380Y-168706190D01*
X116742380Y-168944285D01*
X116742380Y-167420476D02*
X116742380Y-167991904D01*
X116742380Y-167706190D02*
X115742380Y-167706190D01*
X115885238Y-167801428D01*
X115980476Y-167896666D01*
X116028095Y-167991904D01*
X115837619Y-167039523D02*
X115790000Y-166991904D01*
X115742380Y-166896666D01*
X115742380Y-166658571D01*
X115790000Y-166563333D01*
X115837619Y-166515714D01*
X115932857Y-166468095D01*
X116028095Y-166468095D01*
X116170952Y-166515714D01*
X116742380Y-167087142D01*
X116742380Y-166468095D01*
%TO.C,D13*%
X124492380Y-168944285D02*
X123492380Y-168944285D01*
X123492380Y-168706190D01*
X123540000Y-168563333D01*
X123635238Y-168468095D01*
X123730476Y-168420476D01*
X123920952Y-168372857D01*
X124063809Y-168372857D01*
X124254285Y-168420476D01*
X124349523Y-168468095D01*
X124444761Y-168563333D01*
X124492380Y-168706190D01*
X124492380Y-168944285D01*
X124492380Y-167420476D02*
X124492380Y-167991904D01*
X124492380Y-167706190D02*
X123492380Y-167706190D01*
X123635238Y-167801428D01*
X123730476Y-167896666D01*
X123778095Y-167991904D01*
X123492380Y-167087142D02*
X123492380Y-166468095D01*
X123873333Y-166801428D01*
X123873333Y-166658571D01*
X123920952Y-166563333D01*
X123968571Y-166515714D01*
X124063809Y-166468095D01*
X124301904Y-166468095D01*
X124397142Y-166515714D01*
X124444761Y-166563333D01*
X124492380Y-166658571D01*
X124492380Y-166944285D01*
X124444761Y-167039523D01*
X124397142Y-167087142D01*
%TO.C,D14*%
X130992380Y-168944285D02*
X129992380Y-168944285D01*
X129992380Y-168706190D01*
X130040000Y-168563333D01*
X130135238Y-168468095D01*
X130230476Y-168420476D01*
X130420952Y-168372857D01*
X130563809Y-168372857D01*
X130754285Y-168420476D01*
X130849523Y-168468095D01*
X130944761Y-168563333D01*
X130992380Y-168706190D01*
X130992380Y-168944285D01*
X130992380Y-167420476D02*
X130992380Y-167991904D01*
X130992380Y-167706190D02*
X129992380Y-167706190D01*
X130135238Y-167801428D01*
X130230476Y-167896666D01*
X130278095Y-167991904D01*
X130325714Y-166563333D02*
X130992380Y-166563333D01*
X129944761Y-166801428D02*
X130659047Y-167039523D01*
X130659047Y-166420476D01*
%TO.C,D15*%
X137492380Y-168694285D02*
X136492380Y-168694285D01*
X136492380Y-168456190D01*
X136540000Y-168313333D01*
X136635238Y-168218095D01*
X136730476Y-168170476D01*
X136920952Y-168122857D01*
X137063809Y-168122857D01*
X137254285Y-168170476D01*
X137349523Y-168218095D01*
X137444761Y-168313333D01*
X137492380Y-168456190D01*
X137492380Y-168694285D01*
X137492380Y-167170476D02*
X137492380Y-167741904D01*
X137492380Y-167456190D02*
X136492380Y-167456190D01*
X136635238Y-167551428D01*
X136730476Y-167646666D01*
X136778095Y-167741904D01*
X136492380Y-166265714D02*
X136492380Y-166741904D01*
X136968571Y-166789523D01*
X136920952Y-166741904D01*
X136873333Y-166646666D01*
X136873333Y-166408571D01*
X136920952Y-166313333D01*
X136968571Y-166265714D01*
X137063809Y-166218095D01*
X137301904Y-166218095D01*
X137397142Y-166265714D01*
X137444761Y-166313333D01*
X137492380Y-166408571D01*
X137492380Y-166646666D01*
X137444761Y-166741904D01*
X137397142Y-166789523D01*
%TO.C,D16*%
X144492380Y-168694285D02*
X143492380Y-168694285D01*
X143492380Y-168456190D01*
X143540000Y-168313333D01*
X143635238Y-168218095D01*
X143730476Y-168170476D01*
X143920952Y-168122857D01*
X144063809Y-168122857D01*
X144254285Y-168170476D01*
X144349523Y-168218095D01*
X144444761Y-168313333D01*
X144492380Y-168456190D01*
X144492380Y-168694285D01*
X144492380Y-167170476D02*
X144492380Y-167741904D01*
X144492380Y-167456190D02*
X143492380Y-167456190D01*
X143635238Y-167551428D01*
X143730476Y-167646666D01*
X143778095Y-167741904D01*
X143492380Y-166313333D02*
X143492380Y-166503809D01*
X143540000Y-166599047D01*
X143587619Y-166646666D01*
X143730476Y-166741904D01*
X143920952Y-166789523D01*
X144301904Y-166789523D01*
X144397142Y-166741904D01*
X144444761Y-166694285D01*
X144492380Y-166599047D01*
X144492380Y-166408571D01*
X144444761Y-166313333D01*
X144397142Y-166265714D01*
X144301904Y-166218095D01*
X144063809Y-166218095D01*
X143968571Y-166265714D01*
X143920952Y-166313333D01*
X143873333Y-166408571D01*
X143873333Y-166599047D01*
X143920952Y-166694285D01*
X143968571Y-166741904D01*
X144063809Y-166789523D01*
%TO.C,D17*%
X150992380Y-168944285D02*
X149992380Y-168944285D01*
X149992380Y-168706190D01*
X150040000Y-168563333D01*
X150135238Y-168468095D01*
X150230476Y-168420476D01*
X150420952Y-168372857D01*
X150563809Y-168372857D01*
X150754285Y-168420476D01*
X150849523Y-168468095D01*
X150944761Y-168563333D01*
X150992380Y-168706190D01*
X150992380Y-168944285D01*
X150992380Y-167420476D02*
X150992380Y-167991904D01*
X150992380Y-167706190D02*
X149992380Y-167706190D01*
X150135238Y-167801428D01*
X150230476Y-167896666D01*
X150278095Y-167991904D01*
X149992380Y-167087142D02*
X149992380Y-166420476D01*
X150992380Y-166849047D01*
%TO.C,D18*%
X157242380Y-168944285D02*
X156242380Y-168944285D01*
X156242380Y-168706190D01*
X156290000Y-168563333D01*
X156385238Y-168468095D01*
X156480476Y-168420476D01*
X156670952Y-168372857D01*
X156813809Y-168372857D01*
X157004285Y-168420476D01*
X157099523Y-168468095D01*
X157194761Y-168563333D01*
X157242380Y-168706190D01*
X157242380Y-168944285D01*
X157242380Y-167420476D02*
X157242380Y-167991904D01*
X157242380Y-167706190D02*
X156242380Y-167706190D01*
X156385238Y-167801428D01*
X156480476Y-167896666D01*
X156528095Y-167991904D01*
X156670952Y-166849047D02*
X156623333Y-166944285D01*
X156575714Y-166991904D01*
X156480476Y-167039523D01*
X156432857Y-167039523D01*
X156337619Y-166991904D01*
X156290000Y-166944285D01*
X156242380Y-166849047D01*
X156242380Y-166658571D01*
X156290000Y-166563333D01*
X156337619Y-166515714D01*
X156432857Y-166468095D01*
X156480476Y-166468095D01*
X156575714Y-166515714D01*
X156623333Y-166563333D01*
X156670952Y-166658571D01*
X156670952Y-166849047D01*
X156718571Y-166944285D01*
X156766190Y-166991904D01*
X156861428Y-167039523D01*
X157051904Y-167039523D01*
X157147142Y-166991904D01*
X157194761Y-166944285D01*
X157242380Y-166849047D01*
X157242380Y-166658571D01*
X157194761Y-166563333D01*
X157147142Y-166515714D01*
X157051904Y-166468095D01*
X156861428Y-166468095D01*
X156766190Y-166515714D01*
X156718571Y-166563333D01*
X156670952Y-166658571D01*
%TO.C,D21*%
X173242380Y-169194285D02*
X172242380Y-169194285D01*
X172242380Y-168956190D01*
X172290000Y-168813333D01*
X172385238Y-168718095D01*
X172480476Y-168670476D01*
X172670952Y-168622857D01*
X172813809Y-168622857D01*
X173004285Y-168670476D01*
X173099523Y-168718095D01*
X173194761Y-168813333D01*
X173242380Y-168956190D01*
X173242380Y-169194285D01*
X172337619Y-168241904D02*
X172290000Y-168194285D01*
X172242380Y-168099047D01*
X172242380Y-167860952D01*
X172290000Y-167765714D01*
X172337619Y-167718095D01*
X172432857Y-167670476D01*
X172528095Y-167670476D01*
X172670952Y-167718095D01*
X173242380Y-168289523D01*
X173242380Y-167670476D01*
X173242380Y-166718095D02*
X173242380Y-167289523D01*
X173242380Y-167003809D02*
X172242380Y-167003809D01*
X172385238Y-167099047D01*
X172480476Y-167194285D01*
X172528095Y-167289523D01*
%TO.C,D22*%
X180242380Y-169194285D02*
X179242380Y-169194285D01*
X179242380Y-168956190D01*
X179290000Y-168813333D01*
X179385238Y-168718095D01*
X179480476Y-168670476D01*
X179670952Y-168622857D01*
X179813809Y-168622857D01*
X180004285Y-168670476D01*
X180099523Y-168718095D01*
X180194761Y-168813333D01*
X180242380Y-168956190D01*
X180242380Y-169194285D01*
X179337619Y-168241904D02*
X179290000Y-168194285D01*
X179242380Y-168099047D01*
X179242380Y-167860952D01*
X179290000Y-167765714D01*
X179337619Y-167718095D01*
X179432857Y-167670476D01*
X179528095Y-167670476D01*
X179670952Y-167718095D01*
X180242380Y-168289523D01*
X180242380Y-167670476D01*
X179337619Y-167289523D02*
X179290000Y-167241904D01*
X179242380Y-167146666D01*
X179242380Y-166908571D01*
X179290000Y-166813333D01*
X179337619Y-166765714D01*
X179432857Y-166718095D01*
X179528095Y-166718095D01*
X179670952Y-166765714D01*
X180242380Y-167337142D01*
X180242380Y-166718095D01*
%TO.C,D23*%
X187242380Y-169194285D02*
X186242380Y-169194285D01*
X186242380Y-168956190D01*
X186290000Y-168813333D01*
X186385238Y-168718095D01*
X186480476Y-168670476D01*
X186670952Y-168622857D01*
X186813809Y-168622857D01*
X187004285Y-168670476D01*
X187099523Y-168718095D01*
X187194761Y-168813333D01*
X187242380Y-168956190D01*
X187242380Y-169194285D01*
X186337619Y-168241904D02*
X186290000Y-168194285D01*
X186242380Y-168099047D01*
X186242380Y-167860952D01*
X186290000Y-167765714D01*
X186337619Y-167718095D01*
X186432857Y-167670476D01*
X186528095Y-167670476D01*
X186670952Y-167718095D01*
X187242380Y-168289523D01*
X187242380Y-167670476D01*
X186242380Y-167337142D02*
X186242380Y-166718095D01*
X186623333Y-167051428D01*
X186623333Y-166908571D01*
X186670952Y-166813333D01*
X186718571Y-166765714D01*
X186813809Y-166718095D01*
X187051904Y-166718095D01*
X187147142Y-166765714D01*
X187194761Y-166813333D01*
X187242380Y-166908571D01*
X187242380Y-167194285D01*
X187194761Y-167289523D01*
X187147142Y-167337142D01*
%TO.C,D24*%
X193992380Y-169194285D02*
X192992380Y-169194285D01*
X192992380Y-168956190D01*
X193040000Y-168813333D01*
X193135238Y-168718095D01*
X193230476Y-168670476D01*
X193420952Y-168622857D01*
X193563809Y-168622857D01*
X193754285Y-168670476D01*
X193849523Y-168718095D01*
X193944761Y-168813333D01*
X193992380Y-168956190D01*
X193992380Y-169194285D01*
X193087619Y-168241904D02*
X193040000Y-168194285D01*
X192992380Y-168099047D01*
X192992380Y-167860952D01*
X193040000Y-167765714D01*
X193087619Y-167718095D01*
X193182857Y-167670476D01*
X193278095Y-167670476D01*
X193420952Y-167718095D01*
X193992380Y-168289523D01*
X193992380Y-167670476D01*
X193325714Y-166813333D02*
X193992380Y-166813333D01*
X192944761Y-167051428D02*
X193659047Y-167289523D01*
X193659047Y-166670476D01*
%TO.C,D25*%
X200742380Y-169194285D02*
X199742380Y-169194285D01*
X199742380Y-168956190D01*
X199790000Y-168813333D01*
X199885238Y-168718095D01*
X199980476Y-168670476D01*
X200170952Y-168622857D01*
X200313809Y-168622857D01*
X200504285Y-168670476D01*
X200599523Y-168718095D01*
X200694761Y-168813333D01*
X200742380Y-168956190D01*
X200742380Y-169194285D01*
X199837619Y-168241904D02*
X199790000Y-168194285D01*
X199742380Y-168099047D01*
X199742380Y-167860952D01*
X199790000Y-167765714D01*
X199837619Y-167718095D01*
X199932857Y-167670476D01*
X200028095Y-167670476D01*
X200170952Y-167718095D01*
X200742380Y-168289523D01*
X200742380Y-167670476D01*
X199742380Y-166765714D02*
X199742380Y-167241904D01*
X200218571Y-167289523D01*
X200170952Y-167241904D01*
X200123333Y-167146666D01*
X200123333Y-166908571D01*
X200170952Y-166813333D01*
X200218571Y-166765714D01*
X200313809Y-166718095D01*
X200551904Y-166718095D01*
X200647142Y-166765714D01*
X200694761Y-166813333D01*
X200742380Y-166908571D01*
X200742380Y-167146666D01*
X200694761Y-167241904D01*
X200647142Y-167289523D01*
%TO.C,D26*%
X207492380Y-169194285D02*
X206492380Y-169194285D01*
X206492380Y-168956190D01*
X206540000Y-168813333D01*
X206635238Y-168718095D01*
X206730476Y-168670476D01*
X206920952Y-168622857D01*
X207063809Y-168622857D01*
X207254285Y-168670476D01*
X207349523Y-168718095D01*
X207444761Y-168813333D01*
X207492380Y-168956190D01*
X207492380Y-169194285D01*
X206587619Y-168241904D02*
X206540000Y-168194285D01*
X206492380Y-168099047D01*
X206492380Y-167860952D01*
X206540000Y-167765714D01*
X206587619Y-167718095D01*
X206682857Y-167670476D01*
X206778095Y-167670476D01*
X206920952Y-167718095D01*
X207492380Y-168289523D01*
X207492380Y-167670476D01*
X206492380Y-166813333D02*
X206492380Y-167003809D01*
X206540000Y-167099047D01*
X206587619Y-167146666D01*
X206730476Y-167241904D01*
X206920952Y-167289523D01*
X207301904Y-167289523D01*
X207397142Y-167241904D01*
X207444761Y-167194285D01*
X207492380Y-167099047D01*
X207492380Y-166908571D01*
X207444761Y-166813333D01*
X207397142Y-166765714D01*
X207301904Y-166718095D01*
X207063809Y-166718095D01*
X206968571Y-166765714D01*
X206920952Y-166813333D01*
X206873333Y-166908571D01*
X206873333Y-167099047D01*
X206920952Y-167194285D01*
X206968571Y-167241904D01*
X207063809Y-167289523D01*
%TO.C,D27*%
X214492380Y-169194285D02*
X213492380Y-169194285D01*
X213492380Y-168956190D01*
X213540000Y-168813333D01*
X213635238Y-168718095D01*
X213730476Y-168670476D01*
X213920952Y-168622857D01*
X214063809Y-168622857D01*
X214254285Y-168670476D01*
X214349523Y-168718095D01*
X214444761Y-168813333D01*
X214492380Y-168956190D01*
X214492380Y-169194285D01*
X213587619Y-168241904D02*
X213540000Y-168194285D01*
X213492380Y-168099047D01*
X213492380Y-167860952D01*
X213540000Y-167765714D01*
X213587619Y-167718095D01*
X213682857Y-167670476D01*
X213778095Y-167670476D01*
X213920952Y-167718095D01*
X214492380Y-168289523D01*
X214492380Y-167670476D01*
X213492380Y-167337142D02*
X213492380Y-166670476D01*
X214492380Y-167099047D01*
%TO.C,D28*%
X221492380Y-169194285D02*
X220492380Y-169194285D01*
X220492380Y-168956190D01*
X220540000Y-168813333D01*
X220635238Y-168718095D01*
X220730476Y-168670476D01*
X220920952Y-168622857D01*
X221063809Y-168622857D01*
X221254285Y-168670476D01*
X221349523Y-168718095D01*
X221444761Y-168813333D01*
X221492380Y-168956190D01*
X221492380Y-169194285D01*
X220587619Y-168241904D02*
X220540000Y-168194285D01*
X220492380Y-168099047D01*
X220492380Y-167860952D01*
X220540000Y-167765714D01*
X220587619Y-167718095D01*
X220682857Y-167670476D01*
X220778095Y-167670476D01*
X220920952Y-167718095D01*
X221492380Y-168289523D01*
X221492380Y-167670476D01*
X220920952Y-167099047D02*
X220873333Y-167194285D01*
X220825714Y-167241904D01*
X220730476Y-167289523D01*
X220682857Y-167289523D01*
X220587619Y-167241904D01*
X220540000Y-167194285D01*
X220492380Y-167099047D01*
X220492380Y-166908571D01*
X220540000Y-166813333D01*
X220587619Y-166765714D01*
X220682857Y-166718095D01*
X220730476Y-166718095D01*
X220825714Y-166765714D01*
X220873333Y-166813333D01*
X220920952Y-166908571D01*
X220920952Y-167099047D01*
X220968571Y-167194285D01*
X221016190Y-167241904D01*
X221111428Y-167289523D01*
X221301904Y-167289523D01*
X221397142Y-167241904D01*
X221444761Y-167194285D01*
X221492380Y-167099047D01*
X221492380Y-166908571D01*
X221444761Y-166813333D01*
X221397142Y-166765714D01*
X221301904Y-166718095D01*
X221111428Y-166718095D01*
X221016190Y-166765714D01*
X220968571Y-166813333D01*
X220920952Y-166908571D01*
%TO.C,D29*%
X228242380Y-169194285D02*
X227242380Y-169194285D01*
X227242380Y-168956190D01*
X227290000Y-168813333D01*
X227385238Y-168718095D01*
X227480476Y-168670476D01*
X227670952Y-168622857D01*
X227813809Y-168622857D01*
X228004285Y-168670476D01*
X228099523Y-168718095D01*
X228194761Y-168813333D01*
X228242380Y-168956190D01*
X228242380Y-169194285D01*
X227337619Y-168241904D02*
X227290000Y-168194285D01*
X227242380Y-168099047D01*
X227242380Y-167860952D01*
X227290000Y-167765714D01*
X227337619Y-167718095D01*
X227432857Y-167670476D01*
X227528095Y-167670476D01*
X227670952Y-167718095D01*
X228242380Y-168289523D01*
X228242380Y-167670476D01*
X228242380Y-167194285D02*
X228242380Y-167003809D01*
X228194761Y-166908571D01*
X228147142Y-166860952D01*
X228004285Y-166765714D01*
X227813809Y-166718095D01*
X227432857Y-166718095D01*
X227337619Y-166765714D01*
X227290000Y-166813333D01*
X227242380Y-166908571D01*
X227242380Y-167099047D01*
X227290000Y-167194285D01*
X227337619Y-167241904D01*
X227432857Y-167289523D01*
X227670952Y-167289523D01*
X227766190Y-167241904D01*
X227813809Y-167194285D01*
X227861428Y-167099047D01*
X227861428Y-166908571D01*
X227813809Y-166813333D01*
X227766190Y-166765714D01*
X227670952Y-166718095D01*
%TO.C,J1*%
X40416666Y-190352380D02*
X40416666Y-191066666D01*
X40369047Y-191209523D01*
X40273809Y-191304761D01*
X40130952Y-191352380D01*
X40035714Y-191352380D01*
X41416666Y-191352380D02*
X40845238Y-191352380D01*
X41130952Y-191352380D02*
X41130952Y-190352380D01*
X41035714Y-190495238D01*
X40940476Y-190590476D01*
X40845238Y-190638095D01*
%TO.C,R1*%
X51332380Y-181046666D02*
X50856190Y-181380000D01*
X51332380Y-181618095D02*
X50332380Y-181618095D01*
X50332380Y-181237142D01*
X50380000Y-181141904D01*
X50427619Y-181094285D01*
X50522857Y-181046666D01*
X50665714Y-181046666D01*
X50760952Y-181094285D01*
X50808571Y-181141904D01*
X50856190Y-181237142D01*
X50856190Y-181618095D01*
X51332380Y-180094285D02*
X51332380Y-180665714D01*
X51332380Y-180380000D02*
X50332380Y-180380000D01*
X50475238Y-180475238D01*
X50570476Y-180570476D01*
X50618095Y-180665714D01*
%TO.C,R2*%
X58082380Y-181046666D02*
X57606190Y-181380000D01*
X58082380Y-181618095D02*
X57082380Y-181618095D01*
X57082380Y-181237142D01*
X57130000Y-181141904D01*
X57177619Y-181094285D01*
X57272857Y-181046666D01*
X57415714Y-181046666D01*
X57510952Y-181094285D01*
X57558571Y-181141904D01*
X57606190Y-181237142D01*
X57606190Y-181618095D01*
X57177619Y-180665714D02*
X57130000Y-180618095D01*
X57082380Y-180522857D01*
X57082380Y-180284761D01*
X57130000Y-180189523D01*
X57177619Y-180141904D01*
X57272857Y-180094285D01*
X57368095Y-180094285D01*
X57510952Y-180141904D01*
X58082380Y-180713333D01*
X58082380Y-180094285D01*
%TO.C,R3*%
X65332380Y-181046666D02*
X64856190Y-181380000D01*
X65332380Y-181618095D02*
X64332380Y-181618095D01*
X64332380Y-181237142D01*
X64380000Y-181141904D01*
X64427619Y-181094285D01*
X64522857Y-181046666D01*
X64665714Y-181046666D01*
X64760952Y-181094285D01*
X64808571Y-181141904D01*
X64856190Y-181237142D01*
X64856190Y-181618095D01*
X64332380Y-180713333D02*
X64332380Y-180094285D01*
X64713333Y-180427619D01*
X64713333Y-180284761D01*
X64760952Y-180189523D01*
X64808571Y-180141904D01*
X64903809Y-180094285D01*
X65141904Y-180094285D01*
X65237142Y-180141904D01*
X65284761Y-180189523D01*
X65332380Y-180284761D01*
X65332380Y-180570476D01*
X65284761Y-180665714D01*
X65237142Y-180713333D01*
%TO.C,R4*%
X71332380Y-181046666D02*
X70856190Y-181380000D01*
X71332380Y-181618095D02*
X70332380Y-181618095D01*
X70332380Y-181237142D01*
X70380000Y-181141904D01*
X70427619Y-181094285D01*
X70522857Y-181046666D01*
X70665714Y-181046666D01*
X70760952Y-181094285D01*
X70808571Y-181141904D01*
X70856190Y-181237142D01*
X70856190Y-181618095D01*
X70665714Y-180189523D02*
X71332380Y-180189523D01*
X70284761Y-180427619D02*
X70999047Y-180665714D01*
X70999047Y-180046666D01*
%TO.C,R5*%
X77582380Y-181046666D02*
X77106190Y-181380000D01*
X77582380Y-181618095D02*
X76582380Y-181618095D01*
X76582380Y-181237142D01*
X76630000Y-181141904D01*
X76677619Y-181094285D01*
X76772857Y-181046666D01*
X76915714Y-181046666D01*
X77010952Y-181094285D01*
X77058571Y-181141904D01*
X77106190Y-181237142D01*
X77106190Y-181618095D01*
X76582380Y-180141904D02*
X76582380Y-180618095D01*
X77058571Y-180665714D01*
X77010952Y-180618095D01*
X76963333Y-180522857D01*
X76963333Y-180284761D01*
X77010952Y-180189523D01*
X77058571Y-180141904D01*
X77153809Y-180094285D01*
X77391904Y-180094285D01*
X77487142Y-180141904D01*
X77534761Y-180189523D01*
X77582380Y-180284761D01*
X77582380Y-180522857D01*
X77534761Y-180618095D01*
X77487142Y-180665714D01*
%TO.C,R6*%
X84332380Y-181046666D02*
X83856190Y-181380000D01*
X84332380Y-181618095D02*
X83332380Y-181618095D01*
X83332380Y-181237142D01*
X83380000Y-181141904D01*
X83427619Y-181094285D01*
X83522857Y-181046666D01*
X83665714Y-181046666D01*
X83760952Y-181094285D01*
X83808571Y-181141904D01*
X83856190Y-181237142D01*
X83856190Y-181618095D01*
X83332380Y-180189523D02*
X83332380Y-180380000D01*
X83380000Y-180475238D01*
X83427619Y-180522857D01*
X83570476Y-180618095D01*
X83760952Y-180665714D01*
X84141904Y-180665714D01*
X84237142Y-180618095D01*
X84284761Y-180570476D01*
X84332380Y-180475238D01*
X84332380Y-180284761D01*
X84284761Y-180189523D01*
X84237142Y-180141904D01*
X84141904Y-180094285D01*
X83903809Y-180094285D01*
X83808571Y-180141904D01*
X83760952Y-180189523D01*
X83713333Y-180284761D01*
X83713333Y-180475238D01*
X83760952Y-180570476D01*
X83808571Y-180618095D01*
X83903809Y-180665714D01*
%TO.C,R7*%
X90332380Y-181046666D02*
X89856190Y-181380000D01*
X90332380Y-181618095D02*
X89332380Y-181618095D01*
X89332380Y-181237142D01*
X89380000Y-181141904D01*
X89427619Y-181094285D01*
X89522857Y-181046666D01*
X89665714Y-181046666D01*
X89760952Y-181094285D01*
X89808571Y-181141904D01*
X89856190Y-181237142D01*
X89856190Y-181618095D01*
X89332380Y-180713333D02*
X89332380Y-180046666D01*
X90332380Y-180475238D01*
%TO.C,R8*%
X97082380Y-181046666D02*
X96606190Y-181380000D01*
X97082380Y-181618095D02*
X96082380Y-181618095D01*
X96082380Y-181237142D01*
X96130000Y-181141904D01*
X96177619Y-181094285D01*
X96272857Y-181046666D01*
X96415714Y-181046666D01*
X96510952Y-181094285D01*
X96558571Y-181141904D01*
X96606190Y-181237142D01*
X96606190Y-181618095D01*
X96510952Y-180475238D02*
X96463333Y-180570476D01*
X96415714Y-180618095D01*
X96320476Y-180665714D01*
X96272857Y-180665714D01*
X96177619Y-180618095D01*
X96130000Y-180570476D01*
X96082380Y-180475238D01*
X96082380Y-180284761D01*
X96130000Y-180189523D01*
X96177619Y-180141904D01*
X96272857Y-180094285D01*
X96320476Y-180094285D01*
X96415714Y-180141904D01*
X96463333Y-180189523D01*
X96510952Y-180284761D01*
X96510952Y-180475238D01*
X96558571Y-180570476D01*
X96606190Y-180618095D01*
X96701428Y-180665714D01*
X96891904Y-180665714D01*
X96987142Y-180618095D01*
X97034761Y-180570476D01*
X97082380Y-180475238D01*
X97082380Y-180284761D01*
X97034761Y-180189523D01*
X96987142Y-180141904D01*
X96891904Y-180094285D01*
X96701428Y-180094285D01*
X96606190Y-180141904D01*
X96558571Y-180189523D01*
X96510952Y-180284761D01*
%TO.C,R11*%
X108332380Y-181272857D02*
X107856190Y-181606190D01*
X108332380Y-181844285D02*
X107332380Y-181844285D01*
X107332380Y-181463333D01*
X107380000Y-181368095D01*
X107427619Y-181320476D01*
X107522857Y-181272857D01*
X107665714Y-181272857D01*
X107760952Y-181320476D01*
X107808571Y-181368095D01*
X107856190Y-181463333D01*
X107856190Y-181844285D01*
X108332380Y-180320476D02*
X108332380Y-180891904D01*
X108332380Y-180606190D02*
X107332380Y-180606190D01*
X107475238Y-180701428D01*
X107570476Y-180796666D01*
X107618095Y-180891904D01*
X108332380Y-179368095D02*
X108332380Y-179939523D01*
X108332380Y-179653809D02*
X107332380Y-179653809D01*
X107475238Y-179749047D01*
X107570476Y-179844285D01*
X107618095Y-179939523D01*
%TO.C,R12*%
X116332380Y-181272857D02*
X115856190Y-181606190D01*
X116332380Y-181844285D02*
X115332380Y-181844285D01*
X115332380Y-181463333D01*
X115380000Y-181368095D01*
X115427619Y-181320476D01*
X115522857Y-181272857D01*
X115665714Y-181272857D01*
X115760952Y-181320476D01*
X115808571Y-181368095D01*
X115856190Y-181463333D01*
X115856190Y-181844285D01*
X116332380Y-180320476D02*
X116332380Y-180891904D01*
X116332380Y-180606190D02*
X115332380Y-180606190D01*
X115475238Y-180701428D01*
X115570476Y-180796666D01*
X115618095Y-180891904D01*
X115427619Y-179939523D02*
X115380000Y-179891904D01*
X115332380Y-179796666D01*
X115332380Y-179558571D01*
X115380000Y-179463333D01*
X115427619Y-179415714D01*
X115522857Y-179368095D01*
X115618095Y-179368095D01*
X115760952Y-179415714D01*
X116332380Y-179987142D01*
X116332380Y-179368095D01*
%TO.C,R13*%
X124082380Y-181272857D02*
X123606190Y-181606190D01*
X124082380Y-181844285D02*
X123082380Y-181844285D01*
X123082380Y-181463333D01*
X123130000Y-181368095D01*
X123177619Y-181320476D01*
X123272857Y-181272857D01*
X123415714Y-181272857D01*
X123510952Y-181320476D01*
X123558571Y-181368095D01*
X123606190Y-181463333D01*
X123606190Y-181844285D01*
X124082380Y-180320476D02*
X124082380Y-180891904D01*
X124082380Y-180606190D02*
X123082380Y-180606190D01*
X123225238Y-180701428D01*
X123320476Y-180796666D01*
X123368095Y-180891904D01*
X123082380Y-179987142D02*
X123082380Y-179368095D01*
X123463333Y-179701428D01*
X123463333Y-179558571D01*
X123510952Y-179463333D01*
X123558571Y-179415714D01*
X123653809Y-179368095D01*
X123891904Y-179368095D01*
X123987142Y-179415714D01*
X124034761Y-179463333D01*
X124082380Y-179558571D01*
X124082380Y-179844285D01*
X124034761Y-179939523D01*
X123987142Y-179987142D01*
%TO.C,R14*%
X130582380Y-181272857D02*
X130106190Y-181606190D01*
X130582380Y-181844285D02*
X129582380Y-181844285D01*
X129582380Y-181463333D01*
X129630000Y-181368095D01*
X129677619Y-181320476D01*
X129772857Y-181272857D01*
X129915714Y-181272857D01*
X130010952Y-181320476D01*
X130058571Y-181368095D01*
X130106190Y-181463333D01*
X130106190Y-181844285D01*
X130582380Y-180320476D02*
X130582380Y-180891904D01*
X130582380Y-180606190D02*
X129582380Y-180606190D01*
X129725238Y-180701428D01*
X129820476Y-180796666D01*
X129868095Y-180891904D01*
X129915714Y-179463333D02*
X130582380Y-179463333D01*
X129534761Y-179701428D02*
X130249047Y-179939523D01*
X130249047Y-179320476D01*
%TO.C,R15*%
X137082380Y-181272857D02*
X136606190Y-181606190D01*
X137082380Y-181844285D02*
X136082380Y-181844285D01*
X136082380Y-181463333D01*
X136130000Y-181368095D01*
X136177619Y-181320476D01*
X136272857Y-181272857D01*
X136415714Y-181272857D01*
X136510952Y-181320476D01*
X136558571Y-181368095D01*
X136606190Y-181463333D01*
X136606190Y-181844285D01*
X137082380Y-180320476D02*
X137082380Y-180891904D01*
X137082380Y-180606190D02*
X136082380Y-180606190D01*
X136225238Y-180701428D01*
X136320476Y-180796666D01*
X136368095Y-180891904D01*
X136082380Y-179415714D02*
X136082380Y-179891904D01*
X136558571Y-179939523D01*
X136510952Y-179891904D01*
X136463333Y-179796666D01*
X136463333Y-179558571D01*
X136510952Y-179463333D01*
X136558571Y-179415714D01*
X136653809Y-179368095D01*
X136891904Y-179368095D01*
X136987142Y-179415714D01*
X137034761Y-179463333D01*
X137082380Y-179558571D01*
X137082380Y-179796666D01*
X137034761Y-179891904D01*
X136987142Y-179939523D01*
%TO.C,R16*%
X144082380Y-181272857D02*
X143606190Y-181606190D01*
X144082380Y-181844285D02*
X143082380Y-181844285D01*
X143082380Y-181463333D01*
X143130000Y-181368095D01*
X143177619Y-181320476D01*
X143272857Y-181272857D01*
X143415714Y-181272857D01*
X143510952Y-181320476D01*
X143558571Y-181368095D01*
X143606190Y-181463333D01*
X143606190Y-181844285D01*
X144082380Y-180320476D02*
X144082380Y-180891904D01*
X144082380Y-180606190D02*
X143082380Y-180606190D01*
X143225238Y-180701428D01*
X143320476Y-180796666D01*
X143368095Y-180891904D01*
X143082380Y-179463333D02*
X143082380Y-179653809D01*
X143130000Y-179749047D01*
X143177619Y-179796666D01*
X143320476Y-179891904D01*
X143510952Y-179939523D01*
X143891904Y-179939523D01*
X143987142Y-179891904D01*
X144034761Y-179844285D01*
X144082380Y-179749047D01*
X144082380Y-179558571D01*
X144034761Y-179463333D01*
X143987142Y-179415714D01*
X143891904Y-179368095D01*
X143653809Y-179368095D01*
X143558571Y-179415714D01*
X143510952Y-179463333D01*
X143463333Y-179558571D01*
X143463333Y-179749047D01*
X143510952Y-179844285D01*
X143558571Y-179891904D01*
X143653809Y-179939523D01*
%TO.C,R17*%
X150582380Y-181272857D02*
X150106190Y-181606190D01*
X150582380Y-181844285D02*
X149582380Y-181844285D01*
X149582380Y-181463333D01*
X149630000Y-181368095D01*
X149677619Y-181320476D01*
X149772857Y-181272857D01*
X149915714Y-181272857D01*
X150010952Y-181320476D01*
X150058571Y-181368095D01*
X150106190Y-181463333D01*
X150106190Y-181844285D01*
X150582380Y-180320476D02*
X150582380Y-180891904D01*
X150582380Y-180606190D02*
X149582380Y-180606190D01*
X149725238Y-180701428D01*
X149820476Y-180796666D01*
X149868095Y-180891904D01*
X149582380Y-179987142D02*
X149582380Y-179320476D01*
X150582380Y-179749047D01*
%TO.C,R18*%
X156832380Y-181272857D02*
X156356190Y-181606190D01*
X156832380Y-181844285D02*
X155832380Y-181844285D01*
X155832380Y-181463333D01*
X155880000Y-181368095D01*
X155927619Y-181320476D01*
X156022857Y-181272857D01*
X156165714Y-181272857D01*
X156260952Y-181320476D01*
X156308571Y-181368095D01*
X156356190Y-181463333D01*
X156356190Y-181844285D01*
X156832380Y-180320476D02*
X156832380Y-180891904D01*
X156832380Y-180606190D02*
X155832380Y-180606190D01*
X155975238Y-180701428D01*
X156070476Y-180796666D01*
X156118095Y-180891904D01*
X156260952Y-179749047D02*
X156213333Y-179844285D01*
X156165714Y-179891904D01*
X156070476Y-179939523D01*
X156022857Y-179939523D01*
X155927619Y-179891904D01*
X155880000Y-179844285D01*
X155832380Y-179749047D01*
X155832380Y-179558571D01*
X155880000Y-179463333D01*
X155927619Y-179415714D01*
X156022857Y-179368095D01*
X156070476Y-179368095D01*
X156165714Y-179415714D01*
X156213333Y-179463333D01*
X156260952Y-179558571D01*
X156260952Y-179749047D01*
X156308571Y-179844285D01*
X156356190Y-179891904D01*
X156451428Y-179939523D01*
X156641904Y-179939523D01*
X156737142Y-179891904D01*
X156784761Y-179844285D01*
X156832380Y-179749047D01*
X156832380Y-179558571D01*
X156784761Y-179463333D01*
X156737142Y-179415714D01*
X156641904Y-179368095D01*
X156451428Y-179368095D01*
X156356190Y-179415714D01*
X156308571Y-179463333D01*
X156260952Y-179558571D01*
%TO.C,R21*%
X172832380Y-181272857D02*
X172356190Y-181606190D01*
X172832380Y-181844285D02*
X171832380Y-181844285D01*
X171832380Y-181463333D01*
X171880000Y-181368095D01*
X171927619Y-181320476D01*
X172022857Y-181272857D01*
X172165714Y-181272857D01*
X172260952Y-181320476D01*
X172308571Y-181368095D01*
X172356190Y-181463333D01*
X172356190Y-181844285D01*
X171927619Y-180891904D02*
X171880000Y-180844285D01*
X171832380Y-180749047D01*
X171832380Y-180510952D01*
X171880000Y-180415714D01*
X171927619Y-180368095D01*
X172022857Y-180320476D01*
X172118095Y-180320476D01*
X172260952Y-180368095D01*
X172832380Y-180939523D01*
X172832380Y-180320476D01*
X172832380Y-179368095D02*
X172832380Y-179939523D01*
X172832380Y-179653809D02*
X171832380Y-179653809D01*
X171975238Y-179749047D01*
X172070476Y-179844285D01*
X172118095Y-179939523D01*
%TO.C,R22*%
X179832380Y-181272857D02*
X179356190Y-181606190D01*
X179832380Y-181844285D02*
X178832380Y-181844285D01*
X178832380Y-181463333D01*
X178880000Y-181368095D01*
X178927619Y-181320476D01*
X179022857Y-181272857D01*
X179165714Y-181272857D01*
X179260952Y-181320476D01*
X179308571Y-181368095D01*
X179356190Y-181463333D01*
X179356190Y-181844285D01*
X178927619Y-180891904D02*
X178880000Y-180844285D01*
X178832380Y-180749047D01*
X178832380Y-180510952D01*
X178880000Y-180415714D01*
X178927619Y-180368095D01*
X179022857Y-180320476D01*
X179118095Y-180320476D01*
X179260952Y-180368095D01*
X179832380Y-180939523D01*
X179832380Y-180320476D01*
X178927619Y-179939523D02*
X178880000Y-179891904D01*
X178832380Y-179796666D01*
X178832380Y-179558571D01*
X178880000Y-179463333D01*
X178927619Y-179415714D01*
X179022857Y-179368095D01*
X179118095Y-179368095D01*
X179260952Y-179415714D01*
X179832380Y-179987142D01*
X179832380Y-179368095D01*
%TO.C,R23*%
X186832380Y-181272857D02*
X186356190Y-181606190D01*
X186832380Y-181844285D02*
X185832380Y-181844285D01*
X185832380Y-181463333D01*
X185880000Y-181368095D01*
X185927619Y-181320476D01*
X186022857Y-181272857D01*
X186165714Y-181272857D01*
X186260952Y-181320476D01*
X186308571Y-181368095D01*
X186356190Y-181463333D01*
X186356190Y-181844285D01*
X185927619Y-180891904D02*
X185880000Y-180844285D01*
X185832380Y-180749047D01*
X185832380Y-180510952D01*
X185880000Y-180415714D01*
X185927619Y-180368095D01*
X186022857Y-180320476D01*
X186118095Y-180320476D01*
X186260952Y-180368095D01*
X186832380Y-180939523D01*
X186832380Y-180320476D01*
X185832380Y-179987142D02*
X185832380Y-179368095D01*
X186213333Y-179701428D01*
X186213333Y-179558571D01*
X186260952Y-179463333D01*
X186308571Y-179415714D01*
X186403809Y-179368095D01*
X186641904Y-179368095D01*
X186737142Y-179415714D01*
X186784761Y-179463333D01*
X186832380Y-179558571D01*
X186832380Y-179844285D01*
X186784761Y-179939523D01*
X186737142Y-179987142D01*
%TO.C,R24*%
X193582380Y-181272857D02*
X193106190Y-181606190D01*
X193582380Y-181844285D02*
X192582380Y-181844285D01*
X192582380Y-181463333D01*
X192630000Y-181368095D01*
X192677619Y-181320476D01*
X192772857Y-181272857D01*
X192915714Y-181272857D01*
X193010952Y-181320476D01*
X193058571Y-181368095D01*
X193106190Y-181463333D01*
X193106190Y-181844285D01*
X192677619Y-180891904D02*
X192630000Y-180844285D01*
X192582380Y-180749047D01*
X192582380Y-180510952D01*
X192630000Y-180415714D01*
X192677619Y-180368095D01*
X192772857Y-180320476D01*
X192868095Y-180320476D01*
X193010952Y-180368095D01*
X193582380Y-180939523D01*
X193582380Y-180320476D01*
X192915714Y-179463333D02*
X193582380Y-179463333D01*
X192534761Y-179701428D02*
X193249047Y-179939523D01*
X193249047Y-179320476D01*
%TO.C,R25*%
X200332380Y-181272857D02*
X199856190Y-181606190D01*
X200332380Y-181844285D02*
X199332380Y-181844285D01*
X199332380Y-181463333D01*
X199380000Y-181368095D01*
X199427619Y-181320476D01*
X199522857Y-181272857D01*
X199665714Y-181272857D01*
X199760952Y-181320476D01*
X199808571Y-181368095D01*
X199856190Y-181463333D01*
X199856190Y-181844285D01*
X199427619Y-180891904D02*
X199380000Y-180844285D01*
X199332380Y-180749047D01*
X199332380Y-180510952D01*
X199380000Y-180415714D01*
X199427619Y-180368095D01*
X199522857Y-180320476D01*
X199618095Y-180320476D01*
X199760952Y-180368095D01*
X200332380Y-180939523D01*
X200332380Y-180320476D01*
X199332380Y-179415714D02*
X199332380Y-179891904D01*
X199808571Y-179939523D01*
X199760952Y-179891904D01*
X199713333Y-179796666D01*
X199713333Y-179558571D01*
X199760952Y-179463333D01*
X199808571Y-179415714D01*
X199903809Y-179368095D01*
X200141904Y-179368095D01*
X200237142Y-179415714D01*
X200284761Y-179463333D01*
X200332380Y-179558571D01*
X200332380Y-179796666D01*
X200284761Y-179891904D01*
X200237142Y-179939523D01*
%TO.C,R26*%
X207082380Y-181272857D02*
X206606190Y-181606190D01*
X207082380Y-181844285D02*
X206082380Y-181844285D01*
X206082380Y-181463333D01*
X206130000Y-181368095D01*
X206177619Y-181320476D01*
X206272857Y-181272857D01*
X206415714Y-181272857D01*
X206510952Y-181320476D01*
X206558571Y-181368095D01*
X206606190Y-181463333D01*
X206606190Y-181844285D01*
X206177619Y-180891904D02*
X206130000Y-180844285D01*
X206082380Y-180749047D01*
X206082380Y-180510952D01*
X206130000Y-180415714D01*
X206177619Y-180368095D01*
X206272857Y-180320476D01*
X206368095Y-180320476D01*
X206510952Y-180368095D01*
X207082380Y-180939523D01*
X207082380Y-180320476D01*
X206082380Y-179463333D02*
X206082380Y-179653809D01*
X206130000Y-179749047D01*
X206177619Y-179796666D01*
X206320476Y-179891904D01*
X206510952Y-179939523D01*
X206891904Y-179939523D01*
X206987142Y-179891904D01*
X207034761Y-179844285D01*
X207082380Y-179749047D01*
X207082380Y-179558571D01*
X207034761Y-179463333D01*
X206987142Y-179415714D01*
X206891904Y-179368095D01*
X206653809Y-179368095D01*
X206558571Y-179415714D01*
X206510952Y-179463333D01*
X206463333Y-179558571D01*
X206463333Y-179749047D01*
X206510952Y-179844285D01*
X206558571Y-179891904D01*
X206653809Y-179939523D01*
%TO.C,R27*%
X214082380Y-181272857D02*
X213606190Y-181606190D01*
X214082380Y-181844285D02*
X213082380Y-181844285D01*
X213082380Y-181463333D01*
X213130000Y-181368095D01*
X213177619Y-181320476D01*
X213272857Y-181272857D01*
X213415714Y-181272857D01*
X213510952Y-181320476D01*
X213558571Y-181368095D01*
X213606190Y-181463333D01*
X213606190Y-181844285D01*
X213177619Y-180891904D02*
X213130000Y-180844285D01*
X213082380Y-180749047D01*
X213082380Y-180510952D01*
X213130000Y-180415714D01*
X213177619Y-180368095D01*
X213272857Y-180320476D01*
X213368095Y-180320476D01*
X213510952Y-180368095D01*
X214082380Y-180939523D01*
X214082380Y-180320476D01*
X213082380Y-179987142D02*
X213082380Y-179320476D01*
X214082380Y-179749047D01*
%TO.C,R28*%
X221082380Y-181272857D02*
X220606190Y-181606190D01*
X221082380Y-181844285D02*
X220082380Y-181844285D01*
X220082380Y-181463333D01*
X220130000Y-181368095D01*
X220177619Y-181320476D01*
X220272857Y-181272857D01*
X220415714Y-181272857D01*
X220510952Y-181320476D01*
X220558571Y-181368095D01*
X220606190Y-181463333D01*
X220606190Y-181844285D01*
X220177619Y-180891904D02*
X220130000Y-180844285D01*
X220082380Y-180749047D01*
X220082380Y-180510952D01*
X220130000Y-180415714D01*
X220177619Y-180368095D01*
X220272857Y-180320476D01*
X220368095Y-180320476D01*
X220510952Y-180368095D01*
X221082380Y-180939523D01*
X221082380Y-180320476D01*
X220510952Y-179749047D02*
X220463333Y-179844285D01*
X220415714Y-179891904D01*
X220320476Y-179939523D01*
X220272857Y-179939523D01*
X220177619Y-179891904D01*
X220130000Y-179844285D01*
X220082380Y-179749047D01*
X220082380Y-179558571D01*
X220130000Y-179463333D01*
X220177619Y-179415714D01*
X220272857Y-179368095D01*
X220320476Y-179368095D01*
X220415714Y-179415714D01*
X220463333Y-179463333D01*
X220510952Y-179558571D01*
X220510952Y-179749047D01*
X220558571Y-179844285D01*
X220606190Y-179891904D01*
X220701428Y-179939523D01*
X220891904Y-179939523D01*
X220987142Y-179891904D01*
X221034761Y-179844285D01*
X221082380Y-179749047D01*
X221082380Y-179558571D01*
X221034761Y-179463333D01*
X220987142Y-179415714D01*
X220891904Y-179368095D01*
X220701428Y-179368095D01*
X220606190Y-179415714D01*
X220558571Y-179463333D01*
X220510952Y-179558571D01*
%TO.C,R29*%
X227832380Y-181272857D02*
X227356190Y-181606190D01*
X227832380Y-181844285D02*
X226832380Y-181844285D01*
X226832380Y-181463333D01*
X226880000Y-181368095D01*
X226927619Y-181320476D01*
X227022857Y-181272857D01*
X227165714Y-181272857D01*
X227260952Y-181320476D01*
X227308571Y-181368095D01*
X227356190Y-181463333D01*
X227356190Y-181844285D01*
X226927619Y-180891904D02*
X226880000Y-180844285D01*
X226832380Y-180749047D01*
X226832380Y-180510952D01*
X226880000Y-180415714D01*
X226927619Y-180368095D01*
X227022857Y-180320476D01*
X227118095Y-180320476D01*
X227260952Y-180368095D01*
X227832380Y-180939523D01*
X227832380Y-180320476D01*
X227832380Y-179844285D02*
X227832380Y-179653809D01*
X227784761Y-179558571D01*
X227737142Y-179510952D01*
X227594285Y-179415714D01*
X227403809Y-179368095D01*
X227022857Y-179368095D01*
X226927619Y-179415714D01*
X226880000Y-179463333D01*
X226832380Y-179558571D01*
X226832380Y-179749047D01*
X226880000Y-179844285D01*
X226927619Y-179891904D01*
X227022857Y-179939523D01*
X227260952Y-179939523D01*
X227356190Y-179891904D01*
X227403809Y-179844285D01*
X227451428Y-179749047D01*
X227451428Y-179558571D01*
X227403809Y-179463333D01*
X227356190Y-179415714D01*
X227260952Y-179368095D01*
%TO.C,SW1*%
X44976666Y-142074761D02*
X45119523Y-142122380D01*
X45357619Y-142122380D01*
X45452857Y-142074761D01*
X45500476Y-142027142D01*
X45548095Y-141931904D01*
X45548095Y-141836666D01*
X45500476Y-141741428D01*
X45452857Y-141693809D01*
X45357619Y-141646190D01*
X45167142Y-141598571D01*
X45071904Y-141550952D01*
X45024285Y-141503333D01*
X44976666Y-141408095D01*
X44976666Y-141312857D01*
X45024285Y-141217619D01*
X45071904Y-141170000D01*
X45167142Y-141122380D01*
X45405238Y-141122380D01*
X45548095Y-141170000D01*
X45881428Y-141122380D02*
X46119523Y-142122380D01*
X46310000Y-141408095D01*
X46500476Y-142122380D01*
X46738571Y-141122380D01*
X47643333Y-142122380D02*
X47071904Y-142122380D01*
X47357619Y-142122380D02*
X47357619Y-141122380D01*
X47262380Y-141265238D01*
X47167142Y-141360476D01*
X47071904Y-141408095D01*
%TO.C,SW2*%
X45226666Y-118824761D02*
X45369523Y-118872380D01*
X45607619Y-118872380D01*
X45702857Y-118824761D01*
X45750476Y-118777142D01*
X45798095Y-118681904D01*
X45798095Y-118586666D01*
X45750476Y-118491428D01*
X45702857Y-118443809D01*
X45607619Y-118396190D01*
X45417142Y-118348571D01*
X45321904Y-118300952D01*
X45274285Y-118253333D01*
X45226666Y-118158095D01*
X45226666Y-118062857D01*
X45274285Y-117967619D01*
X45321904Y-117920000D01*
X45417142Y-117872380D01*
X45655238Y-117872380D01*
X45798095Y-117920000D01*
X46131428Y-117872380D02*
X46369523Y-118872380D01*
X46560000Y-118158095D01*
X46750476Y-118872380D01*
X46988571Y-117872380D01*
X47321904Y-117967619D02*
X47369523Y-117920000D01*
X47464761Y-117872380D01*
X47702857Y-117872380D01*
X47798095Y-117920000D01*
X47845714Y-117967619D01*
X47893333Y-118062857D01*
X47893333Y-118158095D01*
X47845714Y-118300952D01*
X47274285Y-118872380D01*
X47893333Y-118872380D01*
%TO.C,U1*%
X186798095Y-136122380D02*
X186798095Y-136931904D01*
X186845714Y-137027142D01*
X186893333Y-137074761D01*
X186988571Y-137122380D01*
X187179047Y-137122380D01*
X187274285Y-137074761D01*
X187321904Y-137027142D01*
X187369523Y-136931904D01*
X187369523Y-136122380D01*
X188369523Y-137122380D02*
X187798095Y-137122380D01*
X188083809Y-137122380D02*
X188083809Y-136122380D01*
X187988571Y-136265238D01*
X187893333Y-136360476D01*
X187798095Y-136408095D01*
%TO.C,U2*%
X214798095Y-118872380D02*
X214798095Y-119681904D01*
X214845714Y-119777142D01*
X214893333Y-119824761D01*
X214988571Y-119872380D01*
X215179047Y-119872380D01*
X215274285Y-119824761D01*
X215321904Y-119777142D01*
X215369523Y-119681904D01*
X215369523Y-118872380D01*
X215798095Y-118967619D02*
X215845714Y-118920000D01*
X215940952Y-118872380D01*
X216179047Y-118872380D01*
X216274285Y-118920000D01*
X216321904Y-118967619D01*
X216369523Y-119062857D01*
X216369523Y-119158095D01*
X216321904Y-119300952D01*
X215750476Y-119872380D01*
X216369523Y-119872380D01*
%TD*%
M02*
