%TF.GenerationSoftware,KiCad,Pcbnew,(5.1.9)-1*%
%TF.CreationDate,2021-06-05T08:41:14+03:00*%
%TF.ProjectId,AdderBreakoutV2,41646465-7242-4726-9561-6b6f75745632,rev?*%
%TF.SameCoordinates,Original*%
%TF.FileFunction,Soldermask,Top*%
%TF.FilePolarity,Negative*%
%FSLAX46Y46*%
G04 Gerber Fmt 4.6, Leading zero omitted, Abs format (unit mm)*
G04 Created by KiCad (PCBNEW (5.1.9)-1) date 2021-06-05 08:41:14*
%MOMM*%
%LPD*%
G01*
G04 APERTURE LIST*
%ADD10R,1.800000X1.800000*%
%ADD11C,1.800000*%
%ADD12R,1.600000X1.600000*%
%ADD13C,1.600000*%
%ADD14C,4.000000*%
%ADD15C,2.400000*%
%ADD16O,2.400000X2.400000*%
%ADD17O,1.600000X1.600000*%
G04 APERTURE END LIST*
D10*
%TO.C,D1*%
X54250000Y-168250000D03*
D11*
X54250000Y-165710000D03*
%TD*%
D10*
%TO.C,D2*%
X61000000Y-168250000D03*
D11*
X61000000Y-165710000D03*
%TD*%
D10*
%TO.C,D3*%
X68250000Y-168500000D03*
D11*
X68250000Y-165960000D03*
%TD*%
D10*
%TO.C,D4*%
X74250000Y-168500000D03*
D11*
X74250000Y-165960000D03*
%TD*%
D10*
%TO.C,D5*%
X80500000Y-168500000D03*
D11*
X80500000Y-165960000D03*
%TD*%
D10*
%TO.C,D6*%
X87250000Y-168500000D03*
D11*
X87250000Y-165960000D03*
%TD*%
D10*
%TO.C,D7*%
X93250000Y-168750000D03*
D11*
X93250000Y-166210000D03*
%TD*%
D10*
%TO.C,D8*%
X100000000Y-168750000D03*
D11*
X100000000Y-166210000D03*
%TD*%
D10*
%TO.C,D11*%
X111250000Y-168750000D03*
D11*
X111250000Y-166210000D03*
%TD*%
D10*
%TO.C,D12*%
X119250000Y-169000000D03*
D11*
X119250000Y-166460000D03*
%TD*%
%TO.C,D13*%
X127000000Y-166460000D03*
D10*
X127000000Y-169000000D03*
%TD*%
D11*
%TO.C,D14*%
X133500000Y-166460000D03*
D10*
X133500000Y-169000000D03*
%TD*%
D11*
%TO.C,D15*%
X140000000Y-166210000D03*
D10*
X140000000Y-168750000D03*
%TD*%
%TO.C,D16*%
X147000000Y-168750000D03*
D11*
X147000000Y-166210000D03*
%TD*%
D10*
%TO.C,D17*%
X153500000Y-169000000D03*
D11*
X153500000Y-166460000D03*
%TD*%
D10*
%TO.C,D18*%
X159750000Y-169000000D03*
D11*
X159750000Y-166460000D03*
%TD*%
D10*
%TO.C,D21*%
X175750000Y-169250000D03*
D11*
X175750000Y-166710000D03*
%TD*%
D10*
%TO.C,D22*%
X182750000Y-169250000D03*
D11*
X182750000Y-166710000D03*
%TD*%
D10*
%TO.C,D23*%
X189750000Y-169250000D03*
D11*
X189750000Y-166710000D03*
%TD*%
D10*
%TO.C,D24*%
X196500000Y-169250000D03*
D11*
X196500000Y-166710000D03*
%TD*%
D10*
%TO.C,D25*%
X203250000Y-169250000D03*
D11*
X203250000Y-166710000D03*
%TD*%
D10*
%TO.C,D26*%
X210000000Y-169250000D03*
D11*
X210000000Y-166710000D03*
%TD*%
D10*
%TO.C,D27*%
X217000000Y-169250000D03*
D11*
X217000000Y-166710000D03*
%TD*%
D10*
%TO.C,D28*%
X224000000Y-169250000D03*
D11*
X224000000Y-166710000D03*
%TD*%
%TO.C,D29*%
X230750000Y-166710000D03*
D10*
X230750000Y-169250000D03*
%TD*%
D12*
%TO.C,J1*%
X48250000Y-183250000D03*
D13*
X48250000Y-180750000D03*
X46250000Y-180750000D03*
X46250000Y-183250000D03*
D14*
X43390000Y-176000000D03*
X43390000Y-188000000D03*
%TD*%
D15*
%TO.C,R1*%
X54250000Y-188500000D03*
D16*
X54250000Y-173260000D03*
%TD*%
D15*
%TO.C,R2*%
X61000000Y-188500000D03*
D16*
X61000000Y-173260000D03*
%TD*%
%TO.C,R3*%
X68250000Y-173260000D03*
D15*
X68250000Y-188500000D03*
%TD*%
D16*
%TO.C,R4*%
X74250000Y-173260000D03*
D15*
X74250000Y-188500000D03*
%TD*%
D16*
%TO.C,R5*%
X80500000Y-173260000D03*
D15*
X80500000Y-188500000D03*
%TD*%
D16*
%TO.C,R6*%
X87250000Y-173260000D03*
D15*
X87250000Y-188500000D03*
%TD*%
%TO.C,R7*%
X93250000Y-188500000D03*
D16*
X93250000Y-173260000D03*
%TD*%
D15*
%TO.C,R8*%
X100000000Y-188500000D03*
D16*
X100000000Y-173260000D03*
%TD*%
%TO.C,R11*%
X111250000Y-173010000D03*
D15*
X111250000Y-188250000D03*
%TD*%
D16*
%TO.C,R12*%
X119250000Y-173010000D03*
D15*
X119250000Y-188250000D03*
%TD*%
%TO.C,R13*%
X127000000Y-188250000D03*
D16*
X127000000Y-173010000D03*
%TD*%
D15*
%TO.C,R14*%
X133500000Y-188250000D03*
D16*
X133500000Y-173010000D03*
%TD*%
D15*
%TO.C,R15*%
X140000000Y-188250000D03*
D16*
X140000000Y-173010000D03*
%TD*%
%TO.C,R16*%
X147000000Y-173010000D03*
D15*
X147000000Y-188250000D03*
%TD*%
D16*
%TO.C,R17*%
X153500000Y-173010000D03*
D15*
X153500000Y-188250000D03*
%TD*%
D16*
%TO.C,R18*%
X159750000Y-173010000D03*
D15*
X159750000Y-188250000D03*
%TD*%
D16*
%TO.C,R21*%
X175750000Y-173010000D03*
D15*
X175750000Y-188250000D03*
%TD*%
%TO.C,R22*%
X182750000Y-188250000D03*
D16*
X182750000Y-173010000D03*
%TD*%
%TO.C,R23*%
X189750000Y-173010000D03*
D15*
X189750000Y-188250000D03*
%TD*%
D16*
%TO.C,R24*%
X196500000Y-173010000D03*
D15*
X196500000Y-188250000D03*
%TD*%
%TO.C,R25*%
X203250000Y-188250000D03*
D16*
X203250000Y-173010000D03*
%TD*%
D15*
%TO.C,R26*%
X210000000Y-188250000D03*
D16*
X210000000Y-173010000D03*
%TD*%
D15*
%TO.C,R27*%
X217000000Y-188250000D03*
D16*
X217000000Y-173010000D03*
%TD*%
D15*
%TO.C,R28*%
X224000000Y-188250000D03*
D16*
X224000000Y-173010000D03*
%TD*%
D15*
%TO.C,R29*%
X230750000Y-188250000D03*
D16*
X230750000Y-173010000D03*
%TD*%
D12*
%TO.C,SW1*%
X42500000Y-144000000D03*
D17*
X50120000Y-161780000D03*
X42500000Y-146540000D03*
X50120000Y-159240000D03*
X42500000Y-149080000D03*
X50120000Y-156700000D03*
X42500000Y-151620000D03*
X50120000Y-154160000D03*
X42500000Y-154160000D03*
X50120000Y-151620000D03*
X42500000Y-156700000D03*
X50120000Y-149080000D03*
X42500000Y-159240000D03*
X50120000Y-146540000D03*
X42500000Y-161780000D03*
X50120000Y-144000000D03*
%TD*%
%TO.C,SW2*%
X50370000Y-120750000D03*
X42750000Y-138530000D03*
X50370000Y-123290000D03*
X42750000Y-135990000D03*
X50370000Y-125830000D03*
X42750000Y-133450000D03*
X50370000Y-128370000D03*
X42750000Y-130910000D03*
X50370000Y-130910000D03*
X42750000Y-128370000D03*
X50370000Y-133450000D03*
X42750000Y-125830000D03*
X50370000Y-135990000D03*
X42750000Y-123290000D03*
X50370000Y-138530000D03*
D12*
X42750000Y-120750000D03*
%TD*%
D17*
%TO.C,U1*%
X191370000Y-139000000D03*
X183750000Y-156780000D03*
X191370000Y-141540000D03*
X183750000Y-154240000D03*
X191370000Y-144080000D03*
X183750000Y-151700000D03*
X191370000Y-146620000D03*
X183750000Y-149160000D03*
X191370000Y-149160000D03*
X183750000Y-146620000D03*
X191370000Y-151700000D03*
X183750000Y-144080000D03*
X191370000Y-154240000D03*
X183750000Y-141540000D03*
X191370000Y-156780000D03*
D12*
X183750000Y-139000000D03*
%TD*%
%TO.C,U2*%
X211750000Y-121750000D03*
D17*
X219370000Y-139530000D03*
X211750000Y-124290000D03*
X219370000Y-136990000D03*
X211750000Y-126830000D03*
X219370000Y-134450000D03*
X211750000Y-129370000D03*
X219370000Y-131910000D03*
X211750000Y-131910000D03*
X219370000Y-129370000D03*
X211750000Y-134450000D03*
X219370000Y-126830000D03*
X211750000Y-136990000D03*
X219370000Y-124290000D03*
X211750000Y-139530000D03*
X219370000Y-121750000D03*
%TD*%
M02*
